<svg width="2000" height="262" viewBox="0 0 2000 262" fill="none" xmlns="http://www.w3.org/2000/svg">
<g clip-path="url(#clip0_5_2)">
<path d="M1629.85 94.66C1629.75 61.7348 1603.07 35.1133 1570.15 35.1133H1462.36H1431.78H1407.81V260.641H1431.78H1462.36H1570.46C1603.49 260.641 1630.27 233.811 1630.16 200.781L1629.85 94.66ZM1462.36 206.095V89.6587H1558.22C1567.91 89.6587 1575.77 97.5254 1575.77 107.215V188.591C1575.77 198.281 1567.91 206.147 1558.22 206.147H1462.36V206.095Z" fill="white"/>
<path d="M1392.6 120.136L1392.39 93.827C1392.13 61.058 1365.51 34.5928 1332.74 34.5928H1229.96C1196.98 34.5928 1170.3 61.3185 1170.3 94.2437V200.469C1170.3 233.447 1197.03 260.12 1229.96 260.12H1332.95C1365.93 260.12 1392.6 233.395 1392.6 200.469V174.629H1338.06V188.122C1338.06 197.812 1330.24 205.627 1320.55 205.627H1242.35C1232.66 205.627 1224.85 197.812 1224.85 188.122V106.643C1224.85 96.9528 1232.66 89.1382 1242.35 89.1382H1320.55C1330.24 89.1382 1338.06 96.9528 1338.06 106.643V120.136H1392.6Z" fill="white"/>
<path d="M1813.75 119.146C1810.84 131.284 1800.16 137.171 1788.64 139.463C1778.17 141.547 1767.28 142.172 1756.6 142.381C1743.21 142.798 1730.03 143.006 1716.59 143.006C1700.29 143.006 1670.33 143.84 1657.36 132.326C1647.1 123.105 1648.14 103.621 1648.14 91.0654H1688.77V93.566C1688.77 98.1506 1688.15 104.038 1692.11 107.372C1695.65 110.289 1707.16 109.872 1711.59 109.872C1718.1 109.872 1724.77 110.081 1731.28 110.081C1738.84 110.081 1746.34 109.872 1753.89 109.664C1764.57 109.456 1774.21 110.081 1774.21 97.317C1774.21 95.0248 1774.21 92.1073 1772.75 90.1797C1769.84 85.5952 1758.53 86.012 1753.89 85.8036C1740.3 85.3868 1726.91 85.1784 1713.26 85.3868V55.4311H1745.51C1751.39 55.4311 1758.48 55.4311 1764.37 53.9724C1770.25 52.5137 1771.5 48.7627 1771.5 43.0841C1771.5 40.1667 1771.09 37.4577 1768.79 35.3217C1764.42 31.3623 1734.67 32.1959 1728.37 32.1959C1721.85 32.1959 1715.39 32.4043 1708.88 32.4043C1703.88 32.4043 1695.91 32.1959 1691.9 35.7385C1688.36 38.8643 1689.19 46.0016 1689.19 50.3777H1648.55V43.1362C1648.55 36.6241 1648.76 29.7473 1650.43 23.4436C1653.76 11.0966 1665.07 5.41808 1676.79 3.3342C1695.96 0 1718.16 0 1737.59 0C1746.39 0 1754.99 0 1763.74 0.416775C1777.34 0.83355 1794.11 1.04194 1804.58 11.305C1811.93 18.4423 1812.76 30.3725 1812.76 40.0104C1812.76 58.036 1807.97 65.7463 1789.95 69.5494C1793.7 70.5913 1797.71 71.2165 1801.25 72.6752C1814.85 77.8849 1815.47 90.4923 1815.47 103.256C1815.42 108.466 1815 113.884 1813.75 119.146Z" fill="white"/>
<path d="M1833.39 141.287C1833.39 135.869 1832.98 130.19 1832.98 124.772C1832.98 113.467 1832.77 102.162 1834.64 91.0654C1838.4 67.8302 1858.5 64.9127 1878.61 63.2456L1931.39 59.0779C1938.11 58.4527 1945.4 58.4527 1951.91 56.1605C1958.01 54.0766 1958.01 50.534 1958.01 44.647C1958.01 40.6877 1958.01 36.2594 1954.47 33.7588C1949.26 29.7994 1926.65 30.8414 1920.55 30.8414C1907.79 30.8414 1893.98 30.2162 1881.22 32.3001C1871.58 33.7588 1872.62 40.6877 1872.62 49.0232V53.6077H1831.36V47.9292C1831.36 36.4157 1831.57 20.5262 1840.17 11.5134C1849.75 1.45871 1871.11 1.04194 1883.88 0.416775C1892.89 0 1901.85 0 1910.86 0H1914.82L1949.36 0.208388C1962.75 0.208388 1979.94 0.416775 1990 10.6799C1997.76 18.6507 1997.76 34.5402 1997.76 44.8033C1997.76 55.2748 1997.55 66.3715 1991.66 75.5926C1983.9 87.9396 1961.92 89.6067 1948.95 90.4402C1938.89 91.0654 1929.04 91.6905 1918.99 92.3157C1911.02 92.7325 1903.1 93.3576 1895.13 93.9828C1891.59 94.1912 1882.57 94.8164 1879.24 96.0667C1872.52 98.5673 1872.52 103.204 1872.52 109.247H2000V141.287H1833.39Z" fill="white"/>
<path d="M227.195 248.919C227.143 246.314 226.413 244.543 225.007 243.605C223.6 242.72 221.672 242.147 219.224 241.886C211.045 240.532 206.147 237.406 204.585 232.509C203.022 227.559 202.24 221.256 202.344 213.545L194.061 54.5457C194.113 48.815 193.54 44.0221 192.446 40.1669C191.352 36.3118 187.653 34.28 181.297 34.1758C175.514 34.3321 171.295 35.9992 168.69 39.2292C166.033 42.4592 163.376 46.2623 160.615 50.7426L58.6611 194.165L41.4691 218.39C38.0828 223.548 34.384 228.341 30.3725 232.821C26.361 237.25 21.2555 240.011 15.0039 241C11.4613 241.313 8.12712 241.99 5.0013 243.084C1.87549 244.178 0.208388 246.783 0 250.899C0.104194 253.347 0.937744 254.962 2.60485 255.692C4.21985 256.421 6.14743 256.734 8.28341 256.63C14.1704 256.525 20.1615 256.213 26.1526 255.692C32.1959 255.119 38.2391 254.806 44.2824 254.754C49.7004 254.806 55.1185 255.067 60.5366 255.536C65.9547 256.004 71.3728 256.265 76.7908 256.317C79.2915 256.369 81.5838 255.796 83.6676 254.702C85.7515 253.556 86.8455 251.68 86.9497 249.023C86.5851 245.064 84.1886 242.824 79.7604 242.147C75.3321 241.469 70.8518 240.636 66.4236 239.542C61.9953 238.448 59.5989 235.218 59.2342 229.904C60.0156 224.225 63.7666 216.098 70.4871 205.575C77.1555 195.051 82.0526 187.653 85.0742 183.381H148.789C149.153 190.102 149.466 196.822 149.831 203.595C150.195 210.367 150.352 217.14 150.404 223.809C150.039 233.134 147.591 238.656 143.058 240.271C138.526 241.886 133.941 242.772 129.409 242.98C124.876 243.189 122.428 245.845 122.063 250.899C122.115 253.087 122.792 254.598 124.147 255.431C125.449 256.265 127.116 256.682 129.096 256.63C137.848 256.525 146.705 256.213 155.561 255.692C164.418 255.119 173.222 254.806 182.027 254.754C187.914 254.806 193.8 255.015 199.687 255.379C205.574 255.744 211.461 255.952 217.348 256.004C220.005 256.109 222.297 255.692 224.225 254.754C226.101 253.816 227.09 251.889 227.195 248.919ZM148.528 167.7H95.3373L145.976 93.7746L148.528 167.7Z" fill="white"/>
<path d="M688.304 46.6265C688.252 44.6989 687.627 43.2923 686.429 42.3025C685.231 41.3647 683.72 40.8438 681.948 40.8438C679.083 40.8438 676.27 41 673.509 41.2605C670.748 41.521 667.934 41.7815 665.069 42.1462C658.036 42.9276 650.899 43.3965 643.657 43.5528C636.416 43.7091 629.226 43.7612 622.037 43.7612C616.775 43.7091 611.513 43.5007 606.252 43.136C600.99 42.7713 595.728 42.5629 590.466 42.5108C587.966 42.5108 585.725 43.2402 583.746 44.6468C581.766 46.0534 580.724 48.0852 580.62 50.8464C581.506 55.6393 585.152 57.9315 591.456 57.6189C597.76 57.3064 601.407 60.0675 602.292 65.7982C602.24 67.4132 602.084 69.0282 601.719 70.7474C601.355 72.4145 600.886 74.0816 600.417 75.6966L560.25 214.952C558.739 221.464 557.02 227.09 555.092 231.883C553.217 236.676 548.841 239.854 542.068 241.417C538.942 241.886 535.296 242.615 531.128 243.709C526.96 244.751 524.668 247.2 524.251 251.003C524.355 253.191 525.189 254.754 526.804 255.691C528.419 256.629 530.19 257.098 532.222 257.046C539.099 256.942 545.976 256.525 552.957 255.796C559.937 255.066 566.918 254.649 573.952 254.545C581.453 254.597 589.008 254.858 596.562 255.327C604.168 255.796 611.67 256.056 619.172 256.108C622.245 256.317 625.788 256.212 629.799 255.691C633.811 255.222 635.999 252.982 636.364 249.075C636.051 245.011 634.019 242.823 630.164 242.563C626.309 242.302 622.506 241.677 618.651 240.74C614.796 239.75 612.764 236.207 612.451 229.955C612.503 227.403 612.816 224.798 613.441 222.141C614.066 219.484 614.795 216.879 615.629 214.326L655.796 74.4462C657.255 68.7156 659.026 64.4957 661.058 61.8909C663.089 59.2861 667.049 57.4106 672.988 56.2644C676.009 55.8998 679.239 55.0662 682.678 53.7638C686.116 52.4093 687.992 50.0649 688.304 46.6265Z" fill="white"/>
<path d="M897.89 48.2422C897.421 44.8038 893.931 42.3553 887.419 40.9487C880.906 39.49 874.03 38.6564 866.84 38.3959C859.651 38.1354 854.806 38.0312 852.357 38.0833C825.736 38.1354 797.864 43.5535 768.742 54.2855C739.62 65.0174 714.822 80.7507 694.295 101.433C673.769 122.116 663.037 147.435 662.099 177.338C662.464 196.354 667.986 212.035 678.562 224.434C689.138 236.833 702.527 246.054 718.677 252.097C734.827 258.141 751.446 261.162 768.481 261.162C778.901 261.162 789.32 260.537 799.792 259.287C810.263 258.036 820.526 256.213 830.633 253.817C834.488 253.035 837.77 252.045 840.531 250.847C843.292 249.649 845.428 247.148 846.887 243.345C849.7 235.374 852.201 227.299 854.389 219.068C856.577 210.889 858.869 202.71 861.214 194.582C865.069 182.965 869.601 176.192 874.863 174.16C880.125 172.129 884.814 171.191 888.877 171.295C892.941 171.399 895.077 168.847 895.285 163.637C895.181 161.449 894.347 159.886 892.732 158.948C891.117 158.01 889.294 157.542 887.314 157.594C879.344 157.698 871.373 158.062 863.402 158.688C855.379 159.313 847.356 159.73 839.229 159.782C831.571 159.678 823.912 159.365 816.306 158.844C808.648 158.271 800.99 157.958 793.384 157.906C790.831 157.854 788.382 158.323 786.038 159.313C783.694 160.303 782.443 162.282 782.235 165.252C782.548 168.847 784.683 170.878 788.591 171.243C792.55 171.66 796.457 172.441 800.417 173.587C804.376 174.733 806.46 178.224 806.773 184.059C806.408 190.05 804.584 198.229 801.25 208.649C797.916 219.068 795.207 227.456 793.071 233.759C791.821 238.656 790.154 242.095 788.07 244.179C785.986 246.21 782.339 247.2 777.129 247.148C758.479 246.731 744.36 240.688 734.775 229.018C725.241 217.349 720.448 202.449 720.396 184.371C720.552 167.7 723.991 151.55 730.763 135.869C737.536 120.188 746.705 106.382 758.322 94.5043C769.784 82.9909 783.954 73.1445 800.833 64.9653C817.713 56.7861 834.332 52.5142 850.742 52.1495C858.557 52.0453 863.35 53.6082 865.121 56.6819C866.892 59.8077 867.622 64.9653 867.309 72.2068C867.257 74.1344 867.153 76.0099 866.997 77.9375C866.788 79.8651 866.684 81.7405 866.684 83.6681C866.58 86.846 867.101 89.7114 868.247 92.3162C869.393 94.9211 871.737 96.2756 875.28 96.4319C879.187 96.1193 882.053 94.1917 883.928 90.597C885.804 87.0023 887.158 83.5118 888.044 80.1776C888.877 77.7291 890.649 72.3631 893.358 64.0276C896.015 55.5879 897.577 50.3782 897.89 48.2422Z" fill="white"/>
<path d="M1080.59 248.919C1080.54 246.314 1079.81 244.543 1078.41 243.605C1077 242.72 1075.07 242.147 1072.62 241.886C1064.44 240.532 1059.55 237.406 1057.98 232.509C1056.42 227.559 1055.64 221.256 1055.74 213.545L1047.46 54.5457C1047.51 48.815 1046.94 44.0221 1045.85 40.1669C1044.75 36.3118 1041.05 34.28 1034.7 34.1758C1028.91 34.3321 1024.69 35.9992 1022.09 39.2292C1019.43 42.4592 1016.78 46.2623 1014.01 50.7426L912.06 194.113L894.868 218.338C891.482 223.496 887.783 228.289 883.772 232.769C879.76 237.197 874.655 239.959 868.403 240.948C864.861 241.261 861.526 241.938 858.401 243.032C855.275 244.126 853.608 246.731 853.399 250.847C853.503 253.295 854.337 254.91 856.004 255.64C857.619 256.369 859.547 256.682 861.683 256.577C867.57 256.473 873.561 256.161 879.552 255.64C885.595 255.067 891.638 254.754 897.682 254.702C903.1 254.754 908.518 255.015 913.936 255.483C919.354 255.952 924.772 256.213 930.19 256.265C932.691 256.317 934.983 255.744 937.067 254.65C939.151 253.504 940.245 251.628 940.349 248.971C939.984 245.012 937.588 242.772 933.16 242.095C928.731 241.417 924.251 240.584 919.823 239.49C915.395 238.396 912.998 235.166 912.634 229.852C913.415 224.173 917.166 216.046 923.886 205.522C930.555 194.999 935.452 187.601 938.474 183.329H1002.19C1002.55 190.05 1002.87 196.77 1003.23 203.543C1003.59 210.315 1003.75 217.088 1003.8 223.756C1003.44 233.082 1000.99 238.604 996.457 240.219C991.925 241.834 987.34 242.72 982.808 242.928C978.276 243.136 975.827 245.793 975.462 250.847C975.514 253.035 976.192 254.546 977.546 255.379C978.849 256.213 980.516 256.63 982.495 256.577C991.248 256.473 1000.1 256.161 1008.96 255.64C1017.82 255.067 1026.62 254.754 1035.43 254.702C1041.31 254.754 1047.2 254.962 1053.09 255.327C1058.97 255.692 1064.86 255.9 1070.75 255.952C1073.4 256.056 1075.7 255.64 1077.62 254.702C1079.5 253.816 1080.49 251.889 1080.59 248.919ZM1001.88 167.7H948.685L999.375 93.7746L1001.88 167.7Z" fill="white"/>
<path d="M553.321 47.9292C553.269 45.8974 552.644 44.3866 551.394 43.501C550.143 42.6153 548.58 42.1464 546.601 42.1985C539.88 42.2506 533.16 42.4069 526.387 42.6674C519.614 42.9279 512.842 43.0842 506.173 43.1363C502.631 42.98 497.317 42.7716 490.18 42.5632C483.095 42.3548 478.302 43.1884 475.905 45.0639C475.436 45.7411 475.019 46.4705 474.655 47.304C474.29 48.1376 473.821 48.8669 473.405 49.5442L385.673 182.079L382.183 51.7323C382.339 49.2316 382.235 47.0956 381.922 45.3243C381.558 43.501 379.943 42.5632 377.077 42.5111C369.732 42.5632 362.334 42.7195 354.936 42.9279C347.538 43.1363 340.141 43.1363 332.795 42.8237C328.627 42.6153 324.512 42.3548 320.396 42.0422C316.28 41.7297 312.217 41.5734 308.257 41.5213C305.548 41.4171 302.943 41.7818 300.443 42.6153C297.942 43.4489 296.64 45.4285 296.483 48.5023C297.473 53.5557 301.537 56.0563 308.57 56.0042C315.655 55.9521 319.667 58.4528 320.656 63.5062C320.552 67.0488 319.823 70.6955 318.468 74.3944C317.114 78.0933 315.811 81.5838 314.613 84.8138C306.851 106.33 299.088 127.898 291.378 149.466C283.668 171.034 275.697 192.498 267.465 213.858C264.34 222.975 261.318 229.383 258.349 233.029C255.379 236.676 249.075 239.333 239.437 240.948C236.78 241.365 234.436 242.146 232.404 243.345C230.372 244.543 229.331 246.627 229.226 249.544C229.331 252.149 230.268 253.868 232.04 254.598C233.811 255.327 235.843 255.692 238.187 255.587C243.761 255.535 249.388 255.379 255.066 255.119C260.745 254.858 266.371 254.702 271.946 254.65C277.208 254.702 282.365 254.962 287.523 255.431C292.628 255.9 297.786 256.161 302.839 256.213C305.236 256.213 307.476 255.64 309.612 254.441C311.748 253.243 312.894 251.263 313.05 248.606C312.686 244.126 310.237 241.73 305.6 241.417C301.016 241.105 296.379 240.375 291.795 239.177C287.21 238.031 284.71 233.915 284.345 226.882C284.814 216.827 288.356 201.928 294.973 182.131C301.589 162.334 308.622 143.162 315.968 124.564C323.313 105.965 328.263 93.4619 330.867 87.0019L334.358 238.656C334.254 243.345 334.775 247.044 335.817 249.753C336.911 252.462 339.984 253.868 345.194 253.92C350.456 253.712 354.571 251.889 357.593 248.45C360.563 245.012 363.376 241.209 365.929 237.041L467.882 86.9498L434.123 213.754C433.082 219.224 431.571 224.694 429.539 230.268C427.507 235.791 423.496 239.229 417.557 240.531C414.118 240.792 410.315 241.313 406.043 242.199C401.771 243.084 399.479 245.689 399.062 250.065C399.114 252.41 399.948 254.077 401.511 255.066C403.074 256.004 404.897 256.473 407.033 256.473C414.379 256.369 421.776 255.952 429.174 255.223C436.572 254.493 443.97 254.077 451.315 253.972C458.974 254.077 466.632 254.493 474.238 255.223C481.896 255.952 489.555 256.369 497.161 256.473C499.974 256.577 502.527 256.056 504.767 255.014C507.007 253.972 508.205 251.889 508.309 248.815C508.049 244.96 506.121 242.772 502.527 242.146C498.932 241.573 495.389 240.688 491.795 239.594C488.2 238.5 486.272 235.27 486.012 229.956C486.064 226.101 486.533 222.193 487.366 218.182C488.2 214.223 489.138 210.367 490.18 206.668L522.688 76.322C523.834 70.5913 525.293 66.111 527.116 62.881C528.94 59.651 532.847 57.6713 538.942 56.8899C542.172 56.6815 545.35 56.0563 548.372 54.9102C551.446 54.0245 553.061 51.6281 553.321 47.9292Z" fill="white"/>
</g>
<defs>
<clipPath id="clip0_5_2">
<rect width="2000" height="261.11" fill="white"/>
</clipPath>
</defs>
</svg>
