<svg width="2560" height="465" viewBox="0 0 2560 465" fill="none" xmlns="http://www.w3.org/2000/svg">
<g clip-path="url(#clip0_1_57)">
<path d="M0 287C837.21 287 1674.42 287 2537 287C2533.6 293.795 2527.76 298.263 2522.06 303.16C2519.13 305.779 2516.4 308.577 2513.66 311.398C2510.36 314.576 2507.61 314.125 2503.15 314.125C2502.43 314.126 2501.71 314.127 2500.97 314.129C2498.53 314.132 2496.1 314.128 2493.66 314.124C2491.89 314.125 2490.13 314.126 2488.37 314.128C2483.47 314.132 2478.58 314.129 2473.68 314.125C2468.36 314.122 2463.03 314.125 2457.71 314.127C2448.32 314.129 2438.93 314.128 2429.54 314.125C2415.49 314.12 2401.44 314.121 2387.38 314.122C2363.44 314.125 2339.49 314.124 2315.55 314.119C2291.27 314.115 2266.99 314.113 2242.71 314.113C2241.94 314.113 2241.18 314.113 2240.39 314.113C2233.38 314.113 2226.37 314.113 2219.36 314.114C2201.78 314.114 2184.2 314.114 2166.63 314.114C2165.82 314.114 2165.02 314.114 2164.19 314.114C2124.44 314.114 2084.69 314.11 2044.95 314.106C2030.95 314.104 2016.95 314.103 2002.96 314.101C2002.09 314.101 2001.22 314.101 2000.32 314.101C1960.03 314.097 1919.75 314.096 1879.47 314.095C1876.83 314.095 1874.2 314.095 1871.56 314.095C1855.68 314.094 1839.8 314.094 1823.92 314.094C1784.44 314.093 1744.95 314.092 1705.47 314.091C1704.57 314.091 1703.67 314.091 1702.75 314.091C1644.51 314.089 1586.28 314.086 1528.05 314.082C1527.12 314.082 1526.19 314.082 1525.23 314.082C1496.92 314.08 1468.61 314.078 1440.3 314.076C1408.98 314.073 1377.65 314.071 1346.32 314.069C1345.38 314.069 1344.44 314.069 1343.47 314.068C1254.02 314.062 1164.57 314.058 1075.12 314.055C1071.33 314.055 1067.54 314.055 1063.75 314.055C1028.89 314.053 994.035 314.052 959.175 314.051C958.248 314.051 957.321 314.051 956.366 314.051C953.56 314.051 950.753 314.051 947.947 314.051C872.125 314.048 796.302 314.045 720.48 314.042C717.804 314.042 715.129 314.042 712.454 314.042C625.555 314.039 538.656 314.035 230.378 314.016C229.626 314.016 228.874 314.016 228.098 314.016C152.066 314.011 76.0328 314.005 0 314C0 305.09 0 296.18 0 287Z" fill="white"/>
<path d="M304 1C323.14 1 342.28 1 362 1C370.319 19.7586 378.551 38.5446 386.612 57.4152C392.701 71.6675 398.847 85.8941 405.026 100.108C412.453 117.197 419.878 134.288 427.24 151.406C428.033 153.249 428.828 155.091 429.624 156.933C430.71 159.447 431.791 161.963 432.871 164.48C433.192 165.22 433.512 165.96 433.843 166.723C436 171.771 436 171.771 436 174C436.66 174 437.32 174 438 174C438.392 172.759 438.784 171.517 439.188 170.238C441.135 164.411 443.552 158.819 446 153.188C446.793 151.351 447.586 149.514 448.378 147.677C449.264 145.626 450.153 143.575 451.041 141.524C453.184 136.578 455.318 131.629 457.453 126.68C465.595 107.805 473.753 88.9369 481.916 70.071C485.631 61.4847 489.339 52.8958 493.043 44.3047C494.336 41.3072 495.628 38.3097 496.921 35.3123C497.754 33.38 498.587 31.4475 499.419 29.5149C500.584 26.809 501.751 24.1037 502.918 21.3984C503.257 20.6103 503.596 19.8222 503.945 19.0102C506.554 12.9678 509.275 6.99489 512 1C531.14 1 550.28 1 570 1C570 85.48 570 169.96 570 257C553.17 257 536.34 257 519 257C519 214.76 519 172.52 519 129C515.032 129.518 515.032 129.518 513.787 131.803C513.451 132.594 513.114 133.386 512.768 134.201C512.375 135.106 511.981 136.011 511.576 136.943C511.161 137.941 510.745 138.94 510.316 139.969C509.868 141.011 509.42 142.053 508.959 143.127C507.479 146.579 506.021 150.039 504.562 153.5C503.538 155.901 502.511 158.302 501.483 160.702C499.361 165.666 497.246 170.633 495.139 175.604C492.177 182.592 489.192 189.571 486.199 196.547C485.74 197.618 485.28 198.689 484.807 199.793C483.899 201.909 482.991 204.024 482.084 206.14C480.761 209.225 479.44 212.31 478.121 215.396C472.171 229.306 466.136 243.171 460 257C444.82 257 429.64 257 414 257C405.964 239.781 405.964 239.781 403.223 233.316C402.898 232.557 402.574 231.798 402.239 231.016C401.178 228.532 400.12 226.047 399.062 223.562C398.299 221.774 397.535 219.985 396.771 218.196C395.101 214.288 393.432 210.38 391.764 206.471C388.749 199.409 385.725 192.351 382.699 185.293C382.298 184.357 382.298 184.357 381.889 183.402C380.541 180.259 379.193 177.115 377.846 173.972C375.781 169.157 373.717 164.342 371.655 159.526C370.702 157.303 369.747 155.082 368.79 152.861C366.85 148.355 364.922 143.849 363.107 139.291C362.701 138.286 362.701 138.286 362.286 137.261C361.615 135.591 360.96 133.915 360.308 132.237C359.876 131.499 359.445 130.761 359 130C357.68 129.67 356.36 129.34 355 129C355 171.24 355 213.48 355 257C338.17 257 321.34 257 304 257C304 172.52 304 88.04 304 1Z" fill="white"/>
<path d="M1452 1C1471.14 1 1490.28 1 1510 1C1512.14 6.01188 1514.29 11.0237 1516.5 16.1875C1523.57 32.6832 1530.68 49.1577 1537.81 65.6263C1542.78 77.1048 1547.73 88.5887 1552.69 100.072C1553.49 101.924 1554.29 103.777 1555.09 105.629C1555.49 106.552 1555.89 107.475 1556.3 108.425C1558.84 114.318 1561.39 120.21 1563.93 126.102C1565.67 130.105 1567.4 134.108 1569.13 138.112C1569.95 140.01 1570.77 141.909 1571.59 143.808C1575.79 153.513 1579.98 163.22 1584 173C1586.47 170.527 1587.31 168.243 1588.67 165.012C1588.94 164.383 1589.2 163.754 1589.48 163.106C1590.07 161.713 1590.66 160.32 1591.24 158.925C1592.91 154.972 1594.59 151.025 1596.27 147.078C1596.64 146.211 1597.01 145.344 1597.39 144.45C1601.82 134.057 1606.33 123.701 1610.83 113.342C1618.39 95.9562 1625.92 78.5577 1633.38 61.125C1639.02 47.9265 1644.69 34.74 1650.42 21.5764C1651.17 19.8295 1651.93 18.0823 1652.69 16.3348C1653.73 13.9396 1654.77 11.5457 1655.82 9.15234C1656.13 8.43795 1656.44 7.72355 1656.75 6.9875C1658.89 2.1147 1658.89 2.1147 1660 1C1678.81 1 1697.62 1 1717 1C1717 85.48 1717 169.96 1717 257C1700.17 257 1683.34 257 1666 257C1666 214.76 1666 172.52 1666 129C1664.68 129 1663.36 129 1662 129C1661.82 129.556 1661.65 130.111 1661.46 130.684C1659.75 135.944 1657.82 141.028 1655.61 146.098C1655.28 146.865 1654.95 147.632 1654.61 148.423C1653.52 150.971 1652.41 153.517 1651.31 156.062C1650.53 157.884 1649.74 159.705 1648.96 161.526C1647.25 165.506 1645.53 169.484 1643.82 173.463C1640.8 180.466 1637.79 187.475 1634.79 194.484C1634.53 195.099 1634.26 195.713 1633.99 196.347C1632.66 199.448 1631.33 202.549 1630.01 205.65C1627.5 211.492 1625 217.334 1622.5 223.176C1621.64 225.164 1620.79 227.153 1619.94 229.142C1615.96 238.428 1611.98 247.714 1608 257C1592.49 257 1576.98 257 1561 257C1559.61 253.717 1558.21 250.434 1556.78 247.051C1545.53 220.579 1534.21 194.147 1522.72 167.781C1518.56 158.236 1514.41 148.687 1510.34 139.105C1510 138.309 1509.66 137.513 1509.31 136.693C1507 131.233 1507 131.233 1507 129C1505.68 129 1504.36 129 1503 129C1503 171.24 1503 213.48 1503 257C1486.17 257 1469.34 257 1452 257C1452 172.52 1452 88.04 1452 1Z" fill="white"/>
<path d="M2375 1C2511.35 1 2511.35 1 2537.17 26.0078C2552.71 41.8777 2560.41 63.8354 2560.3 85.7893C2559.71 109.002 2550.21 128.723 2534 145C2533.3 145.731 2532.61 146.462 2531.89 147.215C2524.43 154.513 2513.38 161.214 2503 163C2512.89 180.799 2512.89 180.799 2523.11 198.41C2527.53 205.861 2531.84 213.371 2536.16 220.881C2539.44 226.58 2542.74 232.268 2546.07 237.934C2546.72 239.037 2547.37 240.14 2548.04 241.277C2549.28 243.391 2550.53 245.502 2551.78 247.612C2552.62 249.026 2552.62 249.026 2553.46 250.469C2553.96 251.298 2554.45 252.128 2554.95 252.982C2556 255 2556 255 2556 257C2548.42 257.228 2540.84 257.386 2533.26 257.494C2530.68 257.54 2528.1 257.601 2525.52 257.679C2521.81 257.788 2518.11 257.839 2514.4 257.879C2513.25 257.925 2512.1 257.972 2510.91 258.02C2503.1 258.025 2503.1 258.025 2500.05 255.194C2498.47 252.866 2497.22 250.531 2496 248C2495.26 246.758 2494.5 245.522 2493.73 244.295C2493.02 243.092 2492.31 241.889 2491.61 240.684C2491.22 240.03 2490.84 239.376 2490.44 238.702C2489.63 237.323 2488.81 235.944 2488 234.563C2485.88 230.954 2483.74 227.35 2481.61 223.746C2481.22 223.09 2480.84 222.434 2480.44 221.758C2477.32 216.487 2474.09 211.292 2470.81 206.118C2465.93 198.411 2461.35 190.517 2456.7 182.667C2448.88 169.449 2440.94 156.307 2432.94 143.198C2430.28 138.808 2427.64 134.402 2425 130C2424.67 171.91 2424.34 213.82 2424 257C2407.83 257 2391.66 257 2375 257C2375 172.52 2375 88.04 2375 1ZM2424 50C2424 71.78 2424 93.56 2424 116C2433.86 116.083 2443.72 116.165 2453.88 116.25C2456.97 116.286 2460.06 116.323 2463.25 116.36C2465.73 116.372 2468.2 116.382 2470.68 116.391C2471.95 116.411 2473.21 116.432 2474.52 116.453C2486.31 116.457 2494.22 113.668 2502.8 105.512C2509.11 98.3146 2511.4 90.3998 2511.27 81.0078C2510.35 70.8542 2505.5 63.7734 2497.98 57.2461C2488.36 49.6146 2478.06 49.85 2466.29 49.9023C2465.21 49.9034 2464.14 49.9044 2463.03 49.9054C2459.04 49.9106 2455.05 49.9246 2451.06 49.9375C2442.13 49.9581 2433.2 49.9787 2424 50Z" fill="white"/>
<path d="M1386.02 23.1648C1391.31 27.1273 1396.23 31.429 1401 36C1401.75 36.6832 1402.49 37.3664 1403.26 38.0703C1424.86 58.4956 1438.84 90.1957 1440.12 119.871C1441.11 159.62 1430.52 193.953 1402.74 223.191C1387.2 239.129 1369 249.873 1347.75 256.375C1346.97 256.614 1346.19 256.853 1345.39 257.099C1323.38 263.437 1299 263.076 1277 257C1276.33 256.818 1275.65 256.636 1274.96 256.449C1252.59 250.204 1234.09 237.52 1218 221C1217.23 220.271 1217.23 220.271 1216.45 219.527C1212.04 215.29 1208.48 210.85 1205.12 205.75C1204.36 204.584 1204.36 204.584 1203.57 203.395C1184.49 173.733 1177.56 138.396 1184.46 103.702C1191.95 69.2934 1211.2 39.7536 1240.58 20.1289C1284.77 -7.87357 1343.27 -7.97737 1386.02 23.1648ZM1250.97 72.6875C1234.93 91.5303 1227.48 114.316 1229 139C1231.46 161.978 1243.3 183.317 1261.23 197.805C1279.4 211.163 1300.52 217.138 1323.01 214.104C1339.54 211.477 1353.46 203.966 1366 193C1366.69 192.408 1367.37 191.817 1368.08 191.207C1383.3 177.132 1392.13 155.556 1393.2 135.125C1393.68 109.826 1385.04 87.646 1367.47 69.3672C1350.32 52.8763 1328.96 46.2416 1305.55 46.6953C1285.07 47.541 1265.02 57.9421 1250.97 72.6875Z" fill="white"/>
<path d="M1906 1C1922.83 1 1939.66 1 1957 1C1957.01 6.43066 1957.02 11.8613 1957.03 17.4565C1957.06 35.3979 1957.12 53.3391 1957.18 71.2803C1957.22 82.1582 1957.26 93.0361 1957.27 103.914C1957.28 113.398 1957.31 122.881 1957.35 132.364C1957.38 137.384 1957.39 142.403 1957.39 147.422C1957.39 152.152 1957.41 156.881 1957.44 161.61C1957.45 163.341 1957.45 165.072 1957.45 166.803C1957.41 179.527 1958.71 190.46 1968 200C1975.35 205.673 1983.14 208.492 1992.45 207.824C2001.13 206.473 2009.35 202.176 2014.65 195.029C2020.85 185.699 2020.58 175.934 2020.55 165.158C2020.55 163.363 2020.57 161.569 2020.58 159.774C2020.6 154.928 2020.61 150.081 2020.61 145.235C2020.61 140.161 2020.64 135.087 2020.66 130.012C2020.7 120.415 2020.72 110.818 2020.73 101.22C2020.75 90.289 2020.79 79.358 2020.83 68.4269C2020.91 45.9513 2020.96 23.4757 2021 1C2037.83 1 2054.66 1 2072 1C2072.07 24.6012 2072.12 48.2023 2072.16 71.8035C2072.17 82.7632 2072.19 93.7228 2072.23 104.682C2072.26 114.24 2072.28 123.798 2072.28 133.356C2072.29 138.412 2072.3 143.467 2072.32 148.523C2072.34 153.293 2072.34 158.062 2072.34 162.832C2072.34 164.572 2072.35 166.312 2072.36 168.052C2072.51 192.818 2066.34 215.152 2048.68 233.316C2047.8 234.202 2046.91 235.088 2046 236C2045.34 236.669 2044.69 237.338 2044.01 238.027C2027.43 253.714 2005.49 258.655 1983.39 258.25C1962.84 257.534 1944.58 248.15 1930 234C1929.37 233.448 1928.75 232.897 1928.11 232.328C1914.61 220.019 1907.73 200.775 1906 183C1905.92 180.366 1905.87 177.761 1905.88 175.129C1905.88 174.378 1905.88 173.628 1905.88 172.856C1905.88 170.365 1905.88 167.875 1905.89 165.385C1905.89 163.591 1905.89 161.796 1905.89 160.002C1905.89 155.147 1905.89 150.293 1905.9 145.438C1905.9 140.358 1905.91 135.279 1905.91 130.199C1905.91 120.587 1905.92 110.976 1905.93 101.364C1905.94 90.4186 1905.94 79.4731 1905.95 68.5275C1905.96 46.0183 1905.98 23.5092 1906 1Z" fill="white"/>
<path d="M250 1C263.53 1 277.06 1 291 1C291 85.48 291 169.96 291 257C275.49 257 259.98 257 244 257C244 243.8 244 230.6 244 217C215.62 217 187.24 217 158 217C157.34 218.65 156.68 220.3 156 222C155.16 223.388 154.274 224.749 153.348 226.082C152.817 226.851 152.287 227.62 151.74 228.412C151.187 229.204 150.633 229.996 150.062 230.812C149.544 231.562 149.025 232.312 148.49 233.084C147.347 234.736 146.174 236.368 144.98 237.983C143.386 240.412 142.284 242.538 141.131 245.169C138.831 249.939 136.513 254.044 132 257C123.248 259.491 113.804 258.587 104.822 258.099C101.458 257.933 98.0916 257.862 94.7246 257.781C88.1447 257.606 81.5734 257.339 75 257C76.3007 253.648 77.6362 250.837 79.7305 247.91C80.2786 247.137 80.8267 246.364 81.3914 245.567C81.9841 244.741 82.5768 243.914 83.1875 243.062C84.4596 241.268 85.7303 239.472 87 237.676C87.6587 236.745 88.3174 235.813 88.9961 234.854C92.2743 230.185 95.4818 225.469 98.6875 220.75C99.9531 218.889 101.219 217.029 102.484 215.168C103.084 214.285 103.684 213.403 104.303 212.494C111.053 202.575 117.89 192.718 124.75 182.875C131.407 173.322 137.987 163.718 144.535 154.09C148.896 147.678 153.291 141.289 157.689 134.903C159.962 131.604 162.231 128.302 164.5 125C165.417 123.667 166.333 122.333 167.25 121C167.931 120.01 167.931 120.01 168.625 119C188.333 90.3333 208.042 61.6667 227.75 33C228.204 32.339 228.659 31.6781 229.127 30.9971C230.037 29.6734 230.947 28.3499 231.857 27.0264C234.251 23.5454 236.643 20.0629 239.031 16.5781C239.528 15.8537 240.025 15.1292 240.537 14.3828C241.487 12.9979 242.436 11.6125 243.385 10.2266C244.03 9.28684 244.03 9.28684 244.688 8.32812C245.063 7.7806 245.438 7.23307 245.824 6.66895C247.176 4.75031 248.592 2.87757 250 1ZM243 92C241.935 93.4317 240.92 94.8997 239.922 96.3789C239.266 97.3472 238.611 98.3156 237.935 99.3132C237.214 100.385 236.493 101.458 235.75 102.562C234.992 103.684 234.234 104.806 233.475 105.927C231.842 108.342 230.211 110.758 228.581 113.175C224.634 119.027 220.673 124.869 216.713 130.712C215.377 132.684 214.042 134.657 212.707 136.63C208.596 142.704 204.478 148.773 200.332 154.824C199.627 155.854 198.922 156.884 198.196 157.945C196.888 159.853 195.578 161.761 194.265 163.667C193.697 164.496 193.129 165.325 192.543 166.18C192.048 166.899 191.553 167.618 191.044 168.359C189.911 169.816 189.911 169.816 190 171C207.82 171 225.64 171 244 171C244 144.93 244 118.86 244 92C243.67 92 243.34 92 243 92Z" fill="white"/>
<path d="M1143.28 23.7875C1145.9 25.8019 1148.45 27.8892 1151 29.9999C1152.23 31.0015 1152.23 31.0015 1153.49 32.0234C1164.91 41.6903 1175.75 55.3327 1182 68.9999C1182 69.6599 1182 70.3199 1182 70.9999C1174.61 71.2096 1167.22 71.3689 1159.83 71.4663C1156.4 71.513 1152.97 71.5762 1149.53 71.6789C1145.58 71.7965 1141.62 71.8393 1137.66 71.8789C1135.84 71.9485 1135.84 71.9485 1133.98 72.0196C1127.18 72.0236 1123.49 71.2259 1118.37 66.5983C1116.9 65.0709 1115.45 63.5387 1114 61.9999C1098.4 50.0503 1076.95 45.2826 1057.62 47.6249C1037.46 50.8047 1018.18 59.9988 1005 75.9999C990.887 95.6917 982.952 118.411 986.77 142.88C990.069 161.393 997.761 176.536 1011 190C1011.69 190.7 1012.37 191.4 1013.08 192.121C1028.01 206.332 1049.27 213.678 1069.74 213.25C1084.72 212.102 1105.11 208.03 1115.37 196.288C1120.46 190.657 1124.59 187.825 1132.3 187.105C1139.81 186.781 1147.3 187.039 1154.81 187.312C1157.45 187.368 1160.09 187.418 1162.73 187.463C1169.15 187.583 1175.58 187.767 1182 188C1181.23 192.555 1179.53 195.809 1177 199.625C1176.6 200.241 1176.19 200.857 1175.77 201.492C1155.76 231.497 1126.64 251.276 1091.3 258.555C1083.45 260.023 1075.79 260.349 1067.81 260.312C1065.9 260.304 1065.9 260.304 1063.94 260.295C1029.51 259.854 997.503 245.067 973.459 220.421C957.112 202.809 946.361 181.335 941 158C940.767 157.042 940.533 156.084 940.293 155.098C933.234 122.141 940.981 85.8886 959.011 57.7172C978.187 29.0201 1007.55 8.92286 1041.29 1.72651C1076.59 -5.19226 1114.29 2.23315 1143.28 23.7875Z" fill="white"/>
<path d="M1730 1C1832.06 1 1832.06 1 1845.25 7.25C1845.91 7.55229 1846.57 7.85457 1847.25 8.16602C1867.11 17.4795 1882.65 33.2047 1890.54 53.8516C1898.46 76.3586 1897.35 99.7315 1887.43 121.426C1876.9 142.22 1859.7 156.22 1838.02 164.039C1819.69 169.866 1799.88 168 1781 168C1781 197.37 1781 226.74 1781 257C1764.17 257 1747.34 257 1730 257C1730 172.52 1730 88.04 1730 1ZM1781 50C1781 71.78 1781 93.56 1781 116C1790.59 116.124 1790.59 116.124 1800.38 116.25C1802.37 116.286 1804.37 116.323 1806.43 116.36C1819.96 116.507 1828.77 115.024 1838.87 105.367C1841.77 102.151 1843.56 99.0618 1845 95C1845.41 93.8656 1845.82 92.7313 1846.25 91.5625C1848.11 82.7417 1846.93 75.1653 1843 67C1837.74 59.0973 1830.92 54.1569 1822 51C1816.94 50.1083 1812.01 49.8648 1806.88 49.9023C1806.22 49.9034 1805.56 49.9044 1804.87 49.9054C1802.44 49.9106 1800 49.9245 1797.56 49.9375C1792.1 49.9581 1786.63 49.9787 1781 50Z" fill="white"/>
<path d="M2229 1C2272.56 1 2316.12 1 2361 1C2361 17.17 2361 33.34 2361 50C2334.27 50 2307.54 50 2280 50C2280 68.81 2280 87.62 2280 107C2306.73 107 2333.46 107 2361 107C2361 123.17 2361 139.34 2361 156C2334.27 156 2307.54 156 2280 156C2280 173.16 2280 190.32 2280 208C2306.73 208 2333.46 208 2361 208C2361 224.17 2361 240.34 2361 257C2317.44 257 2273.88 257 2229 257C2229 172.52 2229 88.04 2229 1Z" fill="white"/>
<path d="M0 1C44.22 1 88.44 1 134 1C134 17.17 134 33.34 134 50C106.28 50 78.56 50 50 50C50 68.81 50 87.62 50 107C77.72 107 105.44 107 134 107C134 123.17 134 139.34 134 156C106.28 156 78.56 156 50 156C50 189.33 50 222.66 50 257C33.5 257 17 257 0 257C0 172.52 0 88.04 0 1Z" fill="white"/>
<path d="M704 1.00003C721.49 1.00003 738.98 1.00003 757 1.00003C760.3 7.27003 763.6 13.54 767 20C768.522 22.8869 768.522 22.8869 770.074 25.8321C776.056 37.2157 781.864 48.678 787.591 60.1912C792.255 69.5657 797.021 78.8778 801.949 88.1172C804.039 92.0427 806.025 96.0153 808 100C814.347 88.541 820.562 77.0445 826.367 65.3001C829.373 59.225 832.491 53.2198 835.67 47.2337C838.677 41.5536 841.629 35.8468 844.562 30.1289C845.169 28.9478 845.169 28.9478 845.787 27.7428C847.838 23.7446 849.886 19.7449 851.932 15.7439C852.694 14.2564 853.456 12.7688 854.219 11.2813C854.57 10.5915 854.922 9.90167 855.284 9.19096C856.742 6.3498 858.226 3.66067 860 1.00003C862.291 0.639263 862.291 0.639263 865.184 0.659451C866.806 0.659791 866.806 0.659791 868.46 0.660137C869.631 0.675621 870.801 0.691105 872.008 0.707058C873.801 0.713425 873.801 0.713425 875.631 0.719921C879.463 0.736758 883.294 0.77442 887.125 0.812527C889.717 0.827567 892.31 0.841257 894.902 0.853543C901.268 0.886678 907.634 0.936927 914 1.00003C907.734 14.3986 901.242 27.6734 894.616 40.8975C893.065 43.9953 891.518 47.0952 889.971 50.1953C887.457 55.2272 884.927 60.2507 882.384 65.2679C881.519 66.9755 880.657 68.6845 879.799 70.3955C875.801 78.3511 871.61 86.1069 866.863 93.6451C832.932 147.65 830.514 194.05 834 257C817.5 257 801 257 784 257C784.275 247.262 784.275 247.262 784.555 237.328C787.434 175.438 787.434 175.438 763.801 119.989C758.653 112.839 754.931 104.859 751 97C750.367 95.7406 749.734 94.4814 749.101 93.2223C743.301 81.6877 737.546 70.131 731.792 58.5736C729.415 53.7993 727.036 49.0256 724.655 44.2532C723.888 42.7158 723.122 41.1782 722.355 39.6404C717.618 30.1392 712.844 20.665 707.727 11.3611C705.769 7.74955 704.824 5.12179 704 1.00003Z" fill="white"/>
<path d="M2084 1C2128.22 1 2172.44 1 2218 1C2218 17.83 2218 34.66 2218 52C2204.14 52 2190.28 52 2176 52C2176 119.65 2176 187.3 2176 257C2159.17 257 2142.34 257 2125 257C2125 189.35 2125 121.7 2125 52C2111.47 52 2097.94 52 2084 52C2084 35.17 2084 18.34 2084 1Z" fill="white"/>
<path d="M643 1C659.5 1 676 1 693 1C693 69.31 693 137.62 693 208C714.78 208 736.56 208 759 208C759 224.17 759 240.34 759 257C720.72 257 682.44 257 643 257C643 172.52 643 88.04 643 1Z" fill="white"/>
<path d="M1629 344C1672.23 344 1715.46 344 1760 344C1760.06 354.931 1760.12 365.863 1760.19 377.125C1760.23 382.259 1760.23 382.259 1760.27 387.497C1760.28 391.75 1760.28 391.75 1760.29 393.755C1760.29 395.125 1760.3 396.494 1760.32 397.863C1760.51 416.291 1757.22 432.184 1744.31 445.837C1733.71 456.548 1719.62 463.847 1704.35 464.241C1702.68 464.246 1701.02 464.241 1699.35 464.227C1698.43 464.227 1697.51 464.228 1696.57 464.228C1693.56 464.227 1690.56 464.211 1687.56 464.195C1685.46 464.192 1683.37 464.189 1681.27 464.187C1675.79 464.179 1670.3 464.16 1664.81 464.137C1659.2 464.117 1653.59 464.108 1647.97 464.098C1636.98 464.076 1625.99 464.042 1615 464C1614.98 459.888 1614.96 455.777 1614.95 451.665C1614.94 450.265 1614.93 448.865 1614.92 447.466C1614.91 445.458 1614.91 443.449 1614.9 441.441C1614.89 439.627 1614.89 439.627 1614.89 437.776C1615 435 1615 435 1616 434C1618.9 433.901 1621.78 433.867 1624.68 433.874C1625.59 433.872 1626.5 433.87 1627.44 433.868C1629.42 433.864 1631.41 433.862 1633.39 433.862C1637.62 433.858 1641.85 433.837 1646.08 433.817C1653.96 433.779 1661.83 433.747 1669.71 433.75C1675.19 433.75 1680.66 433.727 1686.13 433.688C1688.22 433.677 1690.3 433.676 1692.38 433.683C1706.28 434.009 1706.28 434.009 1719.28 429.754C1721.73 427.469 1721.73 427.469 1724 421C1698.59 421 1673.18 421 1647 421C1647 411.43 1647 401.86 1647 392C1676.7 392 1706.4 392 1737 392C1737 386.06 1737 380.12 1737 374C1706.97 374 1676.94 374 1646 374C1645.67 376.97 1645.34 379.94 1645 383C1640.17 396.38 1631.74 404.055 1619.69 410.875C1616.06 411.98 1613.52 412.116 1609.77 412.07C1608.69 412.06 1607.61 412.05 1606.5 412.04C1605.67 412.026 1604.85 412.013 1604 412C1603.73 407.856 1603.53 403.717 1603.4 399.567C1603.34 398.159 1603.27 396.751 1603.17 395.345C1602.87 390.746 1602.81 386.502 1604 382C1607.25 378.731 1610.89 377.009 1615 375C1624.54 365.796 1626.97 357.175 1629 344Z" fill="white"/>
<path d="M581 1C597.17 1 613.34 1 630 1C630 85.48 630 169.96 630 257C613.83 257 597.66 257 581 257C581 172.52 581 88.04 581 1Z" fill="white"/>
<path d="M835 344C887.14 344 939.28 344 993 344C993 383.6 993 423.2 993 464C940.86 464 888.72 464 835 464C835 454.1 835 444.2 835 434C879.22 434 923.44 434 969 434C969 414.2 969 394.4 969 374C924.78 374 880.56 374 835 374C835 364.1 835 354.2 835 344Z" fill="white"/>
<path d="M1167 343C1174.59 343 1182.18 343 1190 343C1190 353.23 1190 363.46 1190 374C1217.72 374 1245.44 374 1274 374C1275.32 376.64 1276.64 379.28 1278 382C1283.07 388.018 1289.08 391.528 1296.89 392.277C1305.37 392.544 1311.42 391.417 1317.87 385.812C1318.43 385.283 1318.98 384.753 1319.55 384.207C1321 383 1321 383 1323 383C1323 389.93 1323 396.86 1323 404C1279.11 404 1235.22 404 1190 404C1189.49 422.983 1189.49 422.983 1194 431C1197.3 433.2 1198.31 433.256 1202.14 433.278C1203.74 433.295 1203.74 433.295 1205.37 433.312C1207.12 433.316 1207.12 433.316 1208.91 433.319C1210.75 433.334 1210.75 433.334 1212.63 433.349C1216 433.375 1219.38 433.392 1222.75 433.405C1226.27 433.42 1229.79 433.447 1233.32 433.473C1239.99 433.52 1246.66 433.556 1253.33 433.589C1260.93 433.628 1268.53 433.677 1276.12 433.727C1291.75 433.831 1307.37 433.919 1323 434C1323 443.9 1323 453.8 1323 464C1306.76 464.09 1290.52 464.164 1274.28 464.207C1266.74 464.228 1259.2 464.256 1251.66 464.302C1245.09 464.342 1238.51 464.367 1231.93 464.376C1228.45 464.382 1224.98 464.394 1221.5 464.423C1217.6 464.455 1213.71 464.456 1209.82 464.454C1208.68 464.468 1207.54 464.483 1206.36 464.498C1194.32 464.436 1184.97 460.723 1176.32 452.375C1168.99 444.477 1166.84 435.699 1166.89 425.192C1166.89 424.304 1166.89 423.416 1166.89 422.501C1166.89 419.568 1166.89 416.636 1166.9 413.703C1166.9 411.669 1166.91 409.634 1166.91 407.6C1166.91 402.247 1166.92 396.894 1166.93 391.541C1166.94 386.078 1166.95 380.615 1166.95 375.152C1166.96 364.435 1166.98 353.717 1167 343Z" fill="white"/>
<path d="M1 344C51.82 344 102.64 344 155 344C155 422.76 155 422.76 138 442C137.282 442.824 136.564 443.647 135.824 444.496C127.531 453.413 116.939 460.128 105 463C104.303 463.172 103.607 463.345 102.889 463.522C99.1882 464.134 95.5517 464.131 91.8132 464.114C91.003 464.114 90.1927 464.114 89.3578 464.114C86.6904 464.113 84.0229 464.106 81.3555 464.098C79.5017 464.096 77.648 464.094 75.7943 464.093C70.9232 464.09 66.0521 464.08 61.181 464.069C56.2073 464.058 51.2335 464.054 46.2598 464.049C36.5065 464.038 26.7533 464.021 17 464C17 454.1 17 444.2 17 434C20.3591 433.986 20.3591 433.986 23.7861 433.972C31.2262 433.938 38.6659 433.882 46.1058 433.816C50.6119 433.777 55.1178 433.745 59.624 433.729C63.9815 433.714 68.3384 433.679 72.6956 433.632C74.3492 433.617 76.0028 433.609 77.6563 433.608C92.4745 433.593 105.714 431.209 117.223 421.035C130.329 407.488 129.17 391.266 130 373C87.43 373 44.86 373 1 373C1 363.43 1 353.86 1 344Z" fill="white"/>
<path d="M165 374C205.92 374 246.84 374 289 374C289 423.633 289 423.633 280.27 432.43C270.717 439.039 261.65 438.482 250.438 438.25C248.744 438.23 247.051 438.212 245.357 438.195C241.238 438.152 237.119 438.083 233 438C232.952 438.601 232.903 439.202 232.854 439.822C232.181 447.051 230.5 451.562 225.242 456.727C217.248 463.297 208.231 464.46 198.18 464.293C197.195 464.289 196.21 464.284 195.196 464.28C192.089 464.263 188.982 464.226 185.875 464.188C183.753 464.172 181.63 464.159 179.508 464.146C174.338 464.116 169.17 464.057 164 464C164 455.75 164 447.5 164 439C167.118 438.963 170.236 438.925 173.449 438.887C176.474 438.84 179.499 438.789 182.524 438.738C184.624 438.704 186.724 438.676 188.824 438.654C191.845 438.62 194.866 438.568 197.887 438.512C198.823 438.505 199.76 438.499 200.725 438.492C205.559 438.384 209.175 438.298 213 435C214.693 432.169 215.274 429.951 215.414 426.672C215.453 425.873 215.491 425.073 215.531 424.25C215.562 423.425 215.593 422.6 215.625 421.75C215.664 420.91 215.702 420.069 215.742 419.203C215.836 417.136 215.919 415.068 216 413C217.763 412.97 217.763 412.97 219.561 412.94C223.943 412.864 228.324 412.775 232.705 412.683C234.598 412.644 236.49 412.61 238.382 412.578C241.11 412.532 243.838 412.474 246.566 412.414C247.405 412.403 248.244 412.391 249.108 412.379C254.074 412.256 258.338 411.777 263 410C265.185 406.65 266.028 403.89 267 400C233.34 400 199.68 400 165 400C165 391.42 165 382.84 165 374Z" fill="white"/>
<path d="M1344 377C1373.04 377 1402.08 377 1432 377C1432 395.81 1432 414.62 1432 434C1440.58 434 1449.16 434 1458 434C1458 443.9 1458 453.8 1458 464C1416.09 464 1374.18 464 1331 464C1331 454.1 1331 444.2 1331 434C1358.39 434 1385.78 434 1414 434C1414 424.1 1414 414.2 1414 404C1390.9 404 1367.8 404 1344 404C1344 395.09 1344 386.18 1344 377Z" fill="white"/>
<path d="M1134 343C1141.26 343 1148.52 343 1156 343C1156.09 351.868 1156.16 360.735 1156.21 369.603C1156.23 373.723 1156.26 377.842 1156.3 381.961C1156.35 385.949 1156.37 389.936 1156.38 393.924C1156.39 395.433 1156.4 396.942 1156.42 398.45C1156.68 416.598 1152.7 432.156 1139.88 445.75C1130.91 454.251 1120.95 459.889 1109 463C1107.98 463.265 1107.98 463.265 1106.95 463.536C1102.68 464.207 1098.47 464.13 1094.16 464.114C1093.18 464.114 1092.19 464.114 1091.17 464.114C1087.92 464.113 1084.67 464.105 1081.42 464.098C1079.16 464.096 1076.9 464.094 1074.65 464.093C1068.71 464.09 1062.77 464.08 1056.84 464.069C1050.78 464.058 1044.72 464.054 1038.66 464.049C1026.77 464.038 1014.89 464.021 1003 464C1003 454.1 1003 444.2 1003 434C1007.5 433.986 1007.5 433.986 1012.1 433.972C1022.04 433.938 1031.99 433.882 1041.94 433.816C1047.96 433.777 1053.99 433.744 1060.02 433.729C1065.84 433.714 1071.66 433.679 1077.49 433.632C1079.7 433.617 1081.92 433.609 1084.13 433.608C1100.14 433.596 1112.69 432.963 1124.72 421.34C1133.58 411.805 1133.15 399.946 1133.32 387.629C1133.35 385.713 1133.35 385.713 1133.38 383.758C1133.43 380.383 1133.48 377.008 1133.53 373.633C1133.58 370.18 1133.64 366.728 1133.69 363.275C1133.8 356.517 1133.9 349.759 1134 343Z" fill="white"/>
<path d="M595 343C602.26 343 609.52 343 617 343C617.068 351.789 617.123 360.578 617.155 369.368C617.171 373.45 617.192 377.532 617.226 381.615C617.259 385.563 617.277 389.512 617.285 393.461C617.29 394.958 617.301 396.456 617.317 397.953C617.503 415.694 613.867 430.698 601.262 443.762C600.515 444.5 599.769 445.239 599 446C598.408 446.625 597.817 447.25 597.207 447.895C593.061 451.949 588.367 454.618 583.25 457.25C582.619 457.58 581.988 457.909 581.338 458.249C569.596 464.005 557.981 464.419 545.203 464.293C543.516 464.287 541.83 464.283 540.143 464.28C535.743 464.269 531.344 464.239 526.945 464.206C522.44 464.175 517.935 464.162 513.43 464.146C504.62 464.114 495.81 464.062 487 464C487 454.1 487 444.2 487 434C489.376 433.991 491.753 433.981 494.201 433.972C502.076 433.938 509.951 433.882 517.826 433.816C522.598 433.777 527.369 433.744 532.141 433.729C536.752 433.714 541.361 433.679 545.972 433.632C547.725 433.617 549.479 433.609 551.233 433.608C564.177 433.759 564.177 433.759 576 429C576.715 428.565 577.43 428.13 578.166 427.682C585.21 423.207 589.463 416.051 592.375 408.375C593.907 400.1 594.19 391.921 594.316 383.527C594.348 381.782 594.348 381.782 594.379 380.001C594.444 376.313 594.504 372.625 594.562 368.938C594.606 366.425 594.649 363.913 594.693 361.4C594.8 355.267 594.901 349.134 595 343Z" fill="white"/>
<path d="M629 391C677.51 391 726.02 391 776 391C776 401.23 776 411.46 776 422C727.49 422 678.98 422 629 422C629 411.77 629 401.54 629 391Z" fill="white"/>
<path d="M1444 391C1494.16 391 1544.32 391 1596 391C1596 399.91 1596 408.82 1596 418C1545.84 418 1495.68 418 1444 418C1444 409.09 1444 400.18 1444 391Z" fill="white"/>
<path d="M302 348C317.711 348.687 333.359 350.095 349.02 351.492C351.99 351.756 354.961 352.019 357.932 352.282C364.93 352.901 371.928 353.523 378.926 354.147C386.139 354.791 393.353 355.429 400.566 356.065C406.786 356.613 413.005 357.164 419.224 357.718C422.929 358.048 426.633 358.377 430.337 358.702C434.447 359.064 438.557 359.432 442.666 359.801C443.893 359.908 445.12 360.015 446.384 360.125C447.497 360.226 448.609 360.327 449.756 360.431C450.726 360.517 451.696 360.603 452.696 360.692C455 361 455 361 457 362C457 370.58 457 379.16 457 388C427.957 385.674 398.946 383.017 369.936 380.316C369.272 380.254 368.608 380.193 367.924 380.129C367.259 380.067 366.594 380.005 365.909 379.941C360.419 379.431 354.929 378.925 349.439 378.42C343.443 377.868 337.447 377.311 331.451 376.752C328.92 376.517 326.389 376.283 323.859 376.051C320.363 375.73 316.869 375.404 313.374 375.076C312.331 374.981 311.288 374.887 310.213 374.789C309.271 374.7 308.329 374.61 307.358 374.518C306.535 374.441 305.713 374.365 304.865 374.286C303 374 303 374 302 373C301.913 371.146 301.893 369.289 301.902 367.434C301.906 366.309 301.909 365.184 301.912 364.025C301.921 362.841 301.929 361.657 301.938 360.438C301.942 359.25 301.947 358.062 301.951 356.838C301.963 353.892 301.98 350.946 302 348Z" fill="white"/>
<path d="M302 426C313.25 426 313.25 426 318.305 426.449C319.45 426.548 320.595 426.648 321.775 426.75C322.997 426.861 324.218 426.972 325.477 427.086C326.79 427.201 328.104 427.317 329.457 427.436C333.032 427.75 336.606 428.069 340.18 428.39C343.936 428.726 347.693 429.058 351.45 429.39C357.755 429.948 364.061 430.509 370.365 431.072C379.235 431.864 388.105 432.651 396.975 433.436C403.146 433.982 409.317 434.53 415.487 435.079C416.976 435.211 418.465 435.343 419.954 435.475C424.854 435.91 429.753 436.347 434.653 436.785C435.876 436.894 437.1 437.002 438.361 437.114C439.503 437.216 440.645 437.319 441.822 437.424C442.804 437.512 443.785 437.599 444.797 437.69C448.869 438.084 452.934 438.548 457 439C457 447.58 457 456.16 457 465C444.625 465 444.625 465 439.434 464.513C438.256 464.405 437.079 464.297 435.866 464.186C434.613 464.066 433.361 463.946 432.071 463.823C430.708 463.696 429.345 463.569 427.982 463.443C424.315 463.103 420.648 462.756 416.981 462.408C413.131 462.043 409.28 461.684 405.429 461.324C398.972 460.72 392.515 460.112 386.058 459.501C378.599 458.795 371.14 458.095 363.681 457.398C356.487 456.726 349.293 456.05 342.099 455.373C339.045 455.086 335.99 454.799 332.935 454.513C329.341 454.177 325.747 453.838 322.154 453.496C320.21 453.312 318.265 453.131 316.321 452.949C315.16 452.839 314 452.728 312.804 452.614C311.798 452.519 310.792 452.424 309.755 452.326C307.151 452.018 304.572 451.514 302 451C302 442.75 302 434.5 302 426Z" fill="white"/>
<path d="M302 387C315.5 387 315.5 387 320.559 387.449C322.285 387.598 322.285 387.598 324.046 387.75C325.264 387.861 326.481 387.972 327.736 388.086C329.066 388.203 330.396 388.319 331.726 388.436C335.301 388.749 338.875 389.069 342.449 389.39C346.206 389.727 349.964 390.058 353.721 390.39C360.023 390.947 366.325 391.508 372.626 392.072C379.898 392.723 387.17 393.368 394.443 394.011C402.213 394.698 409.983 395.388 417.753 396.079C419.982 396.277 422.211 396.474 424.44 396.672C428.597 397.041 432.754 397.413 436.911 397.785C438.753 397.948 438.753 397.948 440.632 398.114C442.337 398.268 442.337 398.268 444.076 398.424C445.547 398.556 445.547 398.556 447.048 398.69C450.376 399.04 453.688 399.527 457 400C457 408.58 457 417.16 457 426C451.708 426 446.841 425.997 441.643 425.513C440.461 425.405 439.28 425.297 438.062 425.186C436.795 425.066 435.528 424.946 434.222 424.823C432.851 424.696 431.48 424.569 430.109 424.443C426.411 424.102 422.713 423.755 419.015 423.408C415.134 423.044 411.253 422.684 407.372 422.324C400.86 421.719 394.348 421.111 387.836 420.501C380.316 419.796 372.796 419.096 365.275 418.398C358.025 417.725 350.774 417.05 343.524 416.373C340.445 416.086 337.366 415.799 334.287 415.513C330.661 415.176 327.036 414.837 323.41 414.496C321.451 414.313 319.491 414.131 317.531 413.949C316.358 413.839 315.185 413.728 313.976 413.614C312.961 413.519 311.946 413.424 310.9 413.326C307.919 412.991 304.958 412.493 302 412C302 403.75 302 395.5 302 387Z" fill="white"/>
<path d="M1003 344C1032.04 344 1061.08 344 1091 344C1091 353.9 1091 363.8 1091 374C1061.96 374 1032.92 374 1003 374C1003 364.1 1003 354.2 1003 344Z" fill="white"/>
<path d="M466 343C473.26 343 480.52 343 488 343C488 369.07 488 395.14 488 422C480.74 422 473.48 422 466 422C466 395.93 466 369.86 466 343Z" fill="white"/>
<path d="M1309.52 344.91C1314.99 348.16 1318.89 352.366 1321.38 358.25C1322.64 365.832 1321.84 371.952 1317.39 378.312C1313.82 382.636 1309.65 385.698 1304.05 386.336C1297.25 386.416 1291.43 386.457 1286 382C1280.17 375.647 1278.63 370.654 1278.72 362.078C1279.26 356.169 1281.56 352.01 1286 348.125C1292.99 343.173 1301.23 341.916 1309.52 344.91ZM1292 357C1289.67 360.419 1289 362.41 1289 366.562C1290.22 370.763 1291.49 372.405 1295 375C1299.07 376.185 1301.24 376.264 1305.25 374.875C1308.32 372.784 1309.57 371.412 1311 368C1311.59 364.017 1311.17 362.324 1309.25 358.75C1306.26 355.091 1304.72 354.183 1300.06 353.687C1296.48 354.053 1294.8 354.732 1292 357Z" fill="white"/>
</g>
<defs>
<clipPath id="clip0_1_57">
<rect width="2560" height="465" fill="white"/>
</clipPath>
</defs>
</svg>
