<svg width="2008" height="754" viewBox="0 0 2008 754" fill="none" xmlns="http://www.w3.org/2000/svg">
<g clip-path="url(#clip0_1_328)">
<path fill-rule="evenodd" clip-rule="evenodd" d="M84.9652 219.285L191.244 157.748H714.247L808.782 22.3705H1189.72L1285.37 157.748H1816.21L1923.03 219.851V364.154L1810.04 429.608H197.952L84.9652 364.154V219.285ZM1816.76 452.007L1951 374.242V209.771L1822.36 135.378H1296.54L1202.01 0H797.597L702.503 135.378H185.096L57 209.211V374.242L191.811 452.007H1816.76Z" fill="white"/>
<path fill-rule="evenodd" clip-rule="evenodd" d="M929.115 124.888C929.115 131.977 934.89 137.594 941.821 137.523H993.712V121.717H944.977V117.29H983.381V101.563H929.194L929.115 124.888Z" fill="white"/>
<path fill-rule="evenodd" clip-rule="evenodd" d="M929.194 72.7937C929.194 66.2577 934.819 60.195 941.821 60.2237H993.712V75.9504H944.977V80.3771H983.381V96.3192H929.115L929.194 72.7937Z" fill="white"/>
<path fill-rule="evenodd" clip-rule="evenodd" d="M1275.85 275.225H1440.31V340.672L1381.58 380.391H1200.06L1260.19 340.105H1366.46V315.496H1202.01V251.434L1262.72 210.331H1443.95L1384.08 250.595H1275.85V275.225Z" fill="white"/>
<path fill-rule="evenodd" clip-rule="evenodd" d="M1463.25 210.331H1537.08V380.391H1463.25V210.331Z" fill="white"/>
<path fill-rule="evenodd" clip-rule="evenodd" d="M1639.44 275.225H1803.9V340.672L1745.15 380.391H1563.65L1623.78 340.105H1730.06V315.496H1565.61V251.434L1626.29 210.331H1807.54L1747.67 250.595H1639.44V275.225Z" fill="white"/>
<path fill-rule="evenodd" clip-rule="evenodd" d="M1042.04 340.105V315.496H1112.79L1172.92 275.225H1042.04V250.595H1148.59L1208.45 210.331H1032.53L968.208 249.777V380.391H1147.2L1207.61 340.105H1042.04Z" fill="white"/>
<path fill-rule="evenodd" clip-rule="evenodd" d="M525.191 340.105V315.496H595.951L656.078 275.225H525.191V250.595H631.743L691.598 210.331H515.671L451.361 249.777V380.391H630.351L690.765 340.105H525.191Z" fill="white"/>
<path fill-rule="evenodd" clip-rule="evenodd" d="M873.673 323.891L781.936 266.824V380.391H708.091V210.331H783.048L873.673 260.116V210.331H947.51V380.391H873.673V323.891Z" fill="white"/>
<path fill-rule="evenodd" clip-rule="evenodd" d="M266.76 250.595V340.105H358.49V315.496H283.541L343.396 275.225H432.335V342.358L375.831 380.391H192.93V251.736L254.177 210.331H454.431L394.857 250.595H266.76Z" fill="white"/>
<path fill-rule="evenodd" clip-rule="evenodd" d="M939.97 39.0227C922.357 39.0227 908.073 53.3071 908.073 70.9136V126.739C908.073 144.353 922.357 158.63 939.97 158.63H993.726V142.911H941.304C932.057 142.911 923.857 134.144 923.857 124.903V72.7359C923.857 63.4879 932.057 54.9431 941.304 54.9431H993.726V39.001H939.97V39.0227Z" fill="white"/>
<path fill-rule="evenodd" clip-rule="evenodd" d="M1041.74 122.148V75.9504H1093V60.2237H1038.87C1031.86 60.195 1026.24 66.2577 1026.24 72.7937L1026.18 124.888C1026.18 131.977 1031.94 137.595 1038.87 137.523H1071.89L1071.8 101.284H1046.96V116.867H1056.14V122.141H1041.74V122.148Z" fill="white"/>
<path fill-rule="evenodd" clip-rule="evenodd" d="M892.871 38.8721H841.374C819.679 38.8721 802.081 56.4643 802.081 78.1603C802.081 99.8635 819.679 117.032 841.374 116.846H857.064V122.148H802.425V137.53H855.285C865.221 137.53 873.285 129.466 873.285 119.543C873.285 109.607 865.221 101.686 855.285 101.686L841.589 101.628C828.697 101.628 818.244 91.1751 818.244 78.2895C818.244 65.3967 828.69 54.9433 841.589 54.9433H892.907L892.871 38.8721Z" fill="white"/>
<path fill-rule="evenodd" clip-rule="evenodd" d="M892.871 75.5273H839.344V80.8007L855.4 80.8294C877.109 80.8294 894.693 97.9982 894.693 119.694C894.693 141.397 877.109 158.609 855.4 158.609L802.425 158.502V142.868H855.285C868.177 142.868 878.63 132.422 878.63 119.529C878.63 106.644 868.177 96.3266 855.285 96.3266L841.589 96.2762C831.653 96.2762 823.589 88.2119 823.589 78.2751C823.589 68.3383 831.653 60.2812 841.589 60.2812H892.907L892.871 75.5273Z" fill="white"/>
<path fill-rule="evenodd" clip-rule="evenodd" d="M1152.89 57.533C1152.25 56.0336 1152.03 55.6748 1150.3 55.6748C1148.58 55.6748 1148.16 56.5717 1147.5 58.0712L1114.86 158.63L1132.03 158.652L1150.5 102.905L1156.57 121.731H1144.39V137.594H1179.07L1152.89 57.533Z" fill="white"/>
<path fill-rule="evenodd" clip-rule="evenodd" d="M1037.02 158.645C1019.4 158.645 1005.11 144.361 1005.11 126.754V70.9285C1005.11 53.3148 1019.4 39.0373 1037.02 39.0373H1093V54.9794H1038.36C1029.1 54.9794 1020.9 63.5242 1020.9 72.7722V124.932C1020.9 134.18 1029.1 142.94 1038.36 142.94H1077.07V96.0468H1046.97V80.3918H1093.07V154.972L1125.9 53.3578C1129.43 43.2918 1139.02 36.0742 1150.3 36.0742C1161.81 36.0742 1171.58 43.6074 1174.9 54.025L1209 158.652H1144.39V142.933H1186.36L1157.9 55.668C1156.24 50.8682 1153.27 50.3015 1150.3 50.3015C1147.2 50.3015 1144.34 51.5713 1142.73 55.955L1109.32 158.652H1037.02V158.645Z" fill="white"/>
</g>
<path d="M666.5 625.5L663.5 610.75L665.75 608.5H678.75C679.917 608.5 681.25 608.5 682.75 608.5C684.417 608.5 686.333 608.583 688.5 608.75L711.25 607C713.583 607 715.75 606.917 717.75 606.75C719.75 606.583 721.583 606.083 723.25 605.25C723.583 604.75 724.083 604.333 724.75 604C725.417 603.5 726.167 602.167 727 600L728 591.25C729.167 591.583 729.167 589.833 728 586C727.333 584.167 726.917 582.75 726.75 581.75C726.75 580.583 727.333 580 728.5 580C728.833 578.5 729.333 576.5 730 574C730.667 571.333 731.333 568.5 732 565.5C732.833 562.333 733.583 559.167 734.25 556C734.917 552.667 735.5 549.583 736 546.75L751.75 540.5C753.583 540.333 755.583 540.083 757.75 539.75C759.917 539.417 762.167 539.083 764.5 538.75C766.667 538.417 768.5 538.167 770 538C771.667 537.667 773.167 537.333 774.5 537L779.75 541.75V554.5C777.417 556.667 775.417 559 773.75 561.5C772.083 563.833 771.083 566.333 770.75 569L770 574C769.667 576.833 769.167 579.833 768.5 583C768 586.167 767.333 588.333 766.5 589.5L765.75 591.5L767 595.75C767.167 596.583 767.417 596.833 767.75 596.5C767.917 596.333 768.167 596.333 768.5 596.5C768 597.667 767.417 599 766.75 600.5C766.083 602 765.333 603.75 764.5 605.75C763.5 607.417 763 608.75 763 609.75C763 610.583 763.583 610.833 764.75 610.5C764.75 610.833 764.583 613.333 764.25 618C764.083 622.667 763.583 629.75 762.75 639.25C762.417 643.917 762.083 647.417 761.75 649.75C761.583 651.917 761.417 653.5 761.25 654.5C761.25 655.333 761.167 655.833 761 656C761 656.167 761 656.5 761 657C759.833 659.5 758.917 661.833 758.25 664C757.75 666.167 757.5 667.667 757.5 668.5C757.333 669 757.417 669.583 757.75 670.25C758.25 670.917 758.667 671.583 759 672.25C759.667 673.25 760.25 674 760.75 674.5L761.75 682.75L755.5 689.25L723.25 694.75H723L716.5 689C716.667 688.5 716.833 687.75 717 686.75C717.167 685.75 717.333 684.583 717.5 683.25C717.833 680.917 718 679.333 718 678.5C718.167 677.667 718.167 676.333 718 674.5C717.833 673.5 718.083 670.833 718.75 666.5C719.417 662 720 656.25 720.5 649.25C721.5 635.75 721.333 629 720 629C719.167 629 719 627.417 719.5 624.25C718.5 624.25 717.333 624.333 716 624.5C714.667 624.5 713.833 624.583 713.5 624.75C710.167 626.25 707 627.333 704 628C701.167 628.5 698.917 628.75 697.25 628.75C696.083 628.75 694 628.333 691 627.5C688 626.5 683.833 626.083 678.5 626.25L669 626.75L666.5 625.5ZM645.25 689.75L635 690H624.75L622.5 690.25L610.25 685.5C610.417 683.833 610.583 682 610.75 680C610.917 678 611.083 675.667 611.25 673C611.583 668 611.75 664.083 611.75 661.25C611.917 658.25 612 656.25 612 655.25V647.5C612 644.5 611.417 643 610.25 643L612 629C614 623.667 615.25 617 615.75 609C616.083 604.5 616.583 599.667 617.25 594.5C618.083 589.167 619.083 585 620.25 582L621.25 569.25C622.417 569.417 622.417 567.75 621.25 564.25C620.25 560.417 620.833 558.5 623 558.5C623.333 556.5 623.583 554.75 623.75 553.25C624.083 551.583 624.25 550.083 624.25 548.75C624.083 546.75 624.333 543.417 625 538.75L628.25 537.25C630.417 538.083 633.5 538.75 637.5 539.25C641.667 539.75 645.5 540.25 649 540.75C651.167 541.083 653.083 541.333 654.75 541.5C656.417 541.5 657.833 541.583 659 541.75L662.5 546.5L661.75 555.5C660.75 563.833 660.75 568 661.75 568C659.583 571.833 658 575.583 657 579.25C656.167 582.917 655.333 586.25 654.5 589.25C653.833 591.75 653.5 596.583 653.5 603.75C653.5 605.583 653.75 606.917 654.25 607.75C654.75 608.417 655.417 608.917 656.25 609.25C657.25 609.583 658.167 609.667 659 609.5C658 610.5 657.083 611.917 656.25 613.75C655.417 615.417 654.583 617.5 653.75 620C652.917 622.333 652.167 624.833 651.5 627.5C651 630 650.583 632.5 650.25 635C649.917 637.333 649.917 639.417 650.25 641.25C650.417 642.917 650.75 645.083 651.25 647.75C651.75 650.417 652.25 653.333 652.75 656.5C653.25 659.667 653.667 663 654 666.5C654.333 670 654.5 673.333 654.5 676.5C652.5 678 652 680.5 653 684L653.25 684.5L645.25 689.75ZM946.682 690.5L937.932 692C935.932 692.333 933.848 692.333 931.682 692C929.515 691.667 927.265 691.5 924.932 691.5C924.432 691.5 923.682 691.5 922.682 691.5C921.682 691.5 920.515 691.5 919.182 691.5C918.015 691.5 916.848 691.583 915.682 691.75C914.515 691.75 913.515 691.75 912.682 691.75L907.182 688C907.682 684.667 907.515 682.25 906.682 680.75C906.015 679.25 905.515 677.833 905.182 676.5C904.848 675.5 904.182 673.917 903.182 671.75C902.182 669.583 901.265 667.083 900.432 664.25C900.432 663.75 899.598 662.25 897.932 659.75C896.265 657.25 894.932 655 893.932 653L890.932 654.25C890.098 654.25 889.182 654.5 888.182 655C887.182 655.5 884.682 655.75 880.682 655.75C880.182 654.75 879.348 654.083 878.182 653.75C877.015 653.25 875.682 653.167 874.182 653.5C872.848 653.667 871.432 654.167 869.932 655C868.598 655.833 867.432 656.833 866.432 658L856.182 659.5C855.515 658 854.765 656.833 853.932 656C853.265 655 852.515 654.083 851.682 653.25C851.015 652.417 850.432 651.5 849.932 650.5C849.432 649.5 849.182 648.167 849.182 646.5C852.515 645.667 854.432 644.583 854.932 643.25C855.598 641.917 856.098 641.333 856.432 641.5C857.432 642 858.348 642.25 859.182 642.25C858.015 642.25 857.682 642.083 858.182 641.75C858.682 641.417 860.932 640.583 864.932 639.25L883.182 637L886.932 639.75C889.598 640.417 891.598 640.583 892.932 640.25C894.265 639.917 895.182 639.333 895.682 638.5C896.182 637.5 896.432 636.417 896.432 635.25C896.598 634.083 896.765 633.083 896.932 632.25C897.265 630.417 896.848 628.917 895.682 627.75C894.682 626.417 893.265 625.25 891.432 624.25C891.098 622.417 890.432 620.333 889.432 618C888.598 615.5 887.515 612.583 886.182 609.25C885.015 606.083 883.932 602.75 882.932 599.25C882.098 595.583 881.348 592.25 880.682 589.25C880.015 586.25 879.515 583.75 879.182 581.75C878.848 579.75 878.598 578.583 878.432 578.25C876.098 576.75 874.182 576.667 872.682 578C871.182 579.167 869.932 580.917 868.932 583.25C868.098 585.583 867.515 588.083 867.182 590.75C867.015 593.25 867.015 595 867.182 596C867.015 596.333 866.598 596.917 865.932 597.75C865.265 598.417 864.515 599.167 863.682 600C862.848 600.833 862.098 601.667 861.432 602.5C860.765 603.167 860.348 603.667 860.182 604C859.515 605.167 859.348 606.417 859.682 607.75C860.015 609.083 859.765 610.25 858.932 611.25C855.598 617.25 851.682 622 847.182 625.5C846.015 626.5 845.098 627.917 844.432 629.75C843.765 631.583 843.348 633.5 843.182 635.5C843.015 637.5 843.182 639.5 843.682 641.5C844.182 643.333 845.098 644.833 846.432 646C844.765 647 843.432 648.083 842.432 649.25C841.598 650.25 840.848 651.417 840.182 652.75C839.682 653.917 839.182 655.25 838.682 656.75C838.182 658.083 837.598 659.583 836.932 661.25C834.098 668.75 832.682 672.667 832.682 673L829.182 680.25L825.932 693.5C826.098 696 825.182 697.5 823.182 698C821.348 698.5 818.348 698.75 814.182 698.75C810.182 699.75 806.682 700.25 803.682 700.25C800.682 700.083 799.682 698.5 800.682 695.5C805.015 685.167 808.182 677.5 810.182 672.5C812.348 667.333 813.432 663.417 813.432 660.75C813.432 659.917 813.765 659.25 814.432 658.75C815.265 658.083 815.932 657.583 816.432 657.25C816.598 656.917 817.182 655.167 818.182 652C819.348 648.833 820.598 645.333 821.932 641.5C823.265 637.5 824.515 633.75 825.682 630.25C827.015 626.583 828.015 624.083 828.682 622.75C830.182 619.583 831.932 616 833.932 612C836.098 608 838.598 604.167 841.432 600.5C842.932 598.5 844.182 595.75 845.182 592.25C846.348 588.75 847.432 584.917 848.432 580.75C849.432 576.583 850.515 572.333 851.682 568C852.848 563.667 854.348 559.667 856.182 556C857.182 555.667 860.098 552 864.932 545C865.265 544.667 865.515 544.333 865.682 544C866.015 543.5 866.348 543.083 866.682 542.75L898.682 540.75C899.348 541.583 900.098 542.583 900.932 543.75C901.765 544.917 902.682 546.167 903.682 547.5C906.848 551.5 908.765 554.667 909.432 557C910.098 559.333 910.515 560.917 910.682 561.75C910.348 562.25 912.098 567.917 915.932 578.75C916.932 581.417 917.765 584.417 918.432 587.75C919.098 591.083 919.598 594.25 919.932 597.25C920.265 600.083 920.432 602.583 920.432 604.75C920.432 606.75 920.348 607.833 920.182 608C919.848 608.167 922.515 610.25 928.182 614.25C929.515 615.25 930.265 616.167 930.432 617C930.765 617.833 930.765 618.583 930.432 619.25C930.265 619.917 929.932 620.5 929.432 621C928.932 621.5 928.682 621.833 928.682 622L935.432 631C935.432 631 937.348 638.25 941.182 652.75C943.348 659.75 944.932 665.75 945.932 670.75C946.932 675.583 947.432 679.333 947.432 682C947.432 682.333 947.515 682.583 947.682 682.75C947.682 682.583 947.848 683 948.182 684L946.682 690.5ZM1070.06 556L1053.06 555.75L1039.06 560.5C1038.56 560.5 1036.9 563.167 1034.06 568.5C1032.9 571.167 1031.48 574.083 1029.81 577.25C1028.31 580.417 1027.23 582.417 1026.56 583.25L1020.81 620.75C1020.48 620.75 1019.31 623.583 1017.31 629.25C1016.48 632.083 1015.65 634.417 1014.81 636.25C1013.98 637.917 1013.31 639.25 1012.81 640.25C1012.81 641.417 1014.4 644.583 1017.56 649.75L1023.56 646.25L1029.06 657L1025.81 663.25C1026.31 664.083 1026.73 664.833 1027.06 665.5C1027.4 666 1027.73 666.5 1028.06 667L1028.81 668.5C1028.81 669 1029.81 670.333 1031.81 672.5C1033.65 674.833 1035.15 676 1036.31 676C1038.15 676 1039.48 675.667 1040.31 675C1041.31 674.333 1042.06 674 1042.56 674C1043.06 674 1043.65 674.333 1044.31 675C1044.98 675.5 1045.56 675.833 1046.06 676C1053.9 677 1060.73 675.25 1066.56 670.75C1068.4 670.417 1070.81 670.083 1073.81 669.75C1076.81 669.417 1079.31 668.167 1081.31 666C1081.98 665.833 1082.81 665.333 1083.81 664.5C1084.81 663.667 1085.9 662.75 1087.06 661.75C1088.23 660.583 1089.48 659.417 1090.81 658.25C1092.15 657.083 1093.56 656.083 1095.06 655.25C1095.9 654.75 1096.56 655.167 1097.06 656.5C1097.73 657.833 1098.4 658.333 1099.06 658L1101.56 661L1097.31 673.75L1087.81 681.25L1074.31 685C1070.15 686.333 1065.65 687.75 1060.81 689.25C1056.15 690.75 1052.73 691.667 1050.56 692C1048.73 692.167 1046.73 692.583 1044.56 693.25C1042.4 693.75 1040.31 694.333 1038.31 695C1036.31 695.5 1034.56 696 1033.06 696.5C1031.56 696.833 1030.65 697 1030.31 697C1023.98 697 1019.4 697.083 1016.56 697.25C1013.73 697.25 1011.65 697.25 1010.31 697.25L987.814 680.75C987.481 677.583 984.981 672.583 980.314 665.75C975.814 659.583 973.564 655.75 973.564 654.25L975.814 633.75C976.314 630.25 976.731 626.667 977.064 623C977.398 619.167 977.648 615.667 977.814 612.5C977.981 609.333 978.064 606.583 978.064 604.25C978.231 601.917 978.314 600.5 978.314 600C979.648 599.333 981.564 597.75 984.064 595.25C986.564 592.583 988.814 588.917 990.814 584.25C994.981 575.583 996.481 567.917 995.314 561.25C996.148 560.917 998.481 560.333 1002.31 559.5C1006.15 558.667 1010.06 557.417 1014.06 555.75C1018.06 554.25 1021.15 553.083 1023.31 552.25C1025.48 551.417 1026.73 550.917 1027.06 550.75C1027.23 550.583 1027.9 550.333 1029.06 550C1030.4 549.667 1031.81 549.417 1033.31 549.25C1034.98 548.917 1036.56 548.667 1038.06 548.5C1039.56 548.167 1040.65 548 1041.31 548L1049.06 540.5L1071.56 540.25L1077.06 543.75L1075.56 551.75L1070.06 556ZM1125.68 681.25C1126.01 677.75 1126.26 672.417 1126.43 665.25C1126.76 660.417 1127.35 656.667 1128.18 654C1129.01 651.167 1129.43 649.25 1129.43 648.25C1129.43 647.583 1129.51 646.75 1129.68 645.75C1129.85 644.75 1129.93 643.75 1129.93 642.75C1129.93 641.75 1129.68 640.917 1129.18 640.25C1128.85 639.583 1128.18 639.25 1127.18 639.25L1128.68 623.75C1130.51 618.917 1131.51 612.5 1131.68 604.5C1131.85 600.667 1131.85 597.083 1131.68 593.75C1131.51 590.417 1131.85 587.417 1132.68 584.75L1133.43 573.75C1136.6 574.25 1137.43 572.833 1135.93 569.5C1135.43 567.667 1135.01 566.333 1134.68 565.5C1134.51 564.667 1134.68 564.25 1135.18 564.25C1135.51 562.417 1135.68 560.167 1135.68 557.5C1135.85 554.667 1136.1 550.333 1136.43 544.5L1141.43 541.75C1143.76 542.75 1147.01 543.667 1151.18 544.5C1155.51 545.167 1159.1 545.667 1161.93 546C1165.26 546.5 1167.93 546.917 1169.93 547.25C1171.93 547.417 1173.26 547.583 1173.93 547.75L1175.93 552.25C1175.26 555.75 1174.68 559.417 1174.18 563.25C1173.85 566.917 1173.51 570.583 1173.18 574.25C1173.01 577.75 1172.76 581.167 1172.43 584.5C1172.1 587.667 1171.68 590.417 1171.18 592.75C1170.51 594.417 1170.35 598.833 1170.68 606C1170.85 606.833 1170.93 607.667 1170.93 608.5C1170.93 609.333 1170.93 610.083 1170.93 610.75V613.75C1170.93 614.917 1170.85 615.75 1170.68 616.25C1168.35 617.583 1166.76 619.833 1165.93 623C1165.26 626 1165.18 629.417 1165.68 633.25C1166.01 634.75 1166.51 636 1167.18 637C1167.85 637.833 1168.51 640 1169.18 643.5C1169.68 645.333 1169.93 647.417 1169.93 649.75C1170.1 652.083 1170.1 654.417 1169.93 656.75C1169.93 659.083 1169.85 661.417 1169.68 663.75C1169.51 665.917 1169.43 667.833 1169.43 669.5C1167.26 671.167 1166.26 673.083 1166.43 675.25C1166.6 677.25 1166.85 679.083 1167.18 680.75C1166.35 681.25 1165.51 681.667 1164.68 682C1164.35 682.167 1164.1 682.25 1163.93 682.25C1163.76 682.25 1163.6 682.333 1163.43 682.5C1162.76 682.833 1162.18 683.083 1161.68 683.25C1161.35 683.417 1161.01 683.583 1160.68 683.75H1160.43L1160.68 683.5C1161.01 683.167 1161.18 682.917 1161.18 682.75C1160.68 682.917 1158.68 683 1155.18 683H1139.93C1138.26 683.167 1136.43 683.333 1134.43 683.5C1132.43 683.667 1130.68 683.917 1129.18 684.25L1125.68 681.25ZM1272.43 691.75H1242.68L1229.93 688.5L1230.93 676.5L1221.68 663.25L1208.93 646.25L1192.93 633.75L1184.93 632.25C1183.76 628.75 1182.35 625.75 1180.68 623.25C1180.35 622.583 1180.01 622 1179.68 621.5C1179.35 621 1179.01 620.583 1178.68 620.25C1178.18 619.25 1177.6 618.5 1176.93 618L1175.68 616.5C1176.85 615 1177.85 614.083 1178.68 613.75C1179.51 613.417 1180.43 613.083 1181.43 612.75C1182.43 612.417 1183.6 611.667 1184.93 610.5C1186.43 609.167 1188.51 606.75 1191.18 603.25C1192.68 601.083 1194.01 599.25 1195.18 597.75C1196.51 596.083 1197.6 594.667 1198.43 593.5C1198.93 592.833 1199.43 592.25 1199.93 591.75C1200.43 591.083 1200.85 590.583 1201.18 590.25C1202.85 588.917 1205.93 586 1210.43 581.5C1215.1 577 1221.01 570.75 1228.18 562.75C1233.01 557.417 1237.1 553 1240.43 549.5C1243.93 545.833 1246.68 543 1248.68 541L1254.43 539.75C1255.6 541.083 1256.6 542.25 1257.43 543.25C1258.43 544.083 1259.26 545 1259.93 546C1261.26 545.333 1262.43 545.583 1263.43 546.75C1264.43 547.75 1265.18 548.833 1265.68 550C1265.68 550.333 1266.01 550.75 1266.68 551.25C1267.51 551.75 1268.26 552.333 1268.93 553C1269.6 553.5 1270.1 554.167 1270.43 555C1270.76 555.667 1270.43 556.417 1269.43 557.25L1264.93 561.75C1264.26 562.417 1263.6 563.083 1262.93 563.75C1262.43 564.25 1262.01 564.833 1261.68 565.5C1260.18 566.667 1256.43 568.583 1250.43 571.25C1244.1 574.083 1240.1 576.417 1238.43 578.25C1237.6 579.417 1236.68 580.833 1235.68 582.5C1234.85 584.167 1233.85 585.917 1232.68 587.75C1231.68 589.417 1230.51 591 1229.18 592.5C1228.01 594 1226.76 595.083 1225.43 595.75C1225.26 595.917 1225.01 596.083 1224.68 596.25C1224.51 596.417 1223.93 597 1222.93 598C1222.76 597.833 1222.51 597.667 1222.18 597.5C1222.01 597.333 1221.76 597.083 1221.43 596.75C1221.26 596.583 1221.1 596.5 1220.93 596.5C1220.76 596.333 1220.6 596.167 1220.43 596C1220.1 596.833 1219.51 597.333 1218.68 597.5C1218.35 597.667 1217.76 597.75 1216.93 597.75C1214.93 599.25 1213.85 601 1213.68 603C1213.68 604.833 1214.1 606.417 1214.93 607.75C1215.1 607.917 1214.35 608.833 1212.68 610.5C1211.18 612.167 1209.85 613.833 1208.68 615.5L1215.93 619.25L1228.18 634.75L1253.68 659.75L1272.43 678.5L1278.68 682L1278.43 686.5L1272.43 691.75ZM1160.18 684L1160.43 683.75L1160.18 684ZM1308.69 675L1337.19 670.75L1364.44 662.75L1370.94 652.25L1368.19 641.5L1361.69 633.5C1359.86 632.333 1357.94 631.25 1355.94 630.25C1354.11 629.083 1352.19 628.25 1350.19 627.75C1348.36 627.083 1346.44 626.833 1344.44 627C1342.61 627 1340.77 627.583 1338.94 628.75L1332.69 633.25L1311.94 623.5L1304.44 604.25L1310.94 572L1322.44 556.75C1322.94 557.917 1323.94 558.333 1325.44 558C1326.94 557.667 1328.44 557 1329.94 556C1331.44 555 1332.69 553.833 1333.69 552.5C1334.69 551 1334.94 549.667 1334.44 548.5C1337.27 547.667 1340.52 546.833 1344.19 546C1347.86 545 1351.02 543.583 1353.69 541.75L1385.94 535L1391.19 534.5L1395.69 539.75L1391.69 550.5L1382.44 553L1370.44 554.25L1352.19 563.5L1343.69 574.5C1341.02 577 1339.69 579.75 1339.69 582.75C1339.86 585.583 1340.61 588.667 1341.94 592C1343.77 595.833 1345.11 598.333 1345.94 599.5C1346.94 600.5 1348.19 601.417 1349.69 602.25L1364.44 607.25C1366.11 608.583 1367.61 609.667 1368.94 610.5C1370.44 611.167 1372.11 611.583 1373.94 611.75C1375.77 611.917 1378.36 612.083 1381.69 612.25C1385.19 612.417 1389.61 612.667 1394.94 613C1396.44 615.833 1398.19 618.333 1400.19 620.5C1402.19 622.5 1404.11 625.167 1405.94 628.5L1410.94 639.75L1403.44 664.75L1397.44 671.25L1385.19 689H1378.94C1376.77 689 1374.11 689.083 1370.94 689.25C1367.94 689.25 1364.36 689.25 1360.19 689.25C1356.02 689.25 1352.36 689.667 1349.19 690.5C1346.02 691.333 1343.19 692.25 1340.69 693.25C1338.19 694.083 1336.02 694.833 1334.19 695.5C1332.36 696.167 1330.69 696.417 1329.19 696.25L1320.19 693.5L1305.19 696L1299.94 685.25L1301.44 679L1308.69 675Z" fill="white"/>
<defs>
<clipPath id="clip0_1_328">
<rect width="1894" height="452" fill="white" transform="translate(57)"/>
</clipPath>
</defs>
</svg>
