<svg width="1933" height="744" viewBox="0 0 1933 744" fill="none" xmlns="http://www.w3.org/2000/svg">
<g clip-path="url(#clip0_1_295)">
<path d="M1188.61 280.53V160.242H1108.44V115.715H1233.66V287.249L1235.81 287.678C1238.8 279.101 1241.95 270.524 1244.87 261.876C1268.96 190.832 1293.02 119.788 1317.05 48.7446C1321.8 34.4623 1330.93 22.0449 1343.14 13.263C1355.36 4.48102 1370.03 -0.217079 1385.06 -0.161624C1400.1 -0.106169 1414.73 4.70004 1426.88 13.5718C1439.03 22.4436 1448.06 34.9279 1452.71 49.2449C1482.55 137.966 1512.44 226.64 1542.38 315.266C1543.45 318.483 1544.38 321.699 1545.52 325.558H1366.1V281.531H1483.91C1478.98 267.237 1474.55 253.585 1469.98 240.148L1408.51 58.5364C1407.71 55.188 1406.21 52.0487 1404.1 49.3265C1401.99 46.6042 1399.33 44.3612 1396.29 42.7461C1393.26 41.1309 1389.91 40.1805 1386.48 39.9578C1383.05 39.7351 1379.61 40.2453 1376.38 41.4544C1372.39 43.0543 1368.85 45.5902 1366.04 48.8489C1363.23 52.1076 1361.24 55.9936 1360.25 60.1802L1299.85 239.434C1290.14 268.023 1280.36 296.612 1270.5 325.844H1091.51C1037.97 325.844 999.771 290.966 998.128 237.432C996.629 187.402 996.986 137.943 998.485 88.269C999.432 66.4263 1008.6 45.7513 1024.15 30.3981C1039.7 15.0449 1060.47 6.15111 1082.3 5.50365C1131.42 4.43156 1180.55 5.50365 1229.67 5.50365C1230.92 5.5906 1232.16 5.78187 1233.38 6.07544V50.1741H1091.51C1061.6 50.1741 1042.89 68.8999 1042.89 98.8469V234.645C1042.61 240.881 1043.63 247.108 1045.88 252.929C1048.13 258.75 1051.57 264.037 1055.98 268.454C1060.38 272.872 1065.66 276.322 1071.47 278.586C1077.28 280.85 1083.5 281.877 1089.73 281.603H1180.55C1183.04 281.031 1185.54 280.745 1188.61 280.53Z" fill="white"/>
<path d="M474.653 270.882V226.14H607.45C609.686 226.612 611.996 226.612 614.232 226.14C616.506 224.548 618.549 222.647 620.301 220.493C618.23 218.992 616.231 216.276 614.089 216.205C602.38 215.776 590.671 216.205 578.962 216.205C554.983 216.224 531.72 208.023 513.045 192.965C494.37 177.907 481.408 156.902 476.318 133.444C471.227 109.986 474.315 85.49 485.066 64.0329C495.818 42.5758 513.585 25.4515 535.411 15.5095C547.878 9.88004 561.301 6.67829 574.964 6.0752C622.014 4.93164 669.136 5.64639 716.257 5.64639C717.573 5.71667 718.884 5.85982 720.184 6.0752V50.3168C716.9 50.3168 713.544 50.8885 710.26 50.8885C666.637 50.8885 622.942 50.8885 579.248 50.8885C564.628 50.8386 550.496 56.1495 539.52 65.818C528.544 75.4865 521.485 88.8435 519.675 103.367C517.864 117.89 521.429 132.574 529.695 144.646C537.961 156.718 550.356 165.342 564.54 168.89C578.068 170.768 591.727 171.533 605.379 171.177C613.346 171.092 621.304 171.738 629.154 173.107C640.596 176.429 650.476 183.735 657.013 193.705C663.55 203.676 666.313 215.657 664.806 227.487C663.299 239.318 657.619 250.22 648.791 258.229C639.964 266.238 628.568 270.826 616.66 271.167C586.102 271.739 555.545 271.167 524.987 271.167L474.653 270.882Z" fill="white"/>
<path d="M474.653 325.844V280.53H485.148C528.843 280.53 572.537 280.53 616.231 280.53C631.078 280.519 645.388 274.968 656.367 264.962C667.346 254.955 674.205 241.212 675.606 226.415C677.006 211.618 672.847 196.83 663.941 184.938C655.035 173.045 642.021 164.903 627.44 162.1C612.114 160.618 596.702 160.212 581.319 160.885C573.143 161.22 565.012 159.514 557.659 155.921C550.305 152.328 543.96 146.96 539.195 140.301C533.645 133.117 530.226 124.515 529.329 115.478C528.433 106.441 530.095 97.3337 534.126 89.1978C537.594 80.692 543.529 73.422 551.164 68.326C558.8 63.23 567.787 60.5419 576.963 60.6087C624.013 59.8225 671.135 60.6087 718.256 60.6087C719 60.7794 719.72 61.0436 720.398 61.3949V105.351H586.031C583.483 105.032 580.899 105.153 578.391 105.708C577.338 106.22 576.406 106.95 575.655 107.849C574.904 108.749 574.352 109.797 574.036 110.926C574.036 112.069 576.464 114.928 578.106 115.214C582.338 115.81 586.613 116.049 590.886 115.929C610.805 115.929 630.725 114.642 650.216 121.432C672.763 129.325 691.954 144.666 704.632 164.93C717.31 185.195 722.719 209.177 719.97 232.929C712.402 285.819 671.849 324.557 620.658 325.844C572.18 326.701 523.631 325.844 474.653 325.844Z" fill="white"/>
<path d="M981.065 5.14596V49.8878H834.56C804.503 49.8878 785.868 68.4708 785.868 98.4178V233.859C785.502 240.167 786.478 246.482 788.73 252.386C790.983 258.289 794.461 263.647 798.934 268.106C803.408 272.564 808.776 276.021 814.684 278.249C820.591 280.477 826.903 281.425 833.204 281.031H980.28V325.773H831.633C819.757 325.985 807.96 323.804 796.943 319.361C785.925 314.917 775.913 308.302 767.501 299.907C759.089 291.513 752.448 281.51 747.975 270.495C743.501 259.481 741.286 247.678 741.46 235.788C741.46 188.902 741.46 142.04 741.46 95.2016C741.276 83.3064 743.484 71.4956 747.954 60.4723C752.423 49.449 759.062 39.4385 767.475 31.0363C775.888 22.6341 785.904 16.012 796.926 11.5642C807.948 7.11635 819.751 4.93364 831.633 5.14596H981.565H981.065Z" fill="white"/>
<path d="M1469.34 270.452H1365.6V238.576L1363.82 238.147C1361.96 243.364 1360.03 248.51 1358.25 253.728C1351.11 275.598 1343.33 297.469 1336.19 319.411C1336.04 320.43 1335.69 321.41 1335.16 322.292C1334.63 323.174 1333.93 323.94 1333.1 324.546C1332.26 325.152 1331.32 325.585 1330.32 325.821C1329.32 326.056 1328.28 326.088 1327.26 325.915C1312.2 325.558 1297.13 325.915 1281.21 325.915C1290.57 298.255 1299.56 271.525 1308.63 244.865C1329.14 184.018 1349.68 123.195 1370.24 62.3954C1370.87 59.0121 1372.62 55.9409 1375.22 53.6825C1377.81 51.4241 1381.09 50.1117 1384.52 49.9592C1388.15 49.8844 1391.68 51.1346 1394.45 53.4762C1397.23 55.8177 1399.05 59.0901 1399.59 62.6814C1399.59 63.4676 1400.23 64.2538 1400.52 65.04L1441.85 188.402C1450.14 213.036 1458.39 237.646 1466.63 262.233C1467.7 264.806 1468.41 267.522 1469.34 270.452ZM1384.95 174.893L1369.6 220.922H1400.23C1395.23 205.984 1390.52 191.761 1384.95 174.893Z" fill="white"/>
<path d="M1133.71 226.139V215.776H1108.51V170.462H1178.47V270.524C1175.98 270.524 1173.76 271.024 1171.34 271.024C1144.2 271.024 1117.07 271.024 1089.94 271.024C1067.1 271.024 1052.96 256.73 1052.89 234.216C1052.89 188.473 1052.89 142.731 1052.89 96.9884C1052.89 74.1886 1067.17 60.4658 1090.02 60.4658H1232.81V105.422H1113.43C1100.22 105.422 1097.8 107.781 1097.73 120.789V210.773C1097.73 222.494 1101.37 226.139 1113 226.282C1119.57 226.211 1126.07 226.139 1133.71 226.139Z" fill="white"/>
<path d="M981.065 61.3237V105.279H970.712C931.944 105.279 893.105 105.279 854.337 105.279C847.768 105.279 842.485 106.423 840.986 115.214H850.624C880.896 115.214 911.097 115.214 941.369 115.214C947.866 115.214 949.793 117.144 949.579 123.505C949.151 135.369 949.579 147.305 949.579 159.742H796.292V112.713C796.292 106.137 796.292 99.5616 796.292 92.9861C796.531 84.6089 799.91 76.6282 805.756 70.6297C811.602 64.6313 819.489 61.0541 827.849 60.6089C877.826 60.6089 928.303 60.6089 978.495 60.6089C979.377 60.7425 980.24 60.9825 981.065 61.3237Z" fill="white"/>
<path d="M796.292 171.105H948.722V215.347H841.628L840.058 217.706C842.403 220.478 845.146 222.886 848.197 224.853C851.428 225.967 854.865 226.358 858.264 225.996H980.137V270.452H834.489C809.357 270.452 796.006 257.016 796.006 231.786L796.292 171.105Z" fill="white"/>
<path d="M495.643 383.951H541.194C541.194 395.387 541.194 406.394 541.194 417.4C541.194 432.767 543.836 435.483 558.972 435.483H626.584C629.978 435.81 633.399 435.244 636.508 433.839C639.364 431.981 642.719 427.907 642.362 425.191C641.669 423.531 640.564 422.076 639.152 420.963C637.74 419.85 636.069 419.116 634.294 418.83C619.23 418.187 604.094 418.83 588.958 418.472H578.891V395.172C581.747 395.172 584.746 394.815 587.744 394.815H655.356C677.703 394.815 689.555 405.465 690.198 425.834C690.664 430.406 690.154 435.024 688.704 439.384C687.253 443.744 684.893 447.746 681.782 451.124C678.67 454.503 674.877 457.181 670.654 458.982C666.431 460.783 661.873 461.665 657.284 461.571C643.005 462.357 629.297 461.928 615.375 461.928C588.815 461.928 562.256 461.928 535.768 461.928C529.225 461.897 522.708 461.105 516.348 459.569C510.623 458.566 505.43 455.585 501.673 451.145C497.916 446.705 495.833 441.087 495.786 435.269C495.215 418.401 495.643 401.605 495.643 383.951Z" fill="white"/>
<path d="M1740.29 382.521C1755.5 382.521 1768.85 382.521 1782.27 382.521C1783.7 382.521 1785.98 383.379 1786.41 384.523C1789.98 392.456 1796.98 392.242 1803.9 392.242L1884.37 392.671H1894.22V416.543H1800.91C1798.09 416.064 1795.2 416.26 1792.48 417.114C1789.62 418.83 1786.13 422.118 1785.98 424.905C1785.84 427.692 1789.48 430.766 1792.19 432.052C1795.12 433.197 1798.28 433.614 1801.4 433.267C1833.1 433.267 1864.73 433.696 1896.43 433.267C1903.57 433.267 1906.5 434.84 1905.93 442.773C1904.71 460.284 1905.07 460.355 1887.58 460.427C1851.88 460.427 1815.68 460.427 1779.7 460.427C1774.48 460.745 1769.25 459.957 1764.35 458.114C1759.46 456.271 1755 453.415 1751.28 449.733C1747.56 446.05 1744.66 441.623 1742.77 436.741C1740.87 431.86 1740.03 426.633 1740.29 421.403C1740.22 409.324 1740.29 396.53 1740.29 382.521Z" fill="white"/>
<path d="M352.78 418.187C350.924 430.623 353.851 434.34 365.417 434.483C396.831 434.983 428.246 435.269 459.588 435.626H470.369V460.713C468.084 460.713 465.586 461.142 463.23 461.142C423.248 461.142 383.266 460.642 343.356 460.141C317.296 460.141 305.801 447.991 305.873 422.118V382.736C320.152 382.736 333.717 382.736 347.068 382.736C347.954 382.906 348.788 383.278 349.507 383.824C350.225 384.369 350.808 385.073 351.209 385.881C353.351 393.529 358.991 394.887 365.489 394.887H456.304C457.946 394.887 459.66 394.887 462.087 395.316V418.044L352.78 418.187Z" fill="white"/>
<path d="M1616.99 427.264C1622.2 420.116 1626.2 414.899 1630.13 409.467C1636.41 400.604 1640.84 388.025 1649.33 383.88C1657.83 379.734 1670.75 382.665 1681.25 382.593H1699.02C1697.02 386.238 1696.02 388.383 1694.74 390.384C1679.75 412.254 1664.97 434.268 1649.55 455.853C1648.2 457.498 1646.54 458.858 1644.67 459.852C1642.79 460.846 1640.74 461.455 1638.62 461.642C1623.84 462.285 1608.99 462.142 1594.14 461.642C1592.4 461.678 1590.67 461.354 1589.06 460.69C1587.45 460.026 1586 459.036 1584.79 457.782C1569.15 433.625 1554.09 409.11 1537.53 382.736C1545.82 383.389 1554.15 383.389 1562.44 382.736C1581.01 379.591 1593 386.667 1600.92 403.463C1605.73 411.756 1611.1 419.708 1616.99 427.264Z" fill="white"/>
<path d="M899.887 461.285H853.052L851.981 438.842H769.233V406.608H852.552V383.522H899.887V461.285Z" fill="white"/>
<path d="M1290.57 406.465H1352.82C1369.53 406.465 1372.03 404.035 1373.03 387.453C1373.15 386.18 1373.34 384.916 1373.6 383.665H1422.36C1424.86 402.462 1420.65 417.686 1403.59 428.621L1435.43 459.426L1434 461.999C1431.36 461.999 1428.65 462.428 1426 462.428C1420.3 462.071 1414.58 462.071 1408.87 462.428C1387.45 465.216 1369.96 459.712 1357.18 440.986C1355.91 439.762 1354.41 438.807 1352.77 438.181C1351.12 437.554 1349.37 437.269 1347.61 437.341C1328.76 437.341 1309.99 437.341 1290.49 437.341L1290.57 406.465Z" fill="white"/>
<path d="M27.2856 373.659C27.2856 366.511 27.2856 359.722 27.2856 353.003C27.2856 351.359 30.07 349.501 31.9977 348.572C33.6679 348.208 35.3967 348.208 37.0668 348.572C102.989 348.572 168.888 348.572 234.762 348.572C242.451 348.436 250.139 348.914 257.752 350.001C263.435 350.755 268.642 353.575 272.381 357.925C276.121 362.275 278.131 367.849 278.028 373.587L27.2856 373.659Z" fill="white"/>
<path d="M1200.75 383.38C1201.5 401.292 1201.36 419.23 1200.32 437.127C1199.64 443.96 1196.47 450.302 1191.41 454.942C1186.35 459.583 1179.77 462.197 1172.91 462.286C1136.49 462.929 1100.01 462.286 1062.88 462.286V435.412H1081.02C1100.94 435.412 1120.93 435.412 1140.85 435.412C1153.06 435.412 1156.84 431.624 1157.06 419.616C1157.27 407.609 1157.06 395.816 1157.06 383.38H1200.75Z" fill="white"/>
<path d="M1198.89 375.017H1010.55V348.93H1154.56C1161.41 348.857 1168.26 349.287 1175.05 350.216C1181.12 351.323 1186.69 354.314 1190.97 358.765C1195.25 363.216 1198.02 368.902 1198.89 375.017Z" fill="white"/>
<path d="M498.428 374.945C498.622 368.864 500.957 363.048 505.02 358.523C509.083 353.998 514.612 351.055 520.632 350.216C527.103 349.216 533.649 348.786 540.194 348.929C585.031 348.929 629.796 349.287 674.633 349.501C676.714 349.602 678.787 349.817 680.845 350.144V374.945H498.428Z" fill="white"/>
<path d="M1419.58 374.803H1235.88C1237.12 368.236 1240.46 362.25 1245.39 357.741C1250.32 353.232 1256.58 350.441 1263.22 349.787C1272.29 348.858 1281.5 349.001 1290.64 348.929C1322.27 348.929 1353.97 348.929 1385.59 348.929C1393.4 348.509 1401.11 350.88 1407.33 355.619C1413.56 360.358 1417.9 367.157 1419.58 374.803Z" fill="white"/>
<path d="M716.114 375.017C716.412 368.053 719.429 361.485 724.516 356.726C729.604 351.967 736.355 349.398 743.316 349.573C766.663 348.858 790.009 348.93 813.427 348.858C831.347 348.858 849.125 348.858 867.26 349.502C874.316 349.869 881.05 352.575 886.401 357.195C891.753 361.814 895.417 368.084 896.818 375.017H716.114Z" fill="white"/>
<path d="M1740.79 373.016V349.216H1904.22V373.016H1740.79Z" fill="white"/>
<path d="M306.872 374.159C304.445 348.93 304.445 349.072 328.291 349.144C372.2 349.144 416.108 349.144 460.017 349.144H470.869V373.802L306.872 374.159Z" fill="white"/>
<path d="M1232.02 460.927C1232.02 435.626 1232.02 411.468 1232.02 387.239C1232.41 386.192 1233.06 385.262 1233.91 384.536C1234.76 383.811 1235.78 383.314 1236.88 383.093C1251.16 382.736 1265.44 383.093 1279.71 383.093V460.927H1232.02Z" fill="white"/>
<path d="M1450.14 461.07V382.808H1496.76V461.07H1450.14Z" fill="white"/>
<path d="M760.237 460.998C745.958 460.998 733.035 460.998 719.97 460.998C718.113 460.998 714.758 458.64 714.686 457.353C714.686 432.909 714.686 408.394 714.686 383.736H760.237V460.998Z" fill="white"/>
<path d="M129.739 382.593H174.147V458.783H129.739V382.593Z" fill="white"/>
<path d="M278.1 383.38V459.427H235.262V383.38H278.1Z" fill="white"/>
<path d="M1053.46 461.213H1010.62V383.88H1053.46V461.213Z" fill="white"/>
<path d="M69.552 458.783H26.7144C26.7144 434.268 26.7144 410.968 26.7144 387.31C26.9858 386.237 27.5293 385.252 28.2922 384.451C29.0552 383.65 30.0118 383.059 31.0696 382.736C43.5639 382.379 56.0582 382.736 69.0523 382.736L69.552 458.783Z" fill="white"/>
<path d="M1654.9 372.444C1659.54 365.297 1664.11 358.15 1669.18 351.002C1669.75 350.242 1670.47 349.604 1671.29 349.126C1672.11 348.647 1673.02 348.337 1673.96 348.215C1689.46 348.215 1705.02 348.215 1723.08 348.215C1716.44 357.792 1711.3 365.44 1705.95 372.944C1705.41 373.568 1704.76 374.078 1704.02 374.447C1703.29 374.815 1702.48 375.033 1701.66 375.089C1686.31 375.089 1671.04 375.089 1655.69 375.089L1654.9 372.444Z" fill="white"/>
<path d="M1516.11 348.572C1531.74 348.572 1545.09 348.572 1558.44 348.572C1559.66 348.602 1560.86 348.885 1561.97 349.401C1563.08 349.918 1564.06 350.658 1564.87 351.574C1569.94 358.721 1574.51 365.869 1580.01 374.588C1564.23 374.588 1549.88 374.588 1535.53 374.588C1534.71 374.483 1533.92 374.213 1533.21 373.795C1532.5 373.378 1531.88 372.821 1531.39 372.158C1526.53 365.011 1521.89 357.578 1516.11 348.572Z" fill="white"/>
<path d="M1450.92 374.232V349.145H1496.62V374.232H1450.92Z" fill="white"/>
</g>
<path d="M705.75 509.75L707.75 514C707.75 514.5 707.5 517.083 707 521.75C706.5 526.25 705.917 531.833 705.25 538.5C704.583 545.167 703.75 552.417 702.75 560.25C701.917 567.917 701.167 575.083 700.5 581.75C699.833 588.417 699.25 594.167 698.75 599C698.25 603.667 698 606.25 698 606.75C698 608.917 697.75 611.333 697.25 614C696.75 616.5 696.5 618.167 696.5 619C696.5 624.5 696.667 628.75 697 631.75C697.333 634.583 697.25 637.167 696.75 639.5C696.75 640 696.333 641.667 695.5 644.5C694.667 647.167 693.583 652.333 692.25 660C691.417 663.833 690.667 666.667 690 668.5C689.5 670.333 689 671.667 688.5 672.5C688.167 673.167 687.833 673.583 687.5 673.75C687.333 673.75 687.25 673.833 687.25 674C684.917 677.5 682.25 680.667 679.25 683.5C676.25 686.333 673.833 688.667 672 690.5C670.167 692.5 668.583 694.083 667.25 695.25C666.083 696.583 665.167 697.583 664.5 698.25L640.25 703.5L622 704.25L616.5 694.75L616 691.5L617.75 690L633.75 688L639.75 685C641.75 684.167 643.167 683.083 644 681.75C645 680.417 646.083 679 647.25 677.5C649.75 674.333 652.083 671.167 654.25 668C656.417 664.833 657.417 660.583 657.25 655.25C656.917 649.75 657.167 645.083 658 641.25C658.167 639.083 658.417 637.083 658.75 635.25C658.75 634.417 658.833 633.083 659 631.25C659.167 629.25 659.333 627.167 659.5 625C659.833 622.833 660 620.75 660 618.75C660.167 616.583 660.167 614.833 660 613.5C659.667 610.833 659.417 609.083 659.25 608.25C659.25 607.417 659.25 606.75 659.25 606.25C659.25 605.75 659.667 604.75 660.5 603.25C661.5 601.75 662.333 600.417 663 599.25C663.333 598.417 663.083 595.25 662.25 589.75C661.917 586.917 661.5 584.667 661 583C660.667 581.333 660.583 580.167 660.75 579.5C661.083 579.167 661.583 578.75 662.25 578.25C663.083 577.75 663.583 577.25 663.75 576.75C662.75 576.25 662.25 568.583 662.25 553.75C662.25 549.917 662.417 546.167 662.75 542.5C663.083 538.833 663.333 535.5 663.5 532.5C663.833 529.5 664.083 527 664.25 525C664.417 522.833 664.333 521.5 664 521C665.833 520.167 666.917 519.25 667.25 518.25C667.583 517.25 667.667 515.833 667.5 514C668.5 513.667 670.25 513.333 672.75 513C675.25 512.667 678.5 512.417 682.5 512.25C689.667 511.75 695.25 510.75 699.25 509.25C699.917 509.417 700.5 509.5 701 509.5C701.667 509.5 702.167 509.5 702.5 509.5C703.333 509.667 704 509.75 704.5 509.75C705.167 509.75 705.583 509.75 705.75 509.75ZM867.678 680.5L858.928 682C856.928 682.333 854.844 682.333 852.678 682C850.511 681.667 848.261 681.5 845.928 681.5C845.428 681.5 844.678 681.5 843.678 681.5C842.678 681.5 841.511 681.5 840.178 681.5C839.011 681.5 837.844 681.583 836.678 681.75C835.511 681.75 834.511 681.75 833.678 681.75L828.178 678C828.678 674.667 828.511 672.25 827.678 670.75C827.011 669.25 826.511 667.833 826.178 666.5C825.844 665.5 825.178 663.917 824.178 661.75C823.178 659.583 822.261 657.083 821.428 654.25C821.428 653.75 820.594 652.25 818.928 649.75C817.261 647.25 815.928 645 814.928 643L811.928 644.25C811.094 644.25 810.178 644.5 809.178 645C808.178 645.5 805.678 645.75 801.678 645.75C801.178 644.75 800.344 644.083 799.178 643.75C798.011 643.25 796.678 643.167 795.178 643.5C793.844 643.667 792.428 644.167 790.928 645C789.594 645.833 788.428 646.833 787.428 648L777.178 649.5C776.511 648 775.761 646.833 774.928 646C774.261 645 773.511 644.083 772.678 643.25C772.011 642.417 771.428 641.5 770.928 640.5C770.428 639.5 770.178 638.167 770.178 636.5C773.511 635.667 775.428 634.583 775.928 633.25C776.594 631.917 777.094 631.333 777.428 631.5C778.428 632 779.344 632.25 780.178 632.25C779.011 632.25 778.678 632.083 779.178 631.75C779.678 631.417 781.928 630.583 785.928 629.25L804.178 627L807.928 629.75C810.594 630.417 812.594 630.583 813.928 630.25C815.261 629.917 816.178 629.333 816.678 628.5C817.178 627.5 817.428 626.417 817.428 625.25C817.594 624.083 817.761 623.083 817.928 622.25C818.261 620.417 817.844 618.917 816.678 617.75C815.678 616.417 814.261 615.25 812.428 614.25C812.094 612.417 811.428 610.333 810.428 608C809.594 605.5 808.511 602.583 807.178 599.25C806.011 596.083 804.928 592.75 803.928 589.25C803.094 585.583 802.344 582.25 801.678 579.25C801.011 576.25 800.511 573.75 800.178 571.75C799.844 569.75 799.594 568.583 799.428 568.25C797.094 566.75 795.178 566.667 793.678 568C792.178 569.167 790.928 570.917 789.928 573.25C789.094 575.583 788.511 578.083 788.178 580.75C788.011 583.25 788.011 585 788.178 586C788.011 586.333 787.594 586.917 786.928 587.75C786.261 588.417 785.511 589.167 784.678 590C783.844 590.833 783.094 591.667 782.428 592.5C781.761 593.167 781.344 593.667 781.178 594C780.511 595.167 780.344 596.417 780.678 597.75C781.011 599.083 780.761 600.25 779.928 601.25C776.594 607.25 772.678 612 768.178 615.5C767.011 616.5 766.094 617.917 765.428 619.75C764.761 621.583 764.344 623.5 764.178 625.5C764.011 627.5 764.178 629.5 764.678 631.5C765.178 633.333 766.094 634.833 767.428 636C765.761 637 764.428 638.083 763.428 639.25C762.594 640.25 761.844 641.417 761.178 642.75C760.678 643.917 760.178 645.25 759.678 646.75C759.178 648.083 758.594 649.583 757.928 651.25C755.094 658.75 753.678 662.667 753.678 663L750.178 670.25L746.928 683.5C747.094 686 746.178 687.5 744.178 688C742.344 688.5 739.344 688.75 735.178 688.75C731.178 689.75 727.678 690.25 724.678 690.25C721.678 690.083 720.678 688.5 721.678 685.5C726.011 675.167 729.178 667.5 731.178 662.5C733.344 657.333 734.428 653.417 734.428 650.75C734.428 649.917 734.761 649.25 735.428 648.75C736.261 648.083 736.928 647.583 737.428 647.25C737.594 646.917 738.178 645.167 739.178 642C740.344 638.833 741.594 635.333 742.928 631.5C744.261 627.5 745.511 623.75 746.678 620.25C748.011 616.583 749.011 614.083 749.678 612.75C751.178 609.583 752.928 606 754.928 602C757.094 598 759.594 594.167 762.428 590.5C763.928 588.5 765.178 585.75 766.178 582.25C767.344 578.75 768.428 574.917 769.428 570.75C770.428 566.583 771.511 562.333 772.678 558C773.844 553.667 775.344 549.667 777.178 546C778.178 545.667 781.094 542 785.928 535C786.261 534.667 786.511 534.333 786.678 534C787.011 533.5 787.344 533.083 787.678 532.75L819.678 530.75C820.344 531.583 821.094 532.583 821.928 533.75C822.761 534.917 823.678 536.167 824.678 537.5C827.844 541.5 829.761 544.667 830.428 547C831.094 549.333 831.511 550.917 831.678 551.75C831.344 552.25 833.094 557.917 836.928 568.75C837.928 571.417 838.761 574.417 839.428 577.75C840.094 581.083 840.594 584.25 840.928 587.25C841.261 590.083 841.428 592.583 841.428 594.75C841.428 596.75 841.344 597.833 841.178 598C840.844 598.167 843.511 600.25 849.178 604.25C850.511 605.25 851.261 606.167 851.428 607C851.761 607.833 851.761 608.583 851.428 609.25C851.261 609.917 850.928 610.5 850.428 611C849.928 611.5 849.678 611.833 849.678 612L856.428 621C856.428 621 858.344 628.25 862.178 642.75C864.344 649.75 865.928 655.75 866.928 660.75C867.928 665.583 868.428 669.333 868.428 672C868.428 672.333 868.511 672.583 868.678 672.75C868.678 672.583 868.844 673 869.178 674L867.678 680.5ZM902.061 522.75C903.394 522.417 904.894 522.083 906.561 521.75C908.227 521.25 909.977 520.75 911.811 520.25C915.144 519.583 917.477 519 918.811 518.5C920.144 517.833 921.644 517.417 923.311 517.25C925.144 516.917 926.644 516.75 927.811 516.75C929.144 516.583 930.977 516.5 933.311 516.5C933.477 517.167 933.727 517.917 934.061 518.75C934.561 519.417 934.811 520.167 934.811 521C936.644 525 938.394 527.25 940.061 527.75C941.727 528.25 943.227 528 944.561 527C945.894 526 946.977 524.75 947.811 523.25C948.811 521.75 949.477 521 949.811 521H970.311L992.311 536.25C993.644 537.083 995.061 538.167 996.561 539.5C998.061 540.833 999.727 542.417 1001.56 544.25C1005.06 547.917 1007.39 549.667 1008.56 549.5L1007.06 561.5C1007.06 561.667 1007.31 561.833 1007.81 562C1008.31 562.167 1008.81 562.667 1009.31 563.5C1009.98 564.167 1010.48 565.25 1010.81 566.75C1011.31 568.25 1011.39 570.417 1011.06 573.25C1010.56 579.083 1010.56 584.25 1011.06 588.75C1011.56 593.25 1011.81 596.917 1011.81 599.75C1011.81 599.917 1010.06 600.833 1006.56 602.5C1003.06 603.833 1001.31 606.333 1001.31 610C1000.48 609.833 998.227 609.917 994.561 610.25C991.061 610.417 987.477 611.333 983.811 613L973.061 617.25H957.811C954.644 617.25 951.894 617.667 949.561 618.5C947.227 619.167 945.311 619.917 943.811 620.75C942.311 621.583 941.144 622.417 940.311 623.25C939.477 623.917 937.644 624.25 934.811 624.25C935.144 626.083 935.477 627.333 935.811 628C935.311 629.5 934.561 631.417 933.561 633.75C932.727 635.917 932.311 637.417 932.311 638.25C932.311 639.25 932.311 640.667 932.311 642.5C932.477 644.333 932.644 646.667 932.811 649.5C932.977 652.5 932.311 655 930.811 657C929.311 658.833 928.561 660.333 928.561 661.5C929.061 663.667 929.477 666.083 929.811 668.75C930.311 671.25 930.811 673.75 931.311 676.25L927.561 683.5C927.227 683.667 926.894 683.75 926.561 683.75C926.394 683.75 926.144 683.833 925.811 684C922.144 685.167 919.311 685.75 917.311 685.75C916.977 685.75 916.311 685.75 915.311 685.75C914.477 685.583 913.477 685.417 912.311 685.25C911.144 685.083 910.061 685 909.061 685C908.061 684.833 907.394 684.75 907.061 684.75C906.727 684.75 905.977 685.167 904.811 686C903.811 686.833 902.644 687.583 901.311 688.25L895.311 685.75C894.977 683.083 894.811 680.083 894.811 676.75C894.977 673.417 894.894 670.583 894.561 668.25C895.061 667.583 895.727 666.25 896.561 664.25C897.394 662.083 897.644 659.167 897.311 655.5C896.977 651.667 897.061 648.583 897.561 646.25C898.061 643.917 898.311 642.083 898.311 640.75C898.311 640.25 898.061 638.917 897.561 636.75C897.227 634.417 897.144 632.583 897.311 631.25C897.477 630.75 897.894 630.083 898.561 629.25C899.227 628.417 899.561 627.333 899.561 626C899.394 620.667 899.311 616.417 899.311 613.25C899.311 610.083 898.977 606.833 898.311 603.5C898.144 602.833 898.227 602.167 898.561 601.5C899.061 600.667 899.311 599.583 899.311 598.25C899.311 596.917 899.811 593.833 900.811 589C901.977 584 902.061 577.083 901.061 568.25C900.227 559.583 899.561 552.833 899.061 548C898.561 543.167 898.394 540.25 898.561 539.25C898.894 537.417 898.977 536 898.811 535C898.644 534 898.561 532.5 898.561 530.5L902.061 522.75ZM970.311 601C970.311 600.167 971.977 598.083 975.311 594.75C978.811 591.583 980.561 589.417 980.561 588.25L977.311 565.5L975.311 557.75L953.811 533.75H944.311L939.311 532.75L937.311 533.75C936.977 534.75 936.811 540.5 936.811 551C936.977 562 936.977 568.25 936.811 569.75C933.477 571.583 932.477 575.333 933.811 581C935.311 586.5 935.227 590.833 933.561 594C933.061 594.5 932.811 595.25 932.811 596.25C932.811 598.583 932.811 600.333 932.811 601.5C932.977 602.5 932.894 604.083 932.561 606.25C932.561 606.417 932.644 606.917 932.811 607.75C933.144 608.583 933.394 609.833 933.561 611.5L943.311 608.75C943.311 610.417 946.561 609.583 953.061 606.25C956.394 604.417 958.977 603.083 960.811 602.25C962.644 601.417 963.727 601 964.061 601H970.311ZM1141.36 680.5L1132.61 682C1130.61 682.333 1128.53 682.333 1126.36 682C1124.19 681.667 1121.94 681.5 1119.61 681.5C1119.11 681.5 1118.36 681.5 1117.36 681.5C1116.36 681.5 1115.19 681.5 1113.86 681.5C1112.69 681.5 1111.53 681.583 1110.36 681.75C1109.19 681.75 1108.19 681.75 1107.36 681.75L1101.86 678C1102.36 674.667 1102.19 672.25 1101.36 670.75C1100.69 669.25 1100.19 667.833 1099.86 666.5C1099.53 665.5 1098.86 663.917 1097.86 661.75C1096.86 659.583 1095.94 657.083 1095.11 654.25C1095.11 653.75 1094.28 652.25 1092.61 649.75C1090.94 647.25 1089.61 645 1088.61 643L1085.61 644.25C1084.78 644.25 1083.86 644.5 1082.86 645C1081.86 645.5 1079.36 645.75 1075.36 645.75C1074.86 644.75 1074.03 644.083 1072.86 643.75C1071.69 643.25 1070.36 643.167 1068.86 643.5C1067.53 643.667 1066.11 644.167 1064.61 645C1063.28 645.833 1062.11 646.833 1061.11 648L1050.86 649.5C1050.19 648 1049.44 646.833 1048.61 646C1047.94 645 1047.19 644.083 1046.36 643.25C1045.69 642.417 1045.11 641.5 1044.61 640.5C1044.11 639.5 1043.86 638.167 1043.86 636.5C1047.19 635.667 1049.11 634.583 1049.61 633.25C1050.28 631.917 1050.78 631.333 1051.11 631.5C1052.11 632 1053.03 632.25 1053.86 632.25C1052.69 632.25 1052.36 632.083 1052.86 631.75C1053.36 631.417 1055.61 630.583 1059.61 629.25L1077.86 627L1081.61 629.75C1084.28 630.417 1086.28 630.583 1087.61 630.25C1088.94 629.917 1089.86 629.333 1090.36 628.5C1090.86 627.5 1091.11 626.417 1091.11 625.25C1091.28 624.083 1091.44 623.083 1091.61 622.25C1091.94 620.417 1091.53 618.917 1090.36 617.75C1089.36 616.417 1087.94 615.25 1086.11 614.25C1085.78 612.417 1085.11 610.333 1084.11 608C1083.28 605.5 1082.19 602.583 1080.86 599.25C1079.69 596.083 1078.61 592.75 1077.61 589.25C1076.78 585.583 1076.03 582.25 1075.36 579.25C1074.69 576.25 1074.19 573.75 1073.86 571.75C1073.53 569.75 1073.28 568.583 1073.11 568.25C1070.78 566.75 1068.86 566.667 1067.36 568C1065.86 569.167 1064.61 570.917 1063.61 573.25C1062.78 575.583 1062.19 578.083 1061.86 580.75C1061.69 583.25 1061.69 585 1061.86 586C1061.69 586.333 1061.28 586.917 1060.61 587.75C1059.94 588.417 1059.19 589.167 1058.36 590C1057.53 590.833 1056.78 591.667 1056.11 592.5C1055.44 593.167 1055.03 593.667 1054.86 594C1054.19 595.167 1054.03 596.417 1054.36 597.75C1054.69 599.083 1054.44 600.25 1053.61 601.25C1050.28 607.25 1046.36 612 1041.86 615.5C1040.69 616.5 1039.78 617.917 1039.11 619.75C1038.44 621.583 1038.03 623.5 1037.86 625.5C1037.69 627.5 1037.86 629.5 1038.36 631.5C1038.86 633.333 1039.78 634.833 1041.11 636C1039.44 637 1038.11 638.083 1037.11 639.25C1036.28 640.25 1035.53 641.417 1034.86 642.75C1034.36 643.917 1033.86 645.25 1033.36 646.75C1032.86 648.083 1032.28 649.583 1031.61 651.25C1028.78 658.75 1027.36 662.667 1027.36 663L1023.86 670.25L1020.61 683.5C1020.78 686 1019.86 687.5 1017.86 688C1016.03 688.5 1013.03 688.75 1008.86 688.75C1004.86 689.75 1001.36 690.25 998.359 690.25C995.359 690.083 994.359 688.5 995.359 685.5C999.693 675.167 1002.86 667.5 1004.86 662.5C1007.03 657.333 1008.11 653.417 1008.11 650.75C1008.11 649.917 1008.44 649.25 1009.11 648.75C1009.94 648.083 1010.61 647.583 1011.11 647.25C1011.28 646.917 1011.86 645.167 1012.86 642C1014.03 638.833 1015.28 635.333 1016.61 631.5C1017.94 627.5 1019.19 623.75 1020.36 620.25C1021.69 616.583 1022.69 614.083 1023.36 612.75C1024.86 609.583 1026.61 606 1028.61 602C1030.78 598 1033.28 594.167 1036.11 590.5C1037.61 588.5 1038.86 585.75 1039.86 582.25C1041.03 578.75 1042.11 574.917 1043.11 570.75C1044.11 566.583 1045.19 562.333 1046.36 558C1047.53 553.667 1049.03 549.667 1050.86 546C1051.86 545.667 1054.78 542 1059.61 535C1059.94 534.667 1060.19 534.333 1060.36 534C1060.69 533.5 1061.03 533.083 1061.36 532.75L1093.36 530.75C1094.03 531.583 1094.78 532.583 1095.61 533.75C1096.44 534.917 1097.36 536.167 1098.36 537.5C1101.53 541.5 1103.44 544.667 1104.11 547C1104.78 549.333 1105.19 550.917 1105.36 551.75C1105.03 552.25 1106.78 557.917 1110.61 568.75C1111.61 571.417 1112.44 574.417 1113.11 577.75C1113.78 581.083 1114.28 584.25 1114.61 587.25C1114.94 590.083 1115.11 592.583 1115.11 594.75C1115.11 596.75 1115.03 597.833 1114.86 598C1114.53 598.167 1117.19 600.25 1122.86 604.25C1124.19 605.25 1124.94 606.167 1125.11 607C1125.44 607.833 1125.44 608.583 1125.11 609.25C1124.94 609.917 1124.61 610.5 1124.11 611C1123.61 611.5 1123.36 611.833 1123.36 612L1130.11 621C1130.11 621 1132.03 628.25 1135.86 642.75C1138.03 649.75 1139.61 655.75 1140.61 660.75C1141.61 665.583 1142.11 669.333 1142.11 672C1142.11 672.333 1142.19 672.583 1142.36 672.75C1142.36 672.583 1142.53 673 1142.86 674L1141.36 680.5ZM1218.49 538.25C1218.49 539.083 1218.41 539.667 1218.24 540C1218.24 540.333 1218.16 540.667 1217.99 541C1218.33 541.833 1218.49 542.583 1218.49 543.25C1218.49 543.75 1218.41 544.25 1218.24 544.75C1218.24 545.25 1218.24 545.917 1218.24 546.75C1218.24 547.417 1218.41 548.333 1218.74 549.5C1219.58 551.833 1220.41 553.417 1221.24 554.25C1222.08 554.917 1223.08 555.667 1224.24 556.5C1222.58 558 1221.74 559.333 1221.74 560.5C1221.74 561.5 1222.08 562.333 1222.74 563C1223.41 563.667 1224.41 564.25 1225.74 564.75C1226.08 565.083 1226.83 565.75 1227.99 566.75C1229.16 567.583 1230.33 567.833 1231.49 567.5L1247.99 594.5L1276.49 631C1278.49 631.167 1279.58 630.083 1279.74 627.75C1280.08 625.25 1279.99 622.583 1279.49 619.75C1279.16 616.75 1278.66 614.083 1277.99 611.75C1277.33 609.417 1276.99 608.417 1276.99 608.75C1276.49 603.917 1275.99 600.167 1275.49 597.5C1274.99 594.833 1275.16 591.917 1275.99 588.75C1276.83 587.917 1276.99 586.25 1276.49 583.75C1275.99 581.083 1275.33 578.417 1274.49 575.75C1274.16 574.25 1273.99 572.583 1273.99 570.75C1273.99 568.917 1274.08 567.083 1274.24 565.25C1274.41 563.417 1274.49 561.75 1274.49 560.25C1274.66 558.75 1274.66 557.583 1274.49 556.75C1274.49 555.083 1274.33 553.5 1273.99 552C1273.66 550.5 1273.74 549.083 1274.24 547.75C1274.41 547.083 1274.49 546.667 1274.49 546.5C1274.66 546.167 1274.74 545.833 1274.74 545.5C1274.74 545.167 1274.66 544.667 1274.49 544C1274.49 543.333 1274.49 542.333 1274.49 541L1277.99 537.5C1278.49 536.833 1279.33 536.333 1280.49 536C1281.66 535.667 1282.83 535.5 1283.99 535.5C1285.33 535.333 1286.49 535.25 1287.49 535.25C1288.66 535.25 1289.49 535.333 1289.99 535.5C1291.16 535.833 1292.49 536.083 1293.99 536.25C1295.66 536.25 1297.08 536.167 1298.24 536L1302.74 537.25L1305.49 549.5C1303.16 552 1301.83 554.417 1301.49 556.75C1301.16 559.083 1301.08 561.417 1301.24 563.75C1301.24 567.75 1301.33 570.75 1301.49 572.75C1301.83 574.583 1302.16 575.917 1302.49 576.75C1302.99 577.583 1303.41 578.083 1303.74 578.25C1304.24 578.417 1304.66 578.667 1304.99 579C1304.66 580.333 1304.08 581.667 1303.24 583C1302.58 584.167 1301.74 585.417 1300.74 586.75C1300.24 587.417 1299.99 588.25 1299.99 589.25C1300.16 590.083 1300.49 590.917 1300.99 591.75C1301.49 592.583 1302.08 593.333 1302.74 594C1303.41 594.5 1304.08 594.667 1304.74 594.5C1305.08 595 1305.08 596.417 1304.74 598.75C1304.41 600.917 1304.74 605.5 1305.74 612.5C1306.08 616 1305.99 619 1305.49 621.5C1305.16 623.833 1304.74 625.917 1304.24 627.75C1303.74 629.417 1303.24 631 1302.74 632.5C1302.41 633.833 1302.33 635.25 1302.49 636.75C1302.66 636.75 1302.83 637.5 1302.99 639C1303.16 640.5 1303.33 642.167 1303.49 644C1303.66 645.667 1303.83 647.25 1303.99 648.75C1304.33 650.083 1304.66 650.667 1304.99 650.5C1304.66 656.5 1304.74 661.75 1305.24 666.25C1305.91 670.75 1305.99 673.25 1305.49 673.75L1306.49 677L1296.24 680.75C1295.24 680.75 1294.24 680.75 1293.24 680.75C1292.24 680.75 1291.33 680.833 1290.49 681C1288.83 681.167 1287.16 681.333 1285.49 681.5C1283.83 681.667 1282.49 681.833 1281.49 682L1276.49 679.25C1276.66 677.583 1276.99 676.417 1277.49 675.75C1278.66 675.083 1279.08 672.583 1278.74 668.25C1278.58 666.75 1278.16 665.833 1277.49 665.5C1276.99 665.167 1276.49 664.583 1275.99 663.75L1240.74 616.75C1240.24 616.25 1239.83 615.75 1239.49 615.25C1238.83 614.417 1238.16 612.917 1237.49 610.75C1236.83 608.583 1235.83 606.333 1234.49 604C1233.33 601.5 1231.33 599.333 1228.49 597.5L1226.99 583.5C1226.49 581 1223.83 580.417 1218.99 581.75C1218.16 582.417 1217.66 583.083 1217.49 583.75C1217.33 584.417 1217.24 585.083 1217.24 585.75C1217.41 586.417 1217.58 587.083 1217.74 587.75C1217.91 588.417 1217.91 589 1217.74 589.5C1217.58 590.167 1217.41 590.75 1217.24 591.25C1217.08 591.583 1216.91 592.167 1216.74 593C1216.74 593.833 1216.66 595.083 1216.49 596.75C1216.33 598.25 1216.16 600.5 1215.99 603.5C1215.83 606.5 1215.58 609.583 1215.24 612.75C1215.08 615.75 1214.91 618.667 1214.74 621.5C1214.74 624.167 1214.91 626.5 1215.24 628.5C1215.74 630.5 1216.49 631.833 1217.49 632.5C1217.49 634.5 1216.74 642.75 1215.24 657.25C1214.74 662.583 1214.33 667.083 1213.99 670.75C1213.83 674.25 1213.66 677.083 1213.49 679.25L1210.24 683.25C1208.08 683.583 1205.24 683.917 1201.74 684.25C1198.41 684.583 1194.99 684.917 1191.49 685.25C1188.16 685.583 1184.99 685.833 1181.99 686C1179.16 686.167 1177.16 686.25 1175.99 686.25C1174.99 686.25 1173.91 685.917 1172.74 685.25C1171.58 684.583 1170.58 683.333 1169.74 681.5C1170.74 680.167 1171.33 679.583 1171.49 679.75C1171.66 679.75 1171.41 679.75 1170.74 679.75V652.25L1173.99 646.75L1170.24 637.5L1170.74 630.5C1170.74 629.667 1170.91 628.333 1171.24 626.5C1171.58 624.5 1171.91 622.333 1172.24 620C1172.58 617.667 1172.83 615.333 1172.99 613C1173.33 610.5 1173.41 608.25 1173.24 606.25C1172.91 602.417 1172.66 599.5 1172.49 597.5C1172.33 595.333 1172.24 594.083 1172.24 593.75C1172.24 593.083 1172.66 591.917 1173.49 590.25C1174.49 588.417 1175.33 586.917 1175.99 585.75C1176.49 584.917 1176.66 584.083 1176.49 583.25C1176.33 582.25 1176.33 581.417 1176.49 580.75C1176.83 580.083 1177.24 579.583 1177.74 579.25C1178.24 578.75 1178.33 578.917 1177.99 579.75C1178.99 580.25 1179.16 579 1178.49 576C1177.99 573 1177.66 569.333 1177.49 565L1177.24 551.75C1177.08 550.917 1176.91 550.167 1176.74 549.5C1176.74 548.833 1176.33 547.833 1175.49 546.5C1177.83 545.333 1179.16 544.25 1179.49 543.25C1179.83 542.25 1179.99 540.75 1179.99 538.75C1181.33 538.25 1183.41 537.917 1186.24 537.75C1189.24 537.417 1192.41 537.167 1195.74 537C1199.08 536.667 1202.33 536.333 1205.49 536C1208.66 535.5 1211.24 534.917 1213.24 534.25L1218.49 538.25Z" fill="white"/>
<defs>
<clipPath id="clip0_1_295">
<rect width="1879" height="463" fill="white" transform="translate(27)"/>
</clipPath>
</defs>
</svg>
