<svg width="2866" height="980" viewBox="0 0 2866 980" fill="none" xmlns="http://www.w3.org/2000/svg">
<path d="M2644.51 238.649C2644.1 239.766 2642.27 240.173 2637.29 240.173C2632.11 240.173 2630.69 240.477 2630.69 241.696C2630.69 242.814 2629.57 243.22 2626.63 243.22C2624.39 243.22 2622.56 243.627 2622.56 244.236C2622.56 244.744 2620.53 245.252 2617.99 245.252C2614.64 245.252 2613.42 245.658 2613.42 246.776C2613.42 247.893 2612.3 248.3 2609.36 248.3C2606.41 248.3 2605.29 248.706 2605.29 249.823C2605.29 250.738 2604.38 251.347 2602.86 251.347C2601.53 251.347 2600.21 251.855 2600.01 252.465C2599.81 252.973 2597.78 253.785 2595.34 254.09C2593 254.395 2591.07 255.106 2591.07 255.512C2591.07 256.02 2590.36 256.427 2589.55 256.427C2588.73 256.427 2588.02 256.833 2588.02 257.442C2588.02 257.95 2586.91 258.662 2585.59 259.068C2584.16 259.373 2582.84 260.287 2582.54 261.1C2582.23 261.912 2581.12 262.522 2580 262.522C2578.98 262.522 2577.87 263.233 2577.46 264.046C2577.15 264.858 2575.73 265.569 2574.31 265.569C2572.89 265.569 2571.77 265.976 2571.77 266.585C2571.77 267.093 2571.06 267.601 2570.25 267.601C2569.43 267.601 2568.72 268.312 2568.72 269.125C2568.72 269.938 2568.01 270.649 2567.2 270.649C2566.39 270.649 2565.67 271.055 2565.67 271.665C2565.67 272.173 2564.56 272.884 2563.13 273.29C2561.71 273.595 2560.6 274.509 2560.6 275.322C2560.6 276.135 2559.88 276.744 2559.07 276.744C2558.26 276.744 2557.55 277.15 2557.55 277.76C2557.55 278.268 2556.84 278.776 2556.02 278.776C2555.11 278.776 2554.5 279.69 2554.5 281.315C2554.5 282.941 2555.11 283.855 2556.02 283.855C2557.04 283.855 2557.55 284.871 2557.55 286.903C2557.55 288.935 2558.06 289.95 2559.07 289.95C2559.99 289.95 2560.6 290.966 2560.6 292.592C2560.6 294.014 2561.31 295.842 2562.12 296.655C2562.93 297.569 2563.64 299.296 2563.64 300.617C2563.64 301.836 2564.35 303.157 2565.17 303.563C2565.98 303.868 2566.69 305.29 2566.69 306.712C2566.69 308.135 2567.2 309.252 2567.71 309.252C2568.32 309.252 2568.72 310.573 2568.72 312.3C2568.72 314.331 2569.23 315.347 2570.25 315.347C2571.06 315.347 2571.77 315.754 2571.77 316.363C2571.77 318.496 2573.8 317.582 2578.37 313.519C2579.08 312.909 2580.2 312.3 2580.81 312.3C2581.42 312.3 2581.93 311.588 2581.93 310.776C2581.93 309.76 2582.94 309.252 2584.98 309.252C2587.01 309.252 2588.02 308.744 2588.02 307.728C2588.02 306.915 2588.73 306.204 2589.55 306.204C2590.36 306.204 2591.07 305.493 2591.07 304.681C2591.07 303.766 2591.99 303.157 2593.61 303.157C2595.03 303.157 2596.15 302.649 2596.15 302.141C2596.15 301.531 2597.57 301.125 2599.2 301.125C2601.23 301.125 2602.25 300.617 2602.25 299.601C2602.25 298.687 2603.16 298.077 2604.79 298.077C2606.41 298.077 2607.33 297.468 2607.33 296.554C2607.33 295.538 2608.34 295.03 2610.37 295.03C2612.4 295.03 2613.42 294.522 2613.42 293.506C2613.42 292.592 2614.33 291.982 2615.96 291.982C2617.38 291.982 2618.5 291.474 2618.5 290.966C2618.5 290.357 2620.53 289.95 2623.07 289.95C2626.42 289.95 2627.64 289.544 2627.64 288.427C2627.64 287.309 2628.86 286.903 2632.72 286.903C2636.58 286.903 2637.8 286.496 2637.8 285.379C2637.8 284.16 2639.43 283.855 2646.54 283.855C2652.94 283.855 2655.58 283.449 2656.7 282.331C2657.81 281.214 2660.56 280.808 2666.75 280.808C2672.95 280.808 2675.69 281.214 2676.81 282.331C2677.83 283.449 2680.57 283.855 2686.56 283.855C2692.86 283.855 2694.89 284.16 2695.3 285.379C2695.71 286.496 2697.43 286.903 2700.89 286.903C2704.65 286.903 2705.87 287.309 2705.87 288.427C2705.87 289.442 2706.88 289.95 2708.91 289.95C2710.64 289.95 2711.96 290.357 2711.96 290.966C2711.96 291.474 2712.98 291.982 2714.3 291.982C2715.52 291.982 2717.45 292.896 2718.36 294.115C2719.38 295.233 2720.9 295.944 2721.71 295.639C2722.53 295.335 2723.13 295.741 2723.13 296.554C2723.13 297.366 2723.85 298.077 2724.66 298.077C2725.47 298.077 2726.18 298.788 2726.18 299.601C2726.18 300.414 2726.69 301.125 2727.3 301.125C2728.72 301.125 2731.26 303.665 2731.26 305.087C2731.26 305.696 2731.97 306.204 2732.79 306.204C2733.6 306.204 2734.31 306.915 2734.31 307.728C2734.31 308.541 2735.02 309.252 2735.83 309.252C2736.65 309.252 2737.36 309.963 2737.36 310.776C2737.36 311.588 2738.07 312.3 2738.88 312.3C2739.8 312.3 2740.4 313.214 2740.4 314.839C2740.4 316.262 2740.91 317.379 2741.42 317.379C2742.03 317.379 2742.44 318.09 2742.44 318.903C2742.44 319.715 2743.15 320.427 2743.96 320.427C2744.98 320.427 2745.48 321.442 2745.48 323.474C2745.48 325.506 2745.99 326.522 2747.01 326.522C2748.13 326.522 2748.53 327.639 2748.53 330.585C2748.53 333.531 2748.94 334.649 2750.06 334.649C2751.27 334.649 2751.58 335.969 2751.58 340.236C2751.58 343.284 2752.09 345.823 2752.6 345.823C2753.2 345.823 2753.61 354.966 2753.61 371.22C2753.61 387.474 2753.2 396.617 2752.6 396.617C2752.09 396.617 2751.58 399.157 2751.58 402.204C2751.58 406.471 2751.27 407.792 2750.06 407.792C2748.94 407.792 2748.53 409.011 2748.53 412.363C2748.53 415.715 2748.13 416.935 2747.01 416.935C2745.89 416.935 2745.48 418.052 2745.48 420.998C2745.48 423.944 2745.08 425.062 2743.96 425.062C2743.05 425.062 2742.44 425.976 2742.44 427.601C2742.44 429.023 2742.03 430.141 2741.42 430.141C2740.91 430.141 2740.4 431.462 2740.4 433.188C2740.4 435.22 2739.9 436.236 2738.88 436.236C2737.87 436.236 2737.36 437.252 2737.36 439.284C2737.36 441.315 2736.85 442.331 2735.83 442.331C2734.92 442.331 2734.31 443.246 2734.31 444.871C2734.31 446.496 2733.7 447.411 2732.79 447.411C2731.87 447.411 2731.26 448.325 2731.26 449.95C2731.26 451.373 2730.86 452.49 2730.25 452.49C2729.74 452.49 2729.23 453.201 2729.23 454.014C2729.23 454.827 2728.52 455.538 2727.71 455.538C2726.69 455.538 2726.18 456.554 2726.18 458.585C2726.18 460.617 2725.67 461.633 2724.66 461.633C2723.85 461.633 2723.13 462.344 2723.13 463.157C2723.13 463.969 2722.42 464.681 2721.61 464.681C2720.7 464.681 2720.09 465.595 2720.09 466.814C2720.09 468.033 2718.97 470.065 2717.55 471.385C2716.13 472.706 2715.01 474.23 2715.01 474.839C2715.01 475.347 2714.3 475.855 2713.48 475.855C2712.57 475.855 2711.96 476.769 2711.96 478.395C2711.96 480.02 2711.35 480.935 2710.44 480.935C2709.62 480.935 2708.91 481.442 2708.91 482.052C2708.91 483.474 2703.33 489.062 2701.9 489.062C2701.29 489.062 2700.79 490.179 2700.79 491.601C2700.79 493.023 2700.07 494.446 2699.26 494.75C2698.45 495.157 2697.74 495.766 2697.74 496.376C2697.74 497.696 2695.1 500.236 2693.78 500.236C2693.17 500.236 2692.66 500.947 2692.66 501.76C2692.66 502.573 2691.95 503.284 2691.13 503.284C2690.32 503.284 2689.61 503.995 2689.61 504.808C2689.61 505.62 2688.9 506.331 2688.09 506.331C2687.27 506.331 2686.56 507.042 2686.56 507.855C2686.56 508.668 2685.85 509.379 2685.04 509.379C2684.13 509.379 2683.52 510.293 2683.52 511.919C2683.52 513.544 2682.91 514.458 2681.99 514.458C2681.18 514.458 2680.47 515.169 2680.47 515.982C2680.47 516.795 2680.06 517.506 2679.45 517.506C2678.94 517.506 2678.44 518.217 2678.44 519.03C2678.44 519.842 2677.73 520.554 2676.91 520.554C2676.1 520.554 2675.39 520.96 2675.39 521.569C2675.39 522.077 2674.68 522.585 2673.87 522.585C2673.05 522.585 2672.34 523.296 2672.34 524.109C2672.34 524.922 2671.93 525.633 2671.33 525.633C2670.82 525.633 2670.31 526.344 2670.31 527.157C2670.31 527.969 2669.6 528.681 2668.79 528.681C2667.97 528.681 2667.26 529.392 2667.26 530.204C2667.26 531.017 2666.55 531.728 2665.74 531.728C2664.93 531.728 2664.21 532.439 2664.21 533.252C2664.21 534.065 2663.71 534.776 2663.1 534.776C2661.67 534.776 2659.13 537.315 2659.13 538.738C2659.13 539.347 2658.42 539.855 2657.61 539.855C2656.8 539.855 2656.09 540.566 2656.09 541.379C2656.09 542.192 2655.38 542.903 2654.56 542.903C2653.75 542.903 2653.04 543.614 2653.04 544.427C2653.04 545.239 2652.53 545.95 2651.92 545.95C2650.5 545.95 2647.96 548.49 2647.96 549.912C2647.96 550.522 2647.25 551.03 2646.44 551.03C2645.62 551.03 2644.91 551.741 2644.91 552.554C2644.91 553.366 2644.2 554.077 2643.39 554.077C2642.58 554.077 2641.87 554.788 2641.87 555.601C2641.87 556.414 2641.36 557.125 2640.75 557.125C2639.33 557.125 2636.79 559.665 2636.79 561.087C2636.79 561.696 2636.07 562.204 2635.26 562.204C2634.45 562.204 2633.74 562.915 2633.74 563.728C2633.74 564.541 2633.03 565.252 2632.21 565.252C2631.4 565.252 2630.69 565.963 2630.69 566.776C2630.69 567.588 2630.18 568.3 2629.57 568.3C2628.15 568.3 2625.61 570.839 2625.61 572.262C2625.61 572.871 2624.9 573.379 2624.09 573.379C2623.27 573.379 2622.56 574.09 2622.56 574.903C2622.56 575.715 2621.85 576.427 2621.04 576.427C2620.23 576.427 2619.52 577.138 2619.52 577.95C2619.52 578.763 2618.8 579.474 2617.99 579.474C2617.18 579.474 2616.47 579.881 2616.47 580.49C2616.47 580.998 2615.76 581.506 2614.94 581.506C2614.13 581.506 2613.42 582.217 2613.42 583.03C2613.42 583.842 2613.01 584.554 2612.4 584.554C2611.9 584.554 2611.39 585.265 2611.39 586.077C2611.39 586.89 2610.68 587.601 2609.87 587.601C2609.05 587.601 2608.34 588.312 2608.34 589.125C2608.34 589.938 2607.63 590.649 2606.82 590.649C2606 590.649 2605.29 591.36 2605.29 592.173C2605.29 592.985 2604.79 593.696 2604.18 593.696C2602.75 593.696 2600.21 596.236 2600.21 597.658C2600.21 598.268 2599.5 598.776 2598.69 598.776C2597.88 598.776 2597.17 599.487 2597.17 600.3C2597.17 601.112 2596.46 601.823 2595.64 601.823C2594.83 601.823 2594.12 602.535 2594.12 603.347C2594.12 604.16 2593.61 604.871 2593 604.871C2591.58 604.871 2589.04 607.411 2589.04 608.833C2589.04 609.442 2588.33 609.95 2587.52 609.95C2586.7 609.95 2585.99 610.662 2585.99 611.474C2585.99 612.287 2585.28 612.998 2584.47 612.998C2583.66 612.998 2582.94 613.404 2582.94 614.014C2582.94 614.522 2582.23 615.03 2581.42 615.03C2580.61 615.03 2579.9 615.538 2579.9 616.147C2579.9 617.569 2571.26 626.204 2569.84 626.204C2569.23 626.204 2568.72 626.915 2568.72 627.728C2568.72 628.642 2567.81 629.252 2566.18 629.252C2564.56 629.252 2563.64 629.862 2563.64 630.776C2563.64 631.588 2562.93 632.3 2562.12 632.3C2561.31 632.3 2560.6 633.011 2560.6 633.823C2560.6 634.636 2559.88 635.347 2559.07 635.347C2558.26 635.347 2557.55 636.058 2557.55 636.871C2557.55 637.684 2557.04 638.395 2556.43 638.395C2555.01 638.395 2552.47 640.935 2552.47 642.357C2552.47 642.966 2551.76 643.474 2550.94 643.474C2550.13 643.474 2549.42 644.185 2549.42 644.998C2549.42 645.811 2548.71 646.522 2547.9 646.522C2547.08 646.522 2546.37 647.233 2546.37 648.046C2546.37 648.858 2545.87 649.569 2545.26 649.569C2541.9 649.569 2541.29 652.414 2541.29 668.769V685.125H2682.5H2823.71V662.776V640.427H2724.15H2624.6V637.785C2624.6 635.144 2629.47 629.252 2631.6 629.252C2632.21 629.252 2632.72 628.541 2632.72 627.728C2632.72 626.915 2633.43 626.204 2634.25 626.204C2635.06 626.204 2635.77 625.493 2635.77 624.681C2635.77 623.868 2636.48 623.157 2637.29 623.157C2638.11 623.157 2638.82 622.649 2638.82 622.039C2638.82 620.617 2641.36 618.077 2642.78 618.077C2643.39 618.077 2643.9 617.366 2643.9 616.554C2643.9 615.741 2644.61 615.03 2645.42 615.03C2646.23 615.03 2646.94 614.319 2646.94 613.506C2646.94 612.693 2647.45 611.982 2648.06 611.982C2649.48 611.982 2652.02 609.442 2652.02 608.02C2652.02 607.411 2652.63 606.903 2653.45 606.903C2654.16 606.903 2655.78 605.481 2657.1 603.855C2658.42 602.128 2660.25 600.808 2661.27 600.808C2662.39 600.808 2663.2 600.096 2663.2 599.284C2663.2 598.471 2663.91 597.76 2664.72 597.76C2665.53 597.76 2666.25 597.049 2666.25 596.236C2666.25 595.423 2666.96 594.712 2667.77 594.712C2668.58 594.712 2669.29 594.204 2669.29 593.696C2669.29 593.087 2670 592.681 2670.82 592.681C2671.63 592.681 2672.34 591.969 2672.34 591.157C2672.34 590.344 2672.85 589.633 2673.36 589.633C2673.97 589.633 2674.37 588.922 2674.37 588.109C2674.37 587.296 2675.08 586.585 2675.9 586.585C2676.71 586.585 2677.42 585.874 2677.42 585.062C2677.42 584.249 2678.13 583.538 2678.94 583.538C2679.76 583.538 2680.47 583.03 2680.47 582.522C2680.47 581.912 2681.18 581.506 2681.99 581.506C2682.8 581.506 2683.52 580.795 2683.52 579.982C2683.52 579.169 2684.02 578.458 2684.53 578.458C2685.14 578.458 2685.55 577.747 2685.55 576.935C2685.55 576.122 2686.26 575.411 2687.07 575.411C2687.88 575.411 2688.6 574.7 2688.6 573.887C2688.6 573.074 2689.31 572.363 2690.12 572.363C2690.93 572.363 2691.64 571.855 2691.64 571.347C2691.64 570.738 2692.35 570.331 2693.17 570.331C2693.98 570.331 2694.69 569.62 2694.69 568.808C2694.69 567.995 2695.2 567.284 2695.71 567.284C2696.32 567.284 2696.72 566.573 2696.72 565.76C2696.72 564.947 2697.43 564.236 2698.25 564.236C2699.06 564.236 2699.77 563.525 2699.77 562.712C2699.77 561.9 2700.48 561.188 2701.29 561.188C2702.11 561.188 2702.82 560.681 2702.82 560.173C2702.82 559.563 2703.53 559.157 2704.34 559.157C2705.15 559.157 2705.87 558.446 2705.87 557.633C2705.87 556.82 2706.37 556.109 2706.88 556.109C2707.49 556.109 2707.9 555.398 2707.9 554.585C2707.9 553.773 2708.61 553.062 2709.42 553.062C2710.23 553.062 2710.94 552.35 2710.94 551.538C2710.94 550.725 2711.66 550.014 2712.47 550.014C2713.28 550.014 2713.99 549.303 2713.99 548.388C2713.99 547.474 2716.53 544.325 2719.58 541.379C2722.63 538.535 2725.17 535.588 2725.17 534.877C2725.17 534.268 2725.88 533.76 2726.69 533.76C2727.5 533.76 2728.21 533.049 2728.21 532.236C2728.21 531.423 2728.93 530.712 2729.74 530.712C2730.55 530.712 2731.26 530.001 2731.26 529.188C2731.26 528.376 2731.77 527.665 2732.28 527.665C2732.89 527.665 2733.29 526.954 2733.29 526.141C2733.29 525.328 2734 524.617 2734.82 524.617C2735.63 524.617 2736.34 524.109 2736.34 523.601C2736.34 522.992 2737.05 522.585 2737.87 522.585C2738.68 522.585 2739.39 521.874 2739.39 521.062C2739.39 520.249 2740.1 519.538 2740.91 519.538C2741.83 519.538 2742.44 518.623 2742.44 516.998C2742.44 515.576 2742.94 514.458 2743.45 514.458C2744.06 514.458 2744.47 513.747 2744.47 512.935C2744.47 512.122 2745.18 511.411 2745.99 511.411C2746.8 511.411 2747.52 510.7 2747.52 509.887C2747.52 509.074 2748.23 508.363 2749.04 508.363C2749.85 508.363 2750.56 507.652 2750.56 506.839C2750.56 506.027 2751.27 505.315 2752.09 505.315C2752.9 505.315 2753.61 504.604 2753.61 503.792C2753.61 502.979 2754.02 502.268 2754.63 502.268C2755.13 502.268 2755.85 501.15 2756.25 499.728C2756.56 498.306 2757.27 497.188 2757.78 497.188C2758.28 497.188 2758.69 496.477 2758.69 495.665C2758.69 494.852 2759.4 494.141 2760.21 494.141C2761.03 494.141 2761.74 493.43 2761.74 492.617C2761.74 491.804 2762.45 491.093 2763.26 491.093C2764.18 491.093 2764.79 490.179 2764.79 488.554C2764.79 487.131 2765.29 486.014 2765.8 486.014C2766.41 486.014 2766.82 485.303 2766.82 484.49C2766.82 483.677 2767.43 482.966 2768.24 482.966C2769.05 482.966 2769.97 481.849 2770.27 480.427C2770.68 479.004 2771.39 477.887 2771.9 477.887C2772.51 477.887 2772.91 477.176 2772.91 476.363C2772.91 475.55 2773.52 474.839 2774.23 474.839C2775.05 474.839 2776.27 473.011 2776.98 470.674C2777.79 468.338 2779.01 466.306 2779.72 466.001C2780.43 465.696 2781.04 464.579 2781.04 463.563C2781.04 462.446 2781.75 461.328 2782.56 461.023C2783.38 460.617 2784.09 459.804 2784.09 458.992C2784.09 458.179 2784.8 457.569 2785.61 457.569C2786.53 457.569 2787.13 456.655 2787.13 455.03C2787.13 453.404 2787.74 452.49 2788.66 452.49C2789.67 452.49 2790.18 451.474 2790.18 449.442C2790.18 447.715 2790.69 446.395 2791.2 446.395C2791.81 446.395 2792.21 445.277 2792.21 443.855C2792.21 442.23 2792.82 441.315 2793.74 441.315C2794.75 441.315 2795.26 440.3 2795.26 438.268C2795.26 436.236 2795.77 435.22 2796.79 435.22C2797.9 435.22 2798.31 434.103 2798.31 431.157C2798.31 428.211 2798.72 427.093 2799.83 427.093C2800.95 427.093 2801.36 425.976 2801.36 423.03C2801.36 420.795 2801.87 418.966 2802.37 418.966C2802.98 418.966 2803.39 417.646 2803.39 416.02C2803.39 414.395 2804.1 412.363 2804.91 411.449C2805.73 410.636 2806.44 408.198 2806.44 405.862C2806.44 402.814 2806.84 401.696 2807.96 401.696C2809.18 401.696 2809.48 400.071 2809.48 393.569C2809.48 387.068 2809.79 385.442 2811.01 385.442C2812.33 385.442 2812.53 382.395 2812.53 364.008C2812.53 345.315 2812.33 342.674 2811.01 343.182C2809.69 343.588 2809.48 342.369 2809.48 335.157C2809.48 328.147 2809.18 326.522 2807.96 326.522C2806.84 326.522 2806.44 325.404 2806.44 322.56C2806.44 320.02 2805.93 318.395 2804.91 317.988C2804 317.684 2803.39 316.058 2803.39 313.823C2803.39 311.893 2802.98 310.268 2802.37 310.268C2801.87 310.268 2801.36 308.846 2801.36 307.22C2801.36 305.188 2800.85 304.173 2799.83 304.173C2798.92 304.173 2798.31 303.258 2798.31 301.633C2798.31 300.008 2797.7 299.093 2796.79 299.093C2795.77 299.093 2795.26 298.077 2795.26 296.046C2795.26 294.014 2794.75 292.998 2793.74 292.998C2792.93 292.998 2792.21 292.287 2792.21 291.474C2792.21 290.662 2791.81 289.95 2791.2 289.95C2790.69 289.95 2790.18 288.833 2790.18 287.411C2790.18 285.785 2789.57 284.871 2788.66 284.871C2787.85 284.871 2787.13 284.16 2787.13 283.347C2787.13 282.535 2786.42 281.823 2785.61 281.823C2784.8 281.823 2784.09 281.112 2784.09 280.3C2784.09 279.487 2783.38 278.776 2782.56 278.776C2781.75 278.776 2781.04 278.268 2781.04 277.658C2781.04 276.236 2775.45 270.649 2774.03 270.649C2773.42 270.649 2772.91 269.938 2772.91 269.125C2772.91 268.312 2772.4 267.601 2771.8 267.601C2770.37 267.601 2764.79 262.014 2764.79 260.592C2764.79 259.982 2763.67 259.474 2762.25 259.474C2760.82 259.474 2759.4 258.763 2759.1 257.95C2758.69 257.138 2757.88 256.427 2757.07 256.427C2756.25 256.427 2755.64 255.919 2755.64 255.411C2755.64 254.801 2754.53 254.395 2753.1 254.395C2751.48 254.395 2750.56 253.785 2750.56 252.871C2750.56 251.957 2749.65 251.347 2748.02 251.347C2746.6 251.347 2745.18 250.636 2744.87 249.823C2744.47 249.011 2743.15 248.3 2741.83 248.3C2740.3 248.3 2739.39 247.69 2739.39 246.776C2739.39 245.658 2738.27 245.252 2735.33 245.252C2733.09 245.252 2731.26 244.744 2731.26 244.236C2731.26 243.627 2729.43 243.22 2727.2 243.22C2724.46 243.22 2722.83 242.712 2722.53 241.696C2722.02 240.579 2720.39 240.173 2716.43 240.173C2712.27 240.173 2710.94 239.766 2710.94 238.649C2710.94 237.328 2706.58 237.125 2678.03 237.125C2649.69 237.125 2645.01 237.328 2644.51 238.649Z" fill="white" stroke="white" style="fill:white;fill-opacity:1;stroke:white;stroke-opacity:1;" stroke-width="12" stroke-miterlimit="1.41421"/>
<path d="M2579.29 718.75C2579.29 719.417 2579.96 720.083 2580.63 720.083C2581.43 720.083 2581.96 719.417 2581.96 718.75C2581.96 717.95 2581.43 717.417 2580.63 717.417C2579.96 717.417 2579.29 717.95 2579.29 718.75Z" fill="black" style="fill:black;fill-opacity:1;"/>
<path fill-rule="evenodd" clip-rule="evenodd" d="M542.226 682.608V246.72H469.777L470.97 527.022L136.039 250.287L137.219 687.368H200.175V404.692L542.226 682.608ZM588.554 689.728L644.376 594.712H593.301V528.216H677.631L830.842 250.287L1075.52 689.728H988.814L938.933 594.712H721.585L669.33 689.728H588.554ZM751.273 527.022H908.052L829.662 383.305L751.273 527.022ZM1695.51 689.728H1624.26V251.467L1866.54 532.95L2111.2 245.54V689.728H2035.18L2034.01 451.007L1865.35 654.113L1695.51 452.187V689.728ZM2248.98 689.728L2250.16 240.78H2322.61L2321.43 689.728H2248.98Z" fill="white" style="fill:white;fill-opacity:1;"/>
<path fill-rule="evenodd" clip-rule="evenodd" d="M1073.14 474.767C1073.14 342.93 1180.04 236.033 1311.89 236.033C1443.72 236.033 1550.61 342.93 1550.61 474.767C1550.61 606.592 1443.72 713.489 1311.89 713.489C1180.04 713.489 1073.14 606.592 1073.14 474.767ZM1311.89 642.233C1404.53 642.233 1479.33 567.397 1479.33 474.767C1479.33 383.318 1404.52 308.482 1311.89 308.482C1220.43 308.482 1145.59 383.318 1145.59 474.767C1145.59 567.397 1220.42 642.233 1311.89 642.233Z" fill="white" style="fill:white;fill-opacity:1;"/>
</svg>
