<svg width="2387" height="786" viewBox="0 0 2387 786" fill="none" xmlns="http://www.w3.org/2000/svg">
<path fill-rule="evenodd" clip-rule="evenodd" d="M499.933 585.608V149.72H427.483L428.677 430.022L93.7455 153.287L94.9257 590.368H157.881V307.692L499.933 585.608ZM546.261 592.728L602.082 497.712H551.008V431.216H635.337L788.549 153.287L1033.22 592.728H946.521L896.639 497.712H679.292L627.036 592.728H546.261ZM708.979 430.022H865.758L787.369 286.305L708.979 430.022ZM1653.22 592.728H1581.96V154.467L1824.25 435.95L2068.91 148.54V592.728H1992.88L1991.71 354.007L1823.06 557.113L1653.22 355.187V592.728ZM2206.69 592.728L2207.87 143.78H2280.32L2279.14 592.728H2206.69Z" fill="white" style="fill:white;fill-opacity:1;"/>
<path fill-rule="evenodd" clip-rule="evenodd" d="M1030.85 377.767C1030.85 245.93 1137.75 139.033 1269.6 139.033C1401.42 139.033 1508.32 245.93 1508.32 377.767C1508.32 509.592 1401.42 616.489 1269.6 616.489C1137.75 616.489 1030.85 509.592 1030.85 377.767ZM1269.6 545.233C1362.24 545.233 1437.04 470.397 1437.04 377.767C1437.04 286.318 1362.23 211.482 1269.6 211.482C1178.13 211.482 1103.3 286.318 1103.3 377.767C1103.3 470.397 1178.12 545.233 1269.6 545.233Z" fill="white" style="fill:white;fill-opacity:1;"/>
</svg>
