<svg width="1653" height="1057" viewBox="0 0 1653 1057" fill="none" xmlns="http://www.w3.org/2000/svg">
<g clip-path="url(#clip0_1_237)">
<path d="M1374.24 844.273C1355.18 844.273 1336.94 849.092 1320.01 858.599C1303.02 868.147 1289.35 881.748 1279.37 899.021C1269.39 916.267 1264.33 934.809 1264.33 954.101C1264.33 972.432 1268.9 989.943 1277.92 1006.16C1287.03 1022.55 1300.17 1035.3 1316.95 1044.04C1333.45 1052.64 1352.5 1057 1373.55 1057C1389.69 1057 1404.09 1054.28 1416.36 1048.91C1428.59 1043.55 1440.44 1034.88 1451.59 1023.13L1453.83 1020.74V979.19L1439.58 995.918C1429.51 1007.73 1419.97 1016.08 1411.2 1020.74C1402.7 1025.27 1393.17 1027.56 1382.88 1027.56C1370.55 1027.56 1360.52 1024.58 1353.09 1018.7C1345.51 1012.73 1339.81 1003.55 1336.12 991.447C1332.18 978.502 1330.19 963.872 1330.19 947.951C1330.19 932.041 1332.87 917.452 1338.19 904.568C1342.09 895.061 1348.09 887.583 1356.53 881.704C1364.9 875.882 1373.82 873.046 1383.82 873.046C1395.88 873.046 1406.38 876.886 1415.93 884.801C1425.43 892.658 1432.06 904.34 1435.64 919.511L1437.12 925.796H1456.91V865.323H1463.71C1468.32 865.323 1470.75 866.188 1471.98 866.917C1474.02 868.135 1474.55 869.058 1474.67 869.34C1474.82 869.838 1475.58 877.311 1475.58 888.796V1012.48C1475.58 1022.77 1475.1 1026.09 1474.91 1026.99C1474.34 1028.18 1473.36 1029.25 1471.94 1030.1C1471.04 1030.65 1468.79 1031.56 1463.71 1031.56H1449.44V1052.79H1540.8C1553.41 1052.79 1562.53 1052.19 1568.7 1050.98C1581.94 1048.45 1593.42 1044.78 1602.77 1040.07C1612.33 1035.27 1620.88 1028.81 1628.19 1020.87C1635.55 1012.87 1641.6 1002.7 1646.15 990.625C1650.7 978.616 1653 963.463 1653 949.304C1653 928.825 1648.34 910.164 1639.11 893.827C1629.73 877.207 1615.82 862.12 1597.74 853.944C1583.21 847.392 1564.05 844.287 1540.8 844.287L1456.91 844.274H1436.46L1435.5 851.338C1434.95 855.326 1433.92 856.634 1433.62 856.943C1432.94 857.621 1432.43 857.776 1431.81 857.793C1431.35 857.741 1428.53 857.281 1418.62 853.386C1403.19 847.337 1388.26 844.273 1374.24 844.273ZM1457.55 852.258H1540.8C1563.02 852.258 1580.9 855.31 1594.42 861.405C1610.97 868.887 1623.52 882.725 1632.07 897.88C1640.62 913.035 1644.89 930.17 1644.89 949.297C1644.89 962.51 1642.8 976.563 1638.59 987.699C1634.38 998.836 1628.94 1008.03 1622.26 1015.29C1615.58 1022.54 1607.88 1028.37 1599.15 1032.75C1590.42 1037.14 1579.74 1040.54 1567.13 1042.94C1561.54 1044.04 1552.77 1044.59 1540.8 1044.59H1457.55V1039.73H1463.71C1469.09 1039.73 1473.21 1038.87 1476.09 1037.14C1478.96 1035.41 1481.08 1033.06 1482.45 1030.08C1483.27 1028.12 1483.68 1022.25 1483.68 1012.47V888.79C1483.68 879.102 1483.18 868.649 1482.18 866.223C1481.18 863.797 1479.15 861.68 1476.09 859.86C1473.04 858.041 1468.9 857.133 1463.71 857.133H1457.55L1457.55 852.258ZM1374.24 852.449C1387.32 852.449 1401.13 855.302 1415.67 861.001C1424.1 864.311 1429.44 865.961 1431.73 865.961C1434.65 865.961 1437.2 864.887 1439.34 862.723C1441.5 860.56 1442.89 857.141 1443.53 852.449H1448.8V917.605H1443.53C1439.51 900.58 1432.02 887.531 1421.07 878.466C1410.11 869.396 1397.7 864.856 1383.82 864.856C1372.23 864.856 1361.6 868.222 1351.93 874.959C1342.25 881.702 1335.18 890.52 1330.7 901.416C1324.95 915.357 1322.07 930.867 1322.07 947.944C1322.07 964.749 1324.17 980.046 1328.37 993.85C1332.57 1007.65 1339.15 1018.08 1348.09 1025.14C1357.04 1032.21 1368.63 1035.73 1382.88 1035.73C1394.55 1035.73 1405.25 1033.15 1414.98 1027.98C1424.71 1022.8 1434.94 1013.9 1445.72 1001.25V1017.46C1435.29 1028.46 1424.43 1036.43 1413.13 1041.39C1401.84 1046.33 1388.65 1048.81 1373.55 1048.81C1353.7 1048.81 1336.07 1044.79 1320.66 1036.76C1305.25 1028.73 1293.36 1017.19 1284.99 1002.14C1276.62 987.092 1272.44 971.084 1272.44 954.094C1272.44 936.185 1277.07 919.195 1286.36 903.13C1295.65 887.07 1308.18 874.606 1323.95 865.741C1339.74 856.881 1356.49 852.449 1374.24 852.449ZM1528.5 862.688V1013.82C1528.5 1021.58 1528.86 1026.34 1529.59 1028.1C1530.32 1029.86 1531.55 1031.2 1533.29 1032.12C1535.75 1033.5 1539.31 1034.19 1543.96 1034.19C1559.19 1034.19 1570.81 1028.93 1578.85 1018.39C1589.79 1004.15 1595.26 980.172 1595.26 950.212C1595.26 926.078 1591.53 906.804 1584.05 892.389C1578.12 881.103 1570.5 870.912 1561.2 866.847C1554.63 863.985 1543.73 862.595 1528.5 862.688ZM1536.6 870.991C1548.64 871.424 1554.84 872.99 1557.97 874.357C1565.61 877.697 1571.8 886.54 1576.89 896.222C1583.69 909.357 1587.15 927.538 1587.15 950.212C1587.15 978.173 1582.21 1000.68 1572.44 1013.38C1565.95 1021.89 1556.64 1026.01 1543.95 1026.01C1539.43 1026.01 1537.65 1025.21 1537.22 1024.96C1537.17 1024.93 1537.15 1024.92 1537.11 1024.91C1536.97 1024.02 1536.6 1021.24 1536.6 1013.81L1536.6 870.991Z" fill="white"/>
<path d="M262.787 199.299L457.923 0L678.803 216.882L878.337 0H1185.4L1408.18 223.956V536.891L1203.21 747.286L1015.25 559.208L820.907 776.782H491.716L262.787 539.296V199.299Z" fill="black"/>
<path d="M290.528 528.102V210.636L458.29 39.291L672.122 249.776V401.116L861.614 403.725L996.345 541.149L808.591 749.024H503.49L290.528 528.102Z" fill="white"/>
<path d="M383.776 402.618V381.707L399.576 366.767L431.615 376.126V400.158L402.873 408.517L383.776 402.618Z" fill="black"/>
<path d="M530.675 330.046H565.402L583.932 295.8L562.329 260.241L530.982 253.783L507.933 303.907L530.675 330.046Z" fill="black"/>
<path d="M530.437 618.558L576.506 654.219H626.921L661.691 650.74L712.106 605.512L732.099 561.153L729.491 471.567L717.322 544.628L692.114 582.028L633.875 632.475H565.206L530.437 618.558Z" fill="black"/>
<path d="M1104.13 447.214L1108.48 505.488L1145.85 541.149L1225.82 539.409L1238.86 469.827L1292.75 459.39L1272.76 317.618L1183.23 329.795L1177.15 409.814L1152.81 437.646L1104.13 447.214Z" fill="white"/>
<path d="M896.383 278.478L940.714 322.836L996.345 310.659L1001.56 262.822L959.837 217.594L917.245 215.854L896.383 278.478Z" fill="white"/>
<path d="M1104.13 140.184L1103.26 180.194L1051.11 182.803L1029.38 163.668L1049.37 128.007H1087.62L1104.13 140.184Z" fill="white"/>
<path d="M777.288 963.373H782.145C786.675 963.373 794.436 964.306 797.63 966.183C800.827 968.043 802.931 970.13 803.947 972.439C804.967 974.752 805.482 979.846 805.482 987.713V1018.6C805.482 1027.92 795.639 1032.67 790.894 1033.7C786.136 1034.73 781.509 1035.25 776.996 1035.25C763.999 1035.25 752.784 1031.86 743.323 1025.09C733.875 1018.32 727.031 1007.73 722.782 993.288C718.542 978.867 716.432 962.099 716.432 942.948C716.432 927.15 718.369 911.742 722.247 896.732C726.126 881.715 732.731 870.018 742.053 861.619C751.376 853.233 763.061 849.035 777.094 849.035C791.785 849.035 800.371 852.755 811.184 863.999C822.237 875.487 832.843 888.542 839.033 907.71H848.072V837.334H842.931C841.076 842.971 839.05 846.796 836.836 848.82C834.615 850.848 832.21 851.857 829.631 851.857C827.967 851.857 822.577 850.025 813.487 846.362C804.391 842.694 797.808 840.467 793.747 839.682C786.267 838.121 780.455 837.333 771.137 837.333C741.035 837.333 716.039 847.684 696.183 868.388C676.326 889.108 666.398 914.47 666.398 944.491C666.398 961.271 669.625 976.431 676.091 989.972C681.172 1000.47 688.217 1009.91 697.216 1018.31C706.221 1026.69 716.622 1033.47 728.386 1038.63C740.161 1043.77 754.967 1046.35 772.787 1046.35C786.737 1046.35 800.186 1044.9 813.168 1042.02C826.15 1039.13 838.631 1034.85 850.662 1029.18V987.673C850.662 980.396 851.07 975.822 851.902 973.958C853.376 970.415 855.471 967.889 858.194 966.36C860.912 964.829 868.329 963.832 875.247 963.332V956.537H777.249V963.332L777.288 963.373Z" fill="white"/>
<path d="M1014.22 1017.14C1003.05 1025.7 988.185 1029.97 969.647 1029.97H959.078C953.416 1029.97 949.326 1029.2 946.785 1027.64C944.254 1026.08 942.515 1024.09 941.592 1021.65C940.666 1019.22 940.199 1012.56 940.199 1001.67V945.918C949.72 945.918 960.873 947.158 965.879 949.65C970.874 952.129 975.268 956.981 979.037 964.194C982.825 971.407 985.301 979.37 986.478 990.675H994.514V888.075H986.478C984.908 903.491 981.28 913.838 975.583 921.735C969.897 929.634 960.718 933.583 948.068 933.583H940.197V864.76C940.132 852.799 950.788 854.185 950.788 854.185H963.239C978.298 854.185 988.552 855.064 994.025 856.821C1003.41 859.739 1010.66 864.321 1015.8 870.547C1020.94 876.785 1024.91 887.053 1027.75 901.369H1034.49V842.764H866.958V850.792H872.243C878.677 850.792 883.756 852.153 887.455 854.872C890.092 856.722 891.901 859.359 892.872 862.762C893.361 864.797 893.608 870.298 893.608 879.251V1003.24C893.608 1013.16 893.073 1019.29 891.996 1021.64C890.63 1024.94 888.677 1027.28 886.144 1028.64C882.627 1030.69 877.995 1031.71 872.243 1031.71H866.959V1041.03H1037.32L1047.56 977.987H1038.21C1033.33 995.535 1025.3 1008.59 1014.13 1017.14" fill="white"/>
<path d="M1149.54 839.652C1120.99 838.473 1096.92 847.785 1077.38 867.602C1057.81 887.404 1048.05 912.165 1048.05 941.851C1048.05 968.298 1055.56 991.156 1070.61 1010.42C1089.63 1034.8 1116.56 1047.01 1151.4 1047.01C1186.13 1047.01 1213.03 1034.22 1232.07 1008.65C1246.43 989.403 1253.62 967.08 1253.62 941.701C1253.62 912.014 1243.98 887.287 1224.72 867.518C1205.45 847.75 1180.4 838.466 1149.57 839.652M1195.11 998.335C1190.45 1012.14 1183.93 1022.19 1175.55 1028.47C1168.98 1033.39 1160.8 1035.84 1150.99 1035.84C1136.42 1035.84 1125.11 1030.14 1117 1018.75C1105.39 1002.44 1099.58 977.239 1099.58 943.128C1099.58 914.427 1103.33 892.421 1110.85 877.094C1120.08 858.427 1133.55 849.094 1151.25 849.094C1160.86 849.094 1169.36 851.8 1176.73 857.205C1184.11 862.608 1190.17 871.873 1194.94 884.988C1199.69 898.113 1202.07 917.88 1202.07 944.327C1202.07 966.533 1199.74 984.549 1195.08 998.357" fill="white"/>
<path d="M500.633 1045.85C535.356 1045.85 562.255 1033.07 581.293 1007.5C595.66 988.234 602.852 965.928 602.852 940.549C602.852 910.863 593.211 886.135 573.952 866.366C554.679 846.598 529.633 837.315 498.797 838.5C470.247 837.322 446.186 846.633 426.646 866.45C407.073 886.252 397.312 911.013 397.312 940.699C397.312 967.146 404.826 990.004 419.872 1009.27C438.894 1033.65 465.825 1045.85 500.666 1045.85M459.785 876.05C469.014 857.384 482.478 848.05 500.182 848.05C509.793 848.05 518.286 850.752 525.662 856.158C533.037 861.563 539.103 870.828 543.866 883.941C548.624 897.066 551.005 916.833 551.005 943.264C551.005 965.47 548.675 983.485 544.007 997.294C539.348 1011.1 532.827 1021.15 524.45 1027.45C517.886 1032.36 509.698 1034.82 499.888 1034.82C485.325 1034.82 474.008 1029.12 465.899 1017.72C454.292 1001.41 448.478 976.213 448.478 942.102C448.478 913.4 452.234 891.394 459.755 876.067" fill="white"/>
<path d="M394.183 976.396H384.83C379.953 993.944 371.922 1007 360.752 1015.55C349.582 1024.11 334.722 1028.38 316.2 1028.38H305.631C299.971 1028.38 295.883 1027.61 293.338 1026.05C290.805 1024.49 289.07 1022.5 288.142 1020.07C287.218 1017.63 286.751 1010.97 286.751 1000.08V944.331C296.27 944.331 307.425 945.57 312.431 948.064C317.431 950.542 321.823 955.394 325.594 962.606C329.377 969.819 331.857 977.782 333.035 989.087H341.071V886.487H333.035C331.459 901.897 327.83 912.25 322.137 920.147C316.455 928.047 307.273 931.994 294.622 931.994H286.746V863.171C286.681 851.208 297.345 852.595 297.345 852.595H309.786C324.848 852.595 335.115 853.474 340.589 855.23C349.976 858.147 357.233 862.728 362.364 868.956C367.498 875.192 371.48 885.467 374.316 899.778H381.051V841.123H213.522V849.202H218.801C225.239 849.202 230.313 850.566 234.021 853.283C236.654 855.131 238.458 857.766 239.429 861.17C239.921 863.207 240.169 868.706 240.169 877.658V1001.65C240.169 1011.57 239.634 1017.7 238.557 1020.03C237.194 1023.33 235.234 1025.68 232.71 1027.03C229.192 1029.08 224.56 1030.1 218.8 1030.1H213.521V1039.43H383.886L394.128 976.381L394.183 976.396Z" fill="white"/>
<path d="M67.9745 1029.99H63.4525C56.9649 1029.99 51.2032 1028 46.1657 1024.01C41.1365 1020.03 38.6185 1012.35 38.6185 1000.97V881.226L168.253 1042.93L176.658 1042.94V878.014C176.658 868.637 177.436 865.915 178.983 862.057C180.529 858.198 182.692 855.413 185.453 853.704C188.217 851.996 193.64 850.605 201.702 849.528V841.136H137.394V849.528C147.996 849.334 155.565 852.067 160.054 857.734C163.341 861.933 164.983 866.096 164.983 878.02V964.391L64.0649 841.138H2.65984V847.796C8.49666 847.99 8.70359 849.949 11.8122 851.598L28.2614 868.163L28.238 1000.97C28.238 1011.47 26.1656 1018.9 22.0257 1023.27C17.8826 1027.65 10.5373 1029.88 0 1029.98V1038.01H67.9461V1029.98L67.9745 1029.99Z" fill="white"/>
<path d="M650.039 942.75C650.039 951.755 642.743 959.05 633.748 959.05C624.749 959.05 617.458 951.75 617.458 942.75C617.458 933.745 624.754 926.449 633.748 926.449C642.748 926.449 650.039 933.75 650.039 942.75Z" fill="white" stroke="white" stroke-width="0.0137882"/>
</g>
<defs>
<clipPath id="clip0_1_237">
<rect width="1653" height="1057" fill="white"/>
</clipPath>
</defs>
</svg>
