<svg width="2236" height="997" viewBox="0 0 2236 997" fill="none" xmlns="http://www.w3.org/2000/svg">
<path d="M1940.56 538.203H295.385C146.856 538.203 26 417.48 26 269.097C26 120.715 146.865 0 295.385 0H1940.54C2089.09 0 2209.93 120.715 2209.93 269.097C2209.91 417.48 2089.09 538.203 1940.56 538.203ZM295.385 63.6587C181.991 63.6587 89.7248 155.821 89.7248 269.114C89.7248 382.391 181.982 474.569 295.385 474.569H1940.54C2053.92 474.569 2146.2 382.399 2146.2 269.114C2146.2 155.829 2053.93 63.6587 1940.54 63.6587H295.385Z" fill="white"/>
<path d="M506.679 393.9V145.511H431.893V319.179L321.609 145.511H241.232V393.9H316.009V214.614L431.893 393.9H506.679Z" fill="white"/>
<path d="M628.188 393.9V225.817H553.419V393.9H628.188Z" fill="white"/>
<path d="M628.188 190.322V145.511H553.419V190.322H628.188Z" fill="white"/>
<path d="M889.896 393.9V278.091C889.896 253.816 843.155 220.208 818.866 220.208H796.423C779.604 220.208 760.908 235.15 744.081 242.621V225.817H669.304V393.9H744.081V278.091C744.081 266.888 770.248 253.816 781.474 253.816C792.692 253.816 813.249 266.888 813.249 278.091V393.891H889.896V393.9Z" fill="white"/>
<path d="M1515.55 399.683V283.891C1515.55 259.607 1468.83 225.999 1444.48 225.999H1422.07C1405.24 225.999 1386.54 240.942 1369.71 248.413V231.609H1294.95V399.691H1369.71V283.891C1369.71 272.688 1395.89 259.607 1407.11 259.607C1418.32 259.607 1438.87 272.688 1438.87 283.891V399.683H1515.55Z" fill="white"/>
<path d="M1011.41 393.9V225.817H1050.67V203.403H1011.41V167.925H934.784V203.403H895.513V225.817H934.784V393.9H1011.41Z" fill="white"/>
<path d="M1155.34 220.216C1095.53 220.216 1045.06 261.295 1045.06 311.716C1045.06 364.023 1095.53 405.102 1155.34 405.102C1207.69 405.102 1250.69 375.217 1261.9 336H1185.27V358.413C1185.27 377.087 1172.2 382.713 1155.38 382.713C1138.56 382.713 1127.33 377.096 1127.33 358.413V311.724H1265.68C1265.66 261.304 1217.05 220.216 1155.34 220.216ZM1155.34 237.02C1172.18 237.02 1185.26 248.231 1185.26 266.905V283.701H1127.31V266.905C1127.31 248.231 1138.53 237.02 1155.34 237.02Z" fill="white"/>
<path d="M1891.92 220.216C1830.22 220.216 1781.61 261.295 1781.61 311.716C1781.61 364.023 1830.2 405.102 1891.92 405.102C1951.71 405.102 2002.2 364.023 2002.2 311.716C2002.17 261.304 1951.71 220.216 1891.92 220.216ZM1891.92 237.02C1908.72 237.02 1919.95 248.231 1919.95 266.905V358.405C1919.95 377.079 1908.72 382.689 1891.92 382.689C1873.23 382.689 1861.99 377.079 1861.99 358.405V266.905C1861.97 248.231 1873.21 237.02 1891.92 237.02Z" fill="white"/>
<path d="M1676.91 145.511V237.02C1676.91 237.02 1654.47 220.216 1624.56 220.216C1577.82 220.216 1538.57 261.295 1538.57 306.114C1538.57 352.82 1577.84 399.509 1624.56 399.509C1654.47 399.509 1676.91 388.298 1676.91 388.298V393.891H1751.69V145.511H1676.91ZM1648.87 248.231C1665.69 248.231 1676.91 261.303 1676.91 278.099V347.202C1676.91 364.023 1665.69 369.616 1648.87 369.616C1630.19 369.616 1618.95 364.031 1618.95 347.202V278.099C1618.95 261.303 1630.19 248.231 1648.87 248.231Z" fill="white"/>
<path d="M246.824 693.949V633.584C246.824 622.141 235.374 610.69 223.917 610.69H136.416V693.949H163.501V637.762C163.501 633.6 166.62 629.438 170.789 629.438H212.451C216.62 629.438 220.79 633.6 220.79 637.762V693.949H246.824Z" fill="white"/>
<path d="M969.662 693.949V633.584C969.662 622.141 958.204 610.69 946.755 610.69H859.254V693.949H886.322V637.762C886.322 633.6 889.458 629.438 893.627 629.438H935.289C939.458 629.438 943.611 633.6 943.611 637.762V693.949H969.662Z" fill="white"/>
<path d="M1365.31 693.949V633.584C1365.31 622.141 1353.86 610.69 1342.4 610.69H1254.9V693.949H1281.97V637.762C1281.97 633.6 1285.09 629.438 1289.28 629.438H1330.93C1335.1 629.438 1339.26 633.6 1339.26 637.762V693.949H1365.31Z" fill="white"/>
<path d="M1129.12 693.949V633.584C1129.12 622.141 1117.66 610.69 1106.19 610.69H988.49V693.949H1015.58V637.762C1015.58 633.6 1018.69 629.438 1022.86 629.438H1038.48C1041.62 629.438 1045.78 633.6 1045.78 637.762V693.949H1072.87V637.762C1072.87 633.6 1075.98 629.438 1080.15 629.438H1095.78C1098.91 629.438 1103.08 633.6 1103.08 637.762V693.949H1129.12Z" fill="white"/>
<path d="M117.67 693.949H48.9155C37.466 693.949 26 686.668 26 675.226V609.672H117.67V629.447H56.2037C53.0849 629.447 48.9155 632.574 48.9155 636.736C48.9155 640.906 53.0849 644.025 56.2037 644.025H113.501V660.664H56.2037C53.0849 660.664 48.9155 664.834 48.9155 667.961C48.9155 672.123 53.0849 676.276 56.2037 676.276H117.67V693.949Z" fill="white"/>
<path d="M456.265 695H387.51C376.052 695 364.586 687.719 364.586 676.277V610.707H456.265V630.481H394.79C391.679 630.481 387.51 633.608 387.51 637.778C387.51 641.948 391.679 645.068 394.79 645.068H452.087V661.706H394.79C391.679 661.706 387.51 665.876 387.51 669.004C387.51 673.174 391.679 677.319 394.79 677.319H456.265V695Z" fill="white"/>
<path d="M1239.96 693.949H1171.2C1159.75 693.949 1148.28 686.668 1148.28 675.226V609.672H1239.96V629.447H1178.5C1175.37 629.447 1171.19 632.574 1171.19 636.736C1171.19 640.906 1175.36 644.025 1178.5 644.025H1235.77V660.664H1178.5C1175.37 660.664 1171.19 664.834 1171.19 667.961C1171.19 672.123 1175.36 676.276 1178.5 676.276H1239.96V693.966L1239.96 693.949Z" fill="white"/>
<path d="M258.29 610.698V629.438H285.375C292.663 629.438 292.663 629.438 292.663 637.762V693.949H318.706V637.762C318.706 629.438 318.706 629.438 327.036 629.438H353.079V610.698H258.29Z" fill="white"/>
<path d="M589.282 610.698V629.438H616.358C623.647 629.438 623.647 629.438 623.647 637.762V693.949H649.681V637.762C649.681 629.438 649.681 629.438 658.028 629.438H684.071V610.698H589.282Z" fill="white"/>
<path d="M1380.58 610.698V629.438H1407.66C1414.96 629.438 1414.96 629.438 1414.96 637.762V693.949H1440.99V637.762C1440.99 629.438 1440.99 629.438 1449.32 629.438H1475.36V610.698H1380.58Z" fill="white"/>
<path d="M474.953 610.698V693.966H502.038V679.404C502.038 675.242 505.165 671.064 509.326 671.064H543.699C547.877 671.064 550.996 675.234 550.996 679.404V693.966H573.911V671.064C573.911 667.953 570.792 663.791 570.792 659.621C570.792 656.51 578.089 649.229 578.089 640.906V633.617C578.089 626.319 566.631 610.707 559.334 610.707L474.953 610.698ZM509.326 629.438H543.699C547.877 629.438 550.987 633.6 550.987 637.762V645.043C550.987 649.205 547.868 652.332 543.699 652.332H509.326C505.165 652.332 502.038 649.213 502.038 645.043V637.762C502.046 633.608 505.165 629.438 509.326 629.438Z" fill="white"/>
<path d="M714.539 610.698C707.243 610.698 695.793 626.311 695.793 633.608V693.966H722.87V671.064H771.819V693.966H798.896V633.608C798.896 626.311 787.447 610.698 779.108 610.698H714.539ZM730.158 629.438H764.531C767.65 629.438 771.819 633.6 771.819 637.762V652.332H722.87V637.762C722.87 633.608 725.997 629.438 730.158 629.438Z" fill="white"/>
<path d="M843.693 693.949V610.69H817.667V693.958L843.693 693.949Z" fill="white"/>
<path d="M2210 693.842V633.484C2210 622.042 2198.54 610.582 2187.07 610.582H2069.37V693.842H2096.45V637.654C2096.45 633.484 2099.57 629.322 2103.74 629.322H2119.36C2122.49 629.322 2126.66 633.484 2126.66 637.654V693.833H2153.73V637.654C2153.73 633.484 2156.85 629.322 2161.02 629.322H2176.64C2179.77 629.322 2183.95 633.484 2183.95 637.654V693.833H2209.99L2210 693.842Z" fill="white"/>
<path d="M2050.73 693.842H1981.97C1970.51 693.842 1959.06 686.552 1959.06 675.126V609.556H2050.72V629.331H1989.27C1986.14 629.331 1981.97 632.45 1981.97 636.62C1981.97 640.782 1986.14 643.901 1989.27 643.901H2046.55V660.548H1989.27C1986.14 660.548 1981.97 664.718 1981.97 667.837C1981.97 672.007 1986.14 676.161 1989.27 676.161H2050.72L2050.73 693.842Z" fill="white"/>
<path d="M1852.75 610.582V629.306H1879.83C1887.12 629.306 1887.12 629.306 1887.12 637.638V693.817H1913.16V637.638C1913.16 629.306 1913.16 629.306 1921.51 629.306H1947.53V610.582H1852.75Z" fill="white"/>
<path d="M1544.24 611.021C1536.94 611.021 1521.31 622.472 1521.31 629.745V641.204C1521.31 648.485 1536.94 659.927 1544.24 659.927H1590.07C1594.24 659.927 1598.4 664.097 1598.4 667.217C1598.4 671.378 1594.23 675.532 1590.07 675.532H1521.31V694.256H1598.4C1605.69 694.256 1620.27 682.813 1620.27 675.532V664.089C1620.27 655.757 1605.69 644.307 1598.4 644.307H1552.57C1548.4 644.307 1544.24 641.187 1544.24 637.017C1544.24 632.856 1548.4 629.728 1552.57 629.728H1620.27V611.013L1544.24 611.021Z" fill="white"/>
<path d="M1764.89 611.021C1757.6 611.021 1741.97 622.472 1741.97 629.745V641.204C1741.97 648.485 1757.6 659.927 1764.89 659.927H1810.73C1814.89 659.927 1819.06 664.097 1819.06 667.217C1819.06 671.378 1814.89 675.532 1810.73 675.532H1741.97V694.256H1819.06C1826.34 694.256 1840.93 682.813 1840.93 675.532V664.089C1840.93 655.757 1826.34 644.307 1819.06 644.307H1773.22C1769.05 644.307 1764.89 641.187 1764.89 637.017C1764.89 632.856 1769.06 629.728 1773.22 629.728H1840.93V611.013L1764.89 611.021Z" fill="white"/>
<path d="M1628.61 611.021V648.501C1628.61 655.782 1640.06 667.225 1647.36 667.225H1666.09V694.272H1693.18V667.225H1711.93C1719.21 667.225 1730.68 655.782 1730.68 648.501V611.021H1704.64V641.212C1704.64 644.323 1700.47 648.501 1696.3 648.501H1662.97C1658.8 648.501 1654.64 644.331 1654.64 641.212V611.021H1628.61Z" fill="white"/>
<path d="M780.5 868.5L777.5 853.75L779.75 851.5H792.75C793.917 851.5 795.25 851.5 796.75 851.5C798.417 851.5 800.333 851.583 802.5 851.75L825.25 850C827.583 850 829.75 849.917 831.75 849.75C833.75 849.583 835.583 849.083 837.25 848.25C837.583 847.75 838.083 847.333 838.75 847C839.417 846.5 840.167 845.167 841 843L842 834.25C843.167 834.583 843.167 832.833 842 829C841.333 827.167 840.917 825.75 840.75 824.75C840.75 823.583 841.333 823 842.5 823C842.833 821.5 843.333 819.5 844 817C844.667 814.333 845.333 811.5 846 808.5C846.833 805.333 847.583 802.167 848.25 799C848.917 795.667 849.5 792.583 850 789.75L865.75 783.5C867.583 783.333 869.583 783.083 871.75 782.75C873.917 782.417 876.167 782.083 878.5 781.75C880.667 781.417 882.5 781.167 884 781C885.667 780.667 887.167 780.333 888.5 780L893.75 784.75V797.5C891.417 799.667 889.417 802 887.75 804.5C886.083 806.833 885.083 809.333 884.75 812L884 817C883.667 819.833 883.167 822.833 882.5 826C882 829.167 881.333 831.333 880.5 832.5L879.75 834.5L881 838.75C881.167 839.583 881.417 839.833 881.75 839.5C881.917 839.333 882.167 839.333 882.5 839.5C882 840.667 881.417 842 880.75 843.5C880.083 845 879.333 846.75 878.5 848.75C877.5 850.417 877 851.75 877 852.75C877 853.583 877.583 853.833 878.75 853.5C878.75 853.833 878.583 856.333 878.25 861C878.083 865.667 877.583 872.75 876.75 882.25C876.417 886.917 876.083 890.417 875.75 892.75C875.583 894.917 875.417 896.5 875.25 897.5C875.25 898.333 875.167 898.833 875 899C875 899.167 875 899.5 875 900C873.833 902.5 872.917 904.833 872.25 907C871.75 909.167 871.5 910.667 871.5 911.5C871.333 912 871.417 912.583 871.75 913.25C872.25 913.917 872.667 914.583 873 915.25C873.667 916.25 874.25 917 874.75 917.5L875.75 925.75L869.5 932.25L837.25 937.75H837L830.5 932C830.667 931.5 830.833 930.75 831 929.75C831.167 928.75 831.333 927.583 831.5 926.25C831.833 923.917 832 922.333 832 921.5C832.167 920.667 832.167 919.333 832 917.5C831.833 916.5 832.083 913.833 832.75 909.5C833.417 905 834 899.25 834.5 892.25C835.5 878.75 835.333 872 834 872C833.167 872 833 870.417 833.5 867.25C832.5 867.25 831.333 867.333 830 867.5C828.667 867.5 827.833 867.583 827.5 867.75C824.167 869.25 821 870.333 818 871C815.167 871.5 812.917 871.75 811.25 871.75C810.083 871.75 808 871.333 805 870.5C802 869.5 797.833 869.083 792.5 869.25L783 869.75L780.5 868.5ZM759.25 932.75L749 933H738.75L736.5 933.25L724.25 928.5C724.417 926.833 724.583 925 724.75 923C724.917 921 725.083 918.667 725.25 916C725.583 911 725.75 907.083 725.75 904.25C725.917 901.25 726 899.25 726 898.25V890.5C726 887.5 725.417 886 724.25 886L726 872C728 866.667 729.25 860 729.75 852C730.083 847.5 730.583 842.667 731.25 837.5C732.083 832.167 733.083 828 734.25 825L735.25 812.25C736.417 812.417 736.417 810.75 735.25 807.25C734.25 803.417 734.833 801.5 737 801.5C737.333 799.5 737.583 797.75 737.75 796.25C738.083 794.583 738.25 793.083 738.25 791.75C738.083 789.75 738.333 786.417 739 781.75L742.25 780.25C744.417 781.083 747.5 781.75 751.5 782.25C755.667 782.75 759.5 783.25 763 783.75C765.167 784.083 767.083 784.333 768.75 784.5C770.417 784.5 771.833 784.583 773 784.75L776.5 789.5L775.75 798.5C774.75 806.833 774.75 811 775.75 811C773.583 814.833 772 818.583 771 822.25C770.167 825.917 769.333 829.25 768.5 832.25C767.833 834.75 767.5 839.583 767.5 846.75C767.5 848.583 767.75 849.917 768.25 850.75C768.75 851.417 769.417 851.917 770.25 852.25C771.25 852.583 772.167 852.667 773 852.5C772 853.5 771.083 854.917 770.25 856.75C769.417 858.417 768.583 860.5 767.75 863C766.917 865.333 766.167 867.833 765.5 870.5C765 873 764.583 875.5 764.25 878C763.917 880.333 763.917 882.417 764.25 884.25C764.417 885.917 764.75 888.083 765.25 890.75C765.75 893.417 766.25 896.333 766.75 899.5C767.25 902.667 767.667 906 768 909.5C768.333 913 768.5 916.333 768.5 919.5C766.5 921 766 923.5 767 927L767.25 927.5L759.25 932.75ZM1060.68 933.5L1051.93 935C1049.93 935.333 1047.85 935.333 1045.68 935C1043.51 934.667 1041.26 934.5 1038.93 934.5C1038.43 934.5 1037.68 934.5 1036.68 934.5C1035.68 934.5 1034.51 934.5 1033.18 934.5C1032.01 934.5 1030.85 934.583 1029.68 934.75C1028.51 934.75 1027.51 934.75 1026.68 934.75L1021.18 931C1021.68 927.667 1021.51 925.25 1020.68 923.75C1020.01 922.25 1019.51 920.833 1019.18 919.5C1018.85 918.5 1018.18 916.917 1017.18 914.75C1016.18 912.583 1015.26 910.083 1014.43 907.25C1014.43 906.75 1013.6 905.25 1011.93 902.75C1010.26 900.25 1008.93 898 1007.93 896L1004.93 897.25C1004.1 897.25 1003.18 897.5 1002.18 898C1001.18 898.5 998.682 898.75 994.682 898.75C994.182 897.75 993.348 897.083 992.182 896.75C991.015 896.25 989.682 896.167 988.182 896.5C986.848 896.667 985.432 897.167 983.932 898C982.598 898.833 981.432 899.833 980.432 901L970.182 902.5C969.515 901 968.765 899.833 967.932 899C967.265 898 966.515 897.083 965.682 896.25C965.015 895.417 964.432 894.5 963.932 893.5C963.432 892.5 963.182 891.167 963.182 889.5C966.515 888.667 968.432 887.583 968.932 886.25C969.598 884.917 970.098 884.333 970.432 884.5C971.432 885 972.348 885.25 973.182 885.25C972.015 885.25 971.682 885.083 972.182 884.75C972.682 884.417 974.932 883.583 978.932 882.25L997.182 880L1000.93 882.75C1003.6 883.417 1005.6 883.583 1006.93 883.25C1008.26 882.917 1009.18 882.333 1009.68 881.5C1010.18 880.5 1010.43 879.417 1010.43 878.25C1010.6 877.083 1010.76 876.083 1010.93 875.25C1011.26 873.417 1010.85 871.917 1009.68 870.75C1008.68 869.417 1007.26 868.25 1005.43 867.25C1005.1 865.417 1004.43 863.333 1003.43 861C1002.6 858.5 1001.51 855.583 1000.18 852.25C999.015 849.083 997.932 845.75 996.932 842.25C996.098 838.583 995.348 835.25 994.682 832.25C994.015 829.25 993.515 826.75 993.182 824.75C992.848 822.75 992.598 821.583 992.432 821.25C990.098 819.75 988.182 819.667 986.682 821C985.182 822.167 983.932 823.917 982.932 826.25C982.098 828.583 981.515 831.083 981.182 833.75C981.015 836.25 981.015 838 981.182 839C981.015 839.333 980.598 839.917 979.932 840.75C979.265 841.417 978.515 842.167 977.682 843C976.848 843.833 976.098 844.667 975.432 845.5C974.765 846.167 974.348 846.667 974.182 847C973.515 848.167 973.348 849.417 973.682 850.75C974.015 852.083 973.765 853.25 972.932 854.25C969.598 860.25 965.682 865 961.182 868.5C960.015 869.5 959.098 870.917 958.432 872.75C957.765 874.583 957.348 876.5 957.182 878.5C957.015 880.5 957.182 882.5 957.682 884.5C958.182 886.333 959.098 887.833 960.432 889C958.765 890 957.432 891.083 956.432 892.25C955.598 893.25 954.848 894.417 954.182 895.75C953.682 896.917 953.182 898.25 952.682 899.75C952.182 901.083 951.598 902.583 950.932 904.25C948.098 911.75 946.682 915.667 946.682 916L943.182 923.25L939.932 936.5C940.098 939 939.182 940.5 937.182 941C935.348 941.5 932.348 941.75 928.182 941.75C924.182 942.75 920.682 943.25 917.682 943.25C914.682 943.083 913.682 941.5 914.682 938.5C919.015 928.167 922.182 920.5 924.182 915.5C926.348 910.333 927.432 906.417 927.432 903.75C927.432 902.917 927.765 902.25 928.432 901.75C929.265 901.083 929.932 900.583 930.432 900.25C930.598 899.917 931.182 898.167 932.182 895C933.348 891.833 934.598 888.333 935.932 884.5C937.265 880.5 938.515 876.75 939.682 873.25C941.015 869.583 942.015 867.083 942.682 865.75C944.182 862.583 945.932 859 947.932 855C950.098 851 952.598 847.167 955.432 843.5C956.932 841.5 958.182 838.75 959.182 835.25C960.348 831.75 961.432 827.917 962.432 823.75C963.432 819.583 964.515 815.333 965.682 811C966.848 806.667 968.348 802.667 970.182 799C971.182 798.667 974.098 795 978.932 788C979.265 787.667 979.515 787.333 979.682 787C980.015 786.5 980.348 786.083 980.682 785.75L1012.68 783.75C1013.35 784.583 1014.1 785.583 1014.93 786.75C1015.76 787.917 1016.68 789.167 1017.68 790.5C1020.85 794.5 1022.76 797.667 1023.43 800C1024.1 802.333 1024.51 803.917 1024.68 804.75C1024.35 805.25 1026.1 810.917 1029.93 821.75C1030.93 824.417 1031.76 827.417 1032.43 830.75C1033.1 834.083 1033.6 837.25 1033.93 840.25C1034.26 843.083 1034.43 845.583 1034.43 847.75C1034.43 849.75 1034.35 850.833 1034.18 851C1033.85 851.167 1036.51 853.25 1042.18 857.25C1043.51 858.25 1044.26 859.167 1044.43 860C1044.76 860.833 1044.76 861.583 1044.43 862.25C1044.26 862.917 1043.93 863.5 1043.43 864C1042.93 864.5 1042.68 864.833 1042.68 865L1049.43 874C1049.43 874 1051.35 881.25 1055.18 895.75C1057.35 902.75 1058.93 908.75 1059.93 913.75C1060.93 918.583 1061.43 922.333 1061.43 925C1061.43 925.333 1061.51 925.583 1061.68 925.75C1061.68 925.583 1061.85 926 1062.18 927L1060.68 933.5ZM1184.06 799L1167.06 798.75L1153.06 803.5C1152.56 803.5 1150.9 806.167 1148.06 811.5C1146.9 814.167 1145.48 817.083 1143.81 820.25C1142.31 823.417 1141.23 825.417 1140.56 826.25L1134.81 863.75C1134.48 863.75 1133.31 866.583 1131.31 872.25C1130.48 875.083 1129.65 877.417 1128.81 879.25C1127.98 880.917 1127.31 882.25 1126.81 883.25C1126.81 884.417 1128.4 887.583 1131.56 892.75L1137.56 889.25L1143.06 900L1139.81 906.25C1140.31 907.083 1140.73 907.833 1141.06 908.5C1141.4 909 1141.73 909.5 1142.06 910L1142.81 911.5C1142.81 912 1143.81 913.333 1145.81 915.5C1147.65 917.833 1149.15 919 1150.31 919C1152.15 919 1153.48 918.667 1154.31 918C1155.31 917.333 1156.06 917 1156.56 917C1157.06 917 1157.65 917.333 1158.31 918C1158.98 918.5 1159.56 918.833 1160.06 919C1167.9 920 1174.73 918.25 1180.56 913.75C1182.4 913.417 1184.81 913.083 1187.81 912.75C1190.81 912.417 1193.31 911.167 1195.31 909C1195.98 908.833 1196.81 908.333 1197.81 907.5C1198.81 906.667 1199.9 905.75 1201.06 904.75C1202.23 903.583 1203.48 902.417 1204.81 901.25C1206.15 900.083 1207.56 899.083 1209.06 898.25C1209.9 897.75 1210.56 898.167 1211.06 899.5C1211.73 900.833 1212.4 901.333 1213.06 901L1215.56 904L1211.31 916.75L1201.81 924.25L1188.31 928C1184.15 929.333 1179.65 930.75 1174.81 932.25C1170.15 933.75 1166.73 934.667 1164.56 935C1162.73 935.167 1160.73 935.583 1158.56 936.25C1156.4 936.75 1154.31 937.333 1152.31 938C1150.31 938.5 1148.56 939 1147.06 939.5C1145.56 939.833 1144.65 940 1144.31 940C1137.98 940 1133.4 940.083 1130.56 940.25C1127.73 940.25 1125.65 940.25 1124.31 940.25L1101.81 923.75C1101.48 920.583 1098.98 915.583 1094.31 908.75C1089.81 902.583 1087.56 898.75 1087.56 897.25L1089.81 876.75C1090.31 873.25 1090.73 869.667 1091.06 866C1091.4 862.167 1091.65 858.667 1091.81 855.5C1091.98 852.333 1092.06 849.583 1092.06 847.25C1092.23 844.917 1092.31 843.5 1092.31 843C1093.65 842.333 1095.56 840.75 1098.06 838.25C1100.56 835.583 1102.81 831.917 1104.81 827.25C1108.98 818.583 1110.48 810.917 1109.31 804.25C1110.15 803.917 1112.48 803.333 1116.31 802.5C1120.15 801.667 1124.06 800.417 1128.06 798.75C1132.06 797.25 1135.15 796.083 1137.31 795.25C1139.48 794.417 1140.73 793.917 1141.06 793.75C1141.23 793.583 1141.9 793.333 1143.06 793C1144.4 792.667 1145.81 792.417 1147.31 792.25C1148.98 791.917 1150.56 791.667 1152.06 791.5C1153.56 791.167 1154.65 791 1155.31 791L1163.06 783.5L1185.56 783.25L1191.06 786.75L1189.56 794.75L1184.06 799ZM1239.68 924.25C1240.01 920.75 1240.26 915.417 1240.43 908.25C1240.76 903.417 1241.35 899.667 1242.18 897C1243.01 894.167 1243.43 892.25 1243.43 891.25C1243.43 890.583 1243.51 889.75 1243.68 888.75C1243.85 887.75 1243.93 886.75 1243.93 885.75C1243.93 884.75 1243.68 883.917 1243.18 883.25C1242.85 882.583 1242.18 882.25 1241.18 882.25L1242.68 866.75C1244.51 861.917 1245.51 855.5 1245.68 847.5C1245.85 843.667 1245.85 840.083 1245.68 836.75C1245.51 833.417 1245.85 830.417 1246.68 827.75L1247.43 816.75C1250.6 817.25 1251.43 815.833 1249.93 812.5C1249.43 810.667 1249.01 809.333 1248.68 808.5C1248.51 807.667 1248.68 807.25 1249.18 807.25C1249.51 805.417 1249.68 803.167 1249.68 800.5C1249.85 797.667 1250.1 793.333 1250.43 787.5L1255.43 784.75C1257.76 785.75 1261.01 786.667 1265.18 787.5C1269.51 788.167 1273.1 788.667 1275.93 789C1279.26 789.5 1281.93 789.917 1283.93 790.25C1285.93 790.417 1287.26 790.583 1287.93 790.75L1289.93 795.25C1289.26 798.75 1288.68 802.417 1288.18 806.25C1287.85 809.917 1287.51 813.583 1287.18 817.25C1287.01 820.75 1286.76 824.167 1286.43 827.5C1286.1 830.667 1285.68 833.417 1285.18 835.75C1284.51 837.417 1284.35 841.833 1284.68 849C1284.85 849.833 1284.93 850.667 1284.93 851.5C1284.93 852.333 1284.93 853.083 1284.93 853.75V856.75C1284.93 857.917 1284.85 858.75 1284.68 859.25C1282.35 860.583 1280.76 862.833 1279.93 866C1279.26 869 1279.18 872.417 1279.68 876.25C1280.01 877.75 1280.51 879 1281.18 880C1281.85 880.833 1282.51 883 1283.18 886.5C1283.68 888.333 1283.93 890.417 1283.93 892.75C1284.1 895.083 1284.1 897.417 1283.93 899.75C1283.93 902.083 1283.85 904.417 1283.68 906.75C1283.51 908.917 1283.43 910.833 1283.43 912.5C1281.26 914.167 1280.26 916.083 1280.43 918.25C1280.6 920.25 1280.85 922.083 1281.18 923.75C1280.35 924.25 1279.51 924.667 1278.68 925C1278.35 925.167 1278.1 925.25 1277.93 925.25C1277.76 925.25 1277.6 925.333 1277.43 925.5C1276.76 925.833 1276.18 926.083 1275.68 926.25C1275.35 926.417 1275.01 926.583 1274.68 926.75H1274.43L1274.68 926.5C1275.01 926.167 1275.18 925.917 1275.18 925.75C1274.68 925.917 1272.68 926 1269.18 926H1253.93C1252.26 926.167 1250.43 926.333 1248.43 926.5C1246.43 926.667 1244.68 926.917 1243.18 927.25L1239.68 924.25ZM1386.43 934.75H1356.68L1343.93 931.5L1344.93 919.5L1335.68 906.25L1322.93 889.25L1306.93 876.75L1298.93 875.25C1297.76 871.75 1296.35 868.75 1294.68 866.25C1294.35 865.583 1294.01 865 1293.68 864.5C1293.35 864 1293.01 863.583 1292.68 863.25C1292.18 862.25 1291.6 861.5 1290.93 861L1289.68 859.5C1290.85 858 1291.85 857.083 1292.68 856.75C1293.51 856.417 1294.43 856.083 1295.43 855.75C1296.43 855.417 1297.6 854.667 1298.93 853.5C1300.43 852.167 1302.51 849.75 1305.18 846.25C1306.68 844.083 1308.01 842.25 1309.18 840.75C1310.51 839.083 1311.6 837.667 1312.43 836.5C1312.93 835.833 1313.43 835.25 1313.93 834.75C1314.43 834.083 1314.85 833.583 1315.18 833.25C1316.85 831.917 1319.93 829 1324.43 824.5C1329.1 820 1335.01 813.75 1342.18 805.75C1347.01 800.417 1351.1 796 1354.43 792.5C1357.93 788.833 1360.68 786 1362.68 784L1368.43 782.75C1369.6 784.083 1370.6 785.25 1371.43 786.25C1372.43 787.083 1373.26 788 1373.93 789C1375.26 788.333 1376.43 788.583 1377.43 789.75C1378.43 790.75 1379.18 791.833 1379.68 793C1379.68 793.333 1380.01 793.75 1380.68 794.25C1381.51 794.75 1382.26 795.333 1382.93 796C1383.6 796.5 1384.1 797.167 1384.43 798C1384.76 798.667 1384.43 799.417 1383.43 800.25L1378.93 804.75C1378.26 805.417 1377.6 806.083 1376.93 806.75C1376.43 807.25 1376.01 807.833 1375.68 808.5C1374.18 809.667 1370.43 811.583 1364.43 814.25C1358.1 817.083 1354.1 819.417 1352.43 821.25C1351.6 822.417 1350.68 823.833 1349.68 825.5C1348.85 827.167 1347.85 828.917 1346.68 830.75C1345.68 832.417 1344.51 834 1343.18 835.5C1342.01 837 1340.76 838.083 1339.43 838.75C1339.26 838.917 1339.01 839.083 1338.68 839.25C1338.51 839.417 1337.93 840 1336.93 841C1336.76 840.833 1336.51 840.667 1336.18 840.5C1336.01 840.333 1335.76 840.083 1335.43 839.75C1335.26 839.583 1335.1 839.5 1334.93 839.5C1334.76 839.333 1334.6 839.167 1334.43 839C1334.1 839.833 1333.51 840.333 1332.68 840.5C1332.35 840.667 1331.76 840.75 1330.93 840.75C1328.93 842.25 1327.85 844 1327.68 846C1327.68 847.833 1328.1 849.417 1328.93 850.75C1329.1 850.917 1328.35 851.833 1326.68 853.5C1325.18 855.167 1323.85 856.833 1322.68 858.5L1329.93 862.25L1342.18 877.75L1367.68 902.75L1386.43 921.5L1392.68 925L1392.43 929.5L1386.43 934.75ZM1274.18 927L1274.43 926.75L1274.18 927ZM1422.69 918L1451.19 913.75L1478.44 905.75L1484.94 895.25L1482.19 884.5L1475.69 876.5C1473.86 875.333 1471.94 874.25 1469.94 873.25C1468.11 872.083 1466.19 871.25 1464.19 870.75C1462.36 870.083 1460.44 869.833 1458.44 870C1456.61 870 1454.77 870.583 1452.94 871.75L1446.69 876.25L1425.94 866.5L1418.44 847.25L1424.94 815L1436.44 799.75C1436.94 800.917 1437.94 801.333 1439.44 801C1440.94 800.667 1442.44 800 1443.94 799C1445.44 798 1446.69 796.833 1447.69 795.5C1448.69 794 1448.94 792.667 1448.44 791.5C1451.27 790.667 1454.52 789.833 1458.19 789C1461.86 788 1465.02 786.583 1467.69 784.75L1499.94 778L1505.19 777.5L1509.69 782.75L1505.69 793.5L1496.44 796L1484.44 797.25L1466.19 806.5L1457.69 817.5C1455.02 820 1453.69 822.75 1453.69 825.75C1453.86 828.583 1454.61 831.667 1455.94 835C1457.77 838.833 1459.11 841.333 1459.94 842.5C1460.94 843.5 1462.19 844.417 1463.69 845.25L1478.44 850.25C1480.11 851.583 1481.61 852.667 1482.94 853.5C1484.44 854.167 1486.11 854.583 1487.94 854.75C1489.77 854.917 1492.36 855.083 1495.69 855.25C1499.19 855.417 1503.61 855.667 1508.94 856C1510.44 858.833 1512.19 861.333 1514.19 863.5C1516.19 865.5 1518.11 868.167 1519.94 871.5L1524.94 882.75L1517.44 907.75L1511.44 914.25L1499.19 932H1492.94C1490.77 932 1488.11 932.083 1484.94 932.25C1481.94 932.25 1478.36 932.25 1474.19 932.25C1470.02 932.25 1466.36 932.667 1463.19 933.5C1460.02 934.333 1457.19 935.25 1454.69 936.25C1452.19 937.083 1450.02 937.833 1448.19 938.5C1446.36 939.167 1444.69 939.417 1443.19 939.25L1434.19 936.5L1419.19 939L1413.94 928.25L1415.44 922L1422.69 918Z" fill="white"/>
</svg>
