<svg width="1774" height="907" viewBox="0 0 1774 907" fill="none" xmlns="http://www.w3.org/2000/svg">
<path d="M461.9 383.5C461.9 409.1 454.9 433.1 440.9 455.5C426.9 477.5 408.3 495.1 385.1 508.3C362.3 521.1 338.3 527.5 313.1 527.5C306.3 527.5 301.3 527.3 298.1 526.9V552.1C298.1 590.5 298.7 632.1 299.9 676.9C295.9 676.9 290.3 677.5 283.1 678.7C280.3 679.1 274.1 679.7 264.5 680.5C255.3 681.7 246.5 682.3 238.1 682.3C220.1 682.3 202.7 681.3 185.9 679.3C185.9 673.7 185.1 670.3 183.5 669.1C181.9 667.9 178.7 667.3 173.9 667.3C172.3 628.5 171.5 560.1 171.5 462.1V389.5C171.5 322.3 170.9 273.7 169.7 243.7C200.1 235.3 231.3 231.1 263.3 231.1C296.5 231.1 327.7 236.7 356.9 247.9C386.5 258.7 410.9 275.5 430.1 298.3C449.3 321.1 459.9 349.3 461.9 382.9V383.5ZM443.9 370.9C441.5 324.5 422.9 290.7 388.1 269.5C353.3 247.9 311.5 237.1 262.7 237.1C234.3 237.1 205.3 240.9 175.7 248.5C177.3 293.3 178.1 364.3 178.1 461.5V567.1C178.1 600.7 178.7 632.3 179.9 661.9C190.7 663.5 206.1 664.3 226.1 664.3C252.5 664.3 270.5 662.7 280.1 659.5L281.9 658.3C280.7 619.5 280.1 582.7 280.1 547.9V524.5C280.1 516.9 279.9 511.3 279.5 507.7C286.7 508.9 293.9 509.5 301.1 509.5C323.5 509.5 345.7 503.7 367.7 492.1C390.1 480.5 408.3 464.7 422.3 444.7C436.7 424.7 443.9 403.1 443.9 379.9V370.9ZM357.5 380.5C357.5 398.1 350.7 409.3 337.1 414.1C323.9 418.9 306.1 421.5 283.7 421.9L270.5 422.5H268.7C265.5 412.5 263.9 396.1 263.9 373.3C263.9 354.5 263.7 340.9 263.3 332.5C265.7 330.1 274.1 328.9 288.5 328.9C308.5 328.9 325.3 334.5 338.9 345.7C344.9 349.3 349.5 354.3 352.7 360.7C355.9 366.7 357.5 373.3 357.5 380.5ZM300.5 346.9C292.9 346.9 286.5 347.7 281.3 349.3C281.7 355.3 281.9 363.9 281.9 375.1V392.5V402.7C281.9 408.7 282.3 413.1 283.1 415.9H286.1C305.3 415.9 320.9 413.7 332.9 409.3C345.3 404.5 351.5 394.7 351.5 379.9C351.5 368.3 346.3 359.9 335.9 354.7C325.5 349.5 313.7 346.9 300.5 346.9ZM731.342 319.9C736.542 331.1 739.742 342.7 740.942 354.7C742.542 366.3 743.342 380.5 743.342 397.3V434.5C743.342 440.5 743.142 455.1 742.742 478.3C742.342 501.5 741.342 522.9 739.742 542.5L737.942 562.3C734.742 599.1 726.742 627.1 713.942 646.3C702.742 661.9 686.142 673.3 664.142 680.5C642.542 688.1 620.342 691.9 597.542 691.9C570.342 691.9 546.942 687.5 527.342 678.7C507.742 670.3 492.742 655.3 482.342 633.7V634.3C475.942 623.5 471.742 611.1 469.742 597.1C467.742 583.1 466.542 566.3 466.142 546.7C466.142 537.5 465.942 530.7 465.542 526.3C463.542 492.3 462.542 460.7 462.542 431.5V409.3C462.542 373.7 465.742 342.5 472.142 315.7C478.542 288.9 492.142 269.5 512.942 257.5C538.142 245.1 565.742 238.9 595.742 238.9C616.542 238.9 636.742 242.5 656.342 249.7C676.342 256.5 691.942 266.7 703.142 280.3C716.342 293.5 725.742 306.9 731.342 320.5V319.9ZM595.742 245.5C577.342 245.5 559.542 247.9 542.342 252.7C525.142 257.1 511.742 264.1 502.142 273.7C488.142 289.3 478.942 308.5 474.542 331.3C470.542 353.7 468.542 379.7 468.542 409.3V430.3C468.542 446.3 468.942 464.3 469.742 484.3C470.542 503.9 471.142 517.7 471.542 525.7L473.342 564.7C474.142 605.9 483.942 634.5 502.742 650.5C521.942 666.1 549.542 673.9 585.542 673.9C607.542 673.9 628.942 670.3 649.742 663.1C670.942 655.9 686.742 645.1 697.142 630.7C709.542 611.5 717.142 584.5 719.942 549.7L721.742 529.9C723.742 504.3 724.742 473.9 724.742 438.7V378.1C724.742 363.3 723.942 350.7 722.342 340.3C721.142 329.9 718.342 319.9 713.942 310.3C706.342 288.7 691.542 272.5 669.542 261.7C647.542 250.9 622.942 245.5 595.742 245.5ZM649.742 485.5V505.9C649.742 526.3 648.942 540.7 647.342 549.1C646.142 557.5 642.542 564.9 636.542 571.3C631.742 577.3 625.342 581.9 617.342 585.1C609.342 588.3 601.142 589.9 592.742 589.9C577.542 589.9 565.942 586.1 557.942 578.5C550.342 570.5 545.142 560.9 542.342 549.7C539.942 538.5 538.142 523.9 536.942 505.9C536.142 493.1 535.342 484.1 534.542 478.9C533.742 465.3 533.342 455.1 533.342 448.3C533.342 367.9 555.542 327.7 599.942 327.7C620.342 327.7 633.542 337.5 639.542 357.1C645.542 376.3 648.542 395.9 648.542 415.9L649.742 456.7V485.5ZM642.542 413.5C642.142 410.3 641.542 402.5 640.742 390.1C640.342 377.3 637.742 366.7 632.942 358.3C628.542 349.9 621.742 345.7 612.542 345.7C600.142 345.7 588.742 350.5 578.342 360.1C567.942 369.7 561.142 381.1 557.942 394.3V393.7C553.942 411.3 551.942 433.5 551.942 460.3C551.942 473.5 552.142 483.5 552.542 490.3V489.7C554.142 500.9 555.342 512.1 556.142 523.3C556.542 525.7 557.142 532.3 557.942 543.1C559.142 553.9 561.142 564.1 563.942 573.7L563.342 573.1L565.142 576.7C573.142 581.5 582.342 583.9 592.742 583.9C609.142 583.9 622.342 578.3 632.342 567.1L631.742 567.7C637.342 560.9 640.742 554.3 641.942 547.9C643.142 541.1 643.742 528.1 643.742 508.9V485.5V456.7L642.542 415.9V413.5ZM1027.38 260.5C1024.18 300.9 1017.98 365.7 1008.78 454.9C998.781 549.3 991.581 624.1 987.181 679.3C981.181 680.9 974.181 681.7 966.181 681.7H929.581C928.381 680.1 925.981 676.1 922.381 669.7H917.581C912.781 663.3 908.781 655.7 905.581 646.9C902.381 637.7 899.381 626.5 896.581 613.3L891.781 595.9C890.581 600.7 889.381 605.5 888.181 610.3C887.381 614.7 886.381 618.9 885.181 622.9C882.381 636.1 879.781 646.9 877.381 655.3C874.981 663.7 871.581 671.5 867.181 678.7C854.781 681.1 843.981 682.3 834.781 682.3C826.781 682.3 817.181 681.5 805.981 679.9L804.181 669.1C802.981 669.1 799.581 668.7 793.981 667.9L786.181 613.3C775.381 536.5 766.781 469.1 760.381 411.1C753.981 353.1 750.381 296.9 749.581 242.5C763.981 240.1 778.981 238.9 794.581 238.9C801.781 238.9 811.381 239.3 823.381 240.1L846.781 240.7C846.781 246.7 847.581 250.3 849.181 251.5C850.781 252.7 852.581 253.3 854.581 253.3C856.581 252.9 857.981 252.7 858.781 252.7C860.781 275.1 861.781 308.5 861.781 352.9V388.3V409.9C861.781 423.5 862.181 433.7 862.981 440.5C866.981 408.5 873.181 388.3 881.581 379.9C885.181 383.5 888.381 388.3 891.181 394.3L893.581 391.9C897.581 394.7 900.981 400.1 903.781 408.1C906.581 415.7 909.581 426.5 912.781 440.5L913.981 398.5C915.581 328.1 917.781 276.7 920.581 244.3C934.581 241.1 950.581 239.5 968.581 239.5C983.781 239.5 997.981 240.1 1011.18 241.3L1015.38 248.5L1014.78 252.7L1023.18 253.3L1027.38 260.5ZM1008.78 247.3C995.581 246.1 982.181 245.5 968.581 245.5C951.381 245.5 937.181 246.7 925.981 249.1V249.7C923.981 272.9 922.181 315.5 920.581 377.5C920.581 384.7 920.181 402.9 919.381 432.1C918.581 460.9 917.181 485.1 915.181 504.7C912.781 498.3 907.381 478.5 898.981 445.3C890.581 409.3 884.981 390.1 882.181 387.7C882.181 387.7 881.781 388.7 880.981 390.7L873.781 420.7C871.381 429.9 868.581 440.9 865.381 453.7C862.181 466.1 858.381 480.5 853.981 496.9C849.981 481.3 847.181 463.5 845.581 443.5C844.381 423.5 843.781 399.9 843.781 372.7V306.1C843.781 282.1 842.981 262.3 841.381 246.7L828.181 246.1C813.781 245.3 802.581 244.9 794.581 244.9C781.781 244.9 768.781 245.9 755.581 247.9V248.5C756.381 302.1 759.581 354.7 765.181 406.3C771.181 457.5 779.981 525.1 791.581 609.1C793.581 620.7 796.181 638.5 799.381 662.5H799.981C809.181 663.7 816.781 664.3 822.781 664.3C831.181 664.3 840.981 663.3 852.181 661.3C854.981 656.9 857.581 650.3 859.981 641.5C862.381 632.7 864.581 623.7 866.581 614.5C869.781 600.5 872.581 589.1 874.981 580.3C877.781 571.5 880.981 565.3 884.581 561.7H885.181C888.381 566.5 891.381 573.9 894.181 583.9C897.381 593.5 900.381 603.3 903.181 613.3C906.781 628.1 909.781 639.1 912.181 646.3C914.581 653.5 917.381 659.3 920.581 663.7H960.181C962.581 663.7 965.781 663.3 969.781 662.5C972.981 624.1 976.781 581.7 981.181 535.3C985.981 488.9 989.181 457.5 990.781 441.1C999.581 355.5 1005.78 291.1 1009.38 247.9L1008.78 247.3ZM1316.49 596.5C1317.29 608.5 1317.69 617.7 1317.69 624.1C1317.69 643.3 1315.29 662.5 1310.49 681.7C1292.89 681.7 1266.49 682.1 1231.29 682.9L1153.29 683.5C1117.69 683.5 1084.49 682.3 1053.69 679.9V668.5L1041.69 667.9C1041.69 647.1 1041.49 622.9 1041.09 595.3C1040.69 567.7 1040.29 546.7 1039.89 532.3C1038.69 489.1 1038.09 445.7 1038.09 402.1C1038.09 351.7 1039.69 299.7 1042.89 246.1C1074.09 244.5 1110.09 243.3 1150.89 242.5C1192.09 241.3 1226.09 240.7 1252.89 240.7C1284.49 240.7 1301.09 243.1 1302.69 247.9C1302.69 250.7 1303.29 252.9 1304.49 254.5C1306.09 255.7 1308.09 256.7 1310.49 257.5C1312.89 258.3 1314.29 259.1 1314.69 259.9V259.3C1316.29 268.5 1317.09 279.1 1317.09 291.1C1317.09 297.5 1316.69 307.1 1315.89 319.9C1315.09 333.5 1314.69 343.9 1314.69 351.1C1294.29 355.9 1268.49 358.3 1237.29 358.3H1215.69L1192.29 357.7C1179.89 357.7 1167.49 358.3 1155.09 359.5C1155.09 365.5 1154.69 373.3 1153.89 382.9L1153.29 402.7V408.1L1164.09 408.7L1187.49 408.1C1189.49 408.1 1199.49 408.7 1217.49 409.9C1217.89 411.1 1218.29 413.1 1218.69 415.9C1219.09 418.3 1219.89 419.9 1221.09 420.7C1222.69 421.5 1225.49 421.9 1229.49 421.9C1231.49 432.3 1232.49 444.5 1232.49 458.5C1232.49 470.9 1232.29 480.3 1231.89 486.7L1231.29 515.5C1219.29 518.7 1203.89 520.3 1185.09 520.3C1170.29 520.3 1161.29 520.7 1158.09 521.5C1156.89 527.5 1156.29 536.7 1156.29 549.1C1156.29 561.1 1156.49 569.7 1156.89 574.9C1204.89 577.3 1242.89 578.5 1270.89 578.5C1280.49 578.5 1291.69 578.1 1304.49 577.3V584.5L1305.09 589.9C1309.89 589.9 1313.69 589.7 1316.49 589.3V596.5ZM1298.49 583.9C1292.49 584.3 1283.89 584.5 1272.69 584.5C1262.69 584.5 1251.09 584.3 1237.89 583.9C1224.69 583.5 1214.49 583.1 1207.29 582.7C1185.69 581.5 1163.69 580.9 1141.29 580.9L1140.69 580.3C1139.09 570.3 1138.29 555.9 1138.29 537.1C1138.29 524.3 1139.09 513.7 1140.69 505.3C1142.29 504.1 1145.89 503.3 1151.49 502.9C1157.09 502.5 1163.29 502.3 1170.09 502.3C1190.89 502.3 1205.29 501.1 1213.29 498.7L1213.89 446.5C1213.89 432.5 1213.29 422.1 1212.09 415.3V414.7C1201.29 414.7 1193.09 414.5 1187.49 414.1C1165.49 414.1 1149.09 413.7 1138.29 412.9L1137.69 412.3C1136.09 406.3 1135.29 398.7 1135.29 389.5C1135.29 383.9 1135.69 375.9 1136.49 365.5L1137.09 342.1L1139.49 341.5C1146.69 340.7 1154.49 340.3 1162.89 340.3C1171.29 340.3 1176.89 340.3 1179.69 340.3H1227.09C1256.29 340.3 1279.49 338.3 1296.69 334.3V333.7L1297.29 305.5C1298.09 292.7 1298.49 283.1 1298.49 276.7C1298.49 267.5 1297.89 258.1 1296.69 248.5C1296.69 247.3 1282.09 246.7 1252.89 246.7C1190.49 246.7 1122.29 248.5 1048.29 252.1C1045.89 290.9 1044.69 338.9 1044.69 396.1C1044.69 425.7 1045.09 469.7 1045.89 528.1C1047.09 572.5 1047.69 617.3 1047.69 662.5C1071.29 664.5 1100.29 665.5 1134.69 665.5C1151.89 665.5 1178.49 665.1 1214.49 664.3L1293.69 663.7C1297.69 648.1 1299.69 631.1 1299.69 612.7C1299.69 606.3 1299.29 597.1 1298.49 585.1V583.9ZM1322.15 241.3C1350.95 237.3 1373.75 234.3 1390.55 232.3C1407.75 230.3 1425.35 229.3 1443.35 229.3C1475.75 229.3 1503.55 233.1 1526.75 240.7C1550.35 248.3 1570.15 261.3 1586.15 279.7C1614.95 315.3 1629.35 348.3 1629.35 378.7C1629.35 395.9 1625.55 413.5 1617.95 431.5C1610.35 449.1 1599.35 464.3 1584.95 477.1C1570.55 489.9 1553.55 497.3 1533.95 499.3C1541.15 512.1 1553.75 531.7 1571.75 558.1C1587.75 581.3 1600.75 601.5 1610.75 618.7C1620.75 635.9 1629.35 654.3 1636.55 673.9L1640.15 681.7H1631.75C1625.35 681.7 1614.55 682.1 1599.35 682.9C1581.75 683.7 1568.35 684.1 1559.15 684.1C1550.75 684.1 1540.15 683.7 1527.35 682.9C1526.55 681.7 1525.75 679.9 1524.95 677.5C1524.15 675.5 1522.95 673.9 1521.35 672.7C1520.15 671.5 1518.15 670.9 1515.35 670.9C1494.55 621.7 1473.15 580.1 1451.15 546.1V561.7C1451.15 572.9 1452.15 596.5 1454.15 632.5C1455.35 649.3 1455.95 663.3 1455.95 674.5C1447.55 678.5 1438.15 681.1 1427.75 682.3C1417.75 683.5 1405.75 684.1 1391.75 684.1L1365.35 683.5H1330.55C1330.15 675.5 1329.95 666.9 1329.95 657.7L1329.35 603.1V554.5C1329.35 492.1 1328.55 428.1 1326.95 362.5C1325.75 296.9 1324.15 256.5 1322.15 241.3ZM1515.35 481.9C1535.75 480.3 1553.15 473.7 1567.55 462.1C1581.95 450.1 1592.75 435.5 1599.95 418.3C1607.15 401.1 1610.75 383.9 1610.75 366.7C1610.75 345.5 1605.35 325.1 1594.55 305.5C1584.15 285.9 1569.35 269.9 1550.15 257.5C1531.35 245.1 1510.35 238.5 1487.15 237.7C1473.95 236.1 1459.15 235.3 1442.75 235.3C1424.75 235.3 1407.75 236.3 1391.75 238.3C1376.15 239.9 1355.35 242.5 1329.35 246.1C1331.35 257.7 1332.95 293.3 1334.15 352.9C1335.35 412.5 1335.95 476.1 1335.95 543.7V605.5C1335.95 624.7 1335.75 638.1 1335.35 645.7V664.3C1336.55 664.7 1337.95 664.9 1339.55 664.9C1344.75 664.9 1348.95 665.1 1352.15 665.5L1376.15 666.1C1390.95 666.1 1403.35 665.7 1413.35 664.9C1423.35 663.7 1431.55 661.7 1437.95 658.9C1434.75 619.3 1433.15 583.1 1433.15 550.3C1433.15 535.1 1433.75 522.5 1434.95 512.5L1436.15 514.3C1451.35 532.7 1466.35 556.1 1481.15 584.5C1495.95 612.5 1508.75 639.3 1519.55 664.9H1520.15C1533.75 665.7 1544.15 666.1 1551.35 666.1C1560.15 666.1 1572.55 665.7 1588.55 664.9C1602.95 664.1 1613.15 663.7 1619.15 663.7C1611.95 644.5 1602.95 625.9 1592.15 607.9C1581.35 589.5 1568.15 568.9 1552.55 546.1C1548.55 539.7 1542.15 530.1 1533.35 517.3C1524.95 504.1 1517.95 492.5 1512.35 482.5L1515.35 481.9ZM1459.55 320.5C1473.15 320.5 1484.35 324.7 1493.15 333.1C1501.95 341.1 1506.35 352.1 1506.35 366.1C1506.35 380.5 1502.15 390.7 1493.75 396.7C1485.75 402.7 1472.55 405.7 1454.15 405.7C1441.75 405.7 1430.55 405.1 1420.55 403.9H1419.95C1418.75 397.1 1418.15 383.1 1418.15 361.9L1416.95 330.1C1431.35 323.7 1445.55 320.5 1459.55 320.5ZM1471.55 338.5C1460.35 338.5 1448.15 341.1 1434.95 346.3C1435.75 356.7 1436.15 365.9 1436.15 373.9L1435.55 391.3L1436.15 399.7H1454.15C1463.35 399.7 1472.15 399.1 1480.55 397.9H1479.95C1486.75 396.3 1491.95 392.7 1495.55 387.1C1499.15 381.1 1500.95 374.1 1500.95 366.1C1500.95 347.7 1491.15 338.5 1471.55 338.5Z" fill="white"/>
</svg>
