<svg width="2568" height="424" viewBox="0 0 2568 424" fill="none" xmlns="http://www.w3.org/2000/svg">
<path d="M570.783 218.161V190.832H657.746C667.44 190.832 672.286 186.599 672.286 178.134C672.286 169.852 667.44 165.712 657.746 165.712H614.219C598.943 165.712 587.256 162.307 579.158 155.498C571.121 148.627 567.102 138.782 567.102 125.961C567.102 113.14 571.06 103.325 578.974 96.5154C586.949 89.6449 598.268 86.2097 612.931 86.2097H710.752V113.814H624.157C614.219 113.814 609.25 117.863 609.25 125.961C609.25 134.242 614.219 138.383 624.157 138.383H668.605C683.513 138.383 694.863 141.818 702.654 148.689C710.507 155.498 714.433 165.313 714.433 178.134C714.433 191.139 710.507 201.077 702.654 207.947C694.863 214.756 683.513 218.161 668.605 218.161H570.783Z" fill="white"/>
<path d="M785.774 218.161C767.859 218.161 753.81 213.836 743.626 205.187C733.442 196.537 728.35 182.643 728.35 163.503V86.2097H770.497V163.779C770.497 172.981 772.859 179.606 777.583 183.655C782.307 187.703 788.473 189.728 796.08 189.728H831.602V86.2097H873.749V218.161H785.774Z" fill="white"/>
<path d="M896.663 218.161V86.2097H983.626C1003.32 86.2097 1017.77 90.1356 1026.97 97.9877C1036.23 105.778 1040.86 116.452 1040.86 130.009C1040.86 143.382 1036.29 153.995 1027.15 161.847C1018.01 169.638 1003.5 173.533 983.626 173.533H938.81V218.161H896.663ZM996.509 130.101C996.509 119.059 989.73 113.538 976.172 113.538H938.81V146.48H976.172C989.73 146.48 996.509 141.021 996.509 130.101Z" fill="white"/>
<path d="M1193.89 113.538H1139.5C1126.31 113.538 1116.77 115.563 1110.88 119.612C1105.06 123.66 1101.62 129.733 1100.58 137.831H1193.89V164.884H1100.58C1101.01 172.797 1104.14 179.054 1109.96 183.655C1115.85 188.256 1125.7 190.556 1139.5 190.556H1193.89V218.161H1134.17C1108.83 218.161 1089.72 212.64 1076.84 201.598C1064.01 190.495 1057.6 174.024 1057.6 152.185C1057.6 130.347 1064.01 113.907 1076.84 102.865C1089.72 91.7613 1108.83 86.2097 1134.17 86.2097H1193.89V113.538Z" fill="white"/>
<path d="M1317.74 125.838C1317.74 113.754 1310.96 113.538 1297.4 113.538H1254.52V144.334H1297.4C1310.96 144.334 1317.74 138.169 1317.74 125.838ZM1292.65 171.386H1254.52V218.161H1212.37V86.2097H1307.62C1326.08 86.2097 1339.76 90.4423 1348.66 98.9078C1357.62 107.312 1362.09 112.373 1362.09 125.746C1362.09 139.303 1357.68 150.284 1348.84 158.688C1344.36 162.982 1338.66 166.172 1331.73 168.258L1368.04 218.161H1324.17L1292.65 171.386Z" fill="white"/>
<path d="M1448.01 152.185C1448.01 130.347 1454.42 113.907 1467.25 102.865C1480.13 91.7613 1499.24 86.2097 1524.58 86.2097H1584.3V113.538H1529.91C1516.72 113.538 1507.18 115.563 1501.29 119.612C1495.47 123.66 1492.03 129.733 1490.99 137.831H1584.3V164.884H1490.16V218.161H1448.01V152.185Z" fill="white"/>
<path d="M1644.18 218.161C1628.65 218.161 1616.69 214.572 1608.29 207.395C1599.88 200.156 1595.68 190.157 1595.68 177.398C1595.68 164.7 1599.88 154.762 1608.29 147.584C1616.69 140.346 1628.65 136.727 1644.18 136.727H1702.7V131.942C1702.7 125.255 1701.11 120.562 1697.92 117.863C1694.79 115.164 1689.36 113.814 1681.63 113.814H1605.71V86.2097H1683.19C1704.97 86.2097 1720.68 90.3504 1730.31 98.6318C1740 106.913 1744.85 120.44 1744.85 139.211V218.161H1644.18ZM1702.7 163.779H1655.49C1644.14 163.779 1638.47 168.319 1638.47 177.398C1638.47 186.538 1644.14 191.108 1655.49 191.108H1702.7V163.779Z" fill="white"/>
<path d="M1924.39 218.161V139.211C1924.39 130.377 1922.18 124.09 1917.76 120.348C1913.35 116.544 1906.01 114.643 1895.77 114.643H1887.03V218.161H1844.88V114.643H1809.36V218.161H1767.21V86.2097H1902.95C1925.16 86.2097 1941.29 90.5343 1951.35 99.1839C1961.41 107.833 1966.44 121.728 1966.44 140.867V218.161H1924.39Z" fill="white"/>
<path d="M2021.02 86.2097V218.161H1978.88V86.2097H2021.02Z" fill="white"/>
<path d="M2176.82 114.09H2126.3C2110.96 114.09 2099.85 117.066 2092.98 123.016C2086.11 128.967 2082.68 138.69 2082.68 152.185C2082.68 165.681 2086.05 175.404 2092.8 181.354C2099.55 187.305 2110.62 190.28 2126.02 190.28H2176.82V218.161H2115.53C2090.74 218.161 2072.06 212.64 2059.49 201.598C2046.91 190.495 2040.62 174.024 2040.62 152.185C2040.62 130.408 2046.91 113.968 2059.49 102.865C2072.06 91.7613 2090.74 86.2097 2115.53 86.2097H2176.82V114.09Z" fill="white"/>
<path d="M2350.88 154.147C2350.88 165.557 2348.98 175.434 2345.18 183.777C2341.37 192.058 2335.88 198.898 2328.7 204.296C2321.59 209.633 2312.91 213.62 2302.66 216.258C2292.48 218.835 2280.88 220.123 2267.88 220.123C2254.87 220.123 2243.24 218.835 2233 216.258C2222.82 213.62 2214.17 209.633 2207.05 204.296C2199.93 198.898 2194.44 192.058 2190.58 183.777C2186.77 175.434 2184.87 165.557 2184.87 154.147C2184.87 142.737 2186.77 132.892 2190.58 124.61C2194.44 116.267 2199.93 109.427 2207.05 104.09C2214.17 98.6921 2222.82 94.7047 2233 92.1282C2243.24 89.4904 2254.87 88.1716 2267.88 88.1716C2280.88 88.1716 2292.48 89.4904 2302.66 92.1282C2312.91 94.7047 2321.59 98.6921 2328.7 104.09C2335.88 109.427 2341.37 116.267 2345.18 124.61C2348.98 132.892 2350.88 142.737 2350.88 154.147ZM2267.88 192.242C2295.12 192.242 2308.74 179.544 2308.74 154.147C2308.74 128.751 2295.12 116.053 2267.88 116.053C2240.64 116.053 2227.02 128.751 2227.02 154.147C2227.02 179.544 2240.64 192.242 2267.88 192.242Z" fill="white"/>
<path d="M2525.95 218.161V139.211C2525.95 130.377 2523.74 124.09 2519.32 120.348C2514.9 116.544 2507.57 114.643 2497.33 114.643H2488.58V218.161H2446.44V114.643H2410.91V218.161H2368.77V86.2097H2504.5C2526.71 86.2097 2542.85 90.5343 2552.91 99.1839C2562.97 107.833 2568 121.728 2568 140.867V218.161H2525.95Z" fill="white"/>
<path d="M569.209 260.269V282.637L646.326 282.831V290.877C646.326 315.447 620.518 326.981 599.23 326.981H568.62V349.349H602.369C616.398 349.349 632.088 342.595 643.885 331.431L655.942 349.349H684.592L656.391 314.972C660.052 307.867 662.222 299.945 662.222 291.466V260.269H569.209Z" fill="white"/>
<path d="M756.999 294.213H675.171V314.03H756.999V294.213Z" fill="white"/>
<path d="M967.358 294.213H885.53V314.03H967.358V294.213Z" fill="white"/>
<path d="M1089.02 282.833V296.764C1089.02 321.335 1069.89 326.981 1048.6 326.981H1003.86V349.35H1050.2C1077.07 349.35 1104.92 332.806 1104.92 299.653V260.269H996.597V282.637L1089.02 282.833Z" fill="white"/>
<path d="M1145.13 349.35H1121.4V329.019H1147.89C1152.72 329.019 1155.38 325.181 1155.38 321.159V312.301H1187.36C1193.28 312.301 1195.77 308.239 1195.77 304.751V299.681H1115.92V280.675H1210V307.136C1210 319.277 1197.55 329.346 1188.36 329.346H1167.27C1167.27 338.401 1162.01 349.35 1145.13 349.35Z" fill="white"/>
<path d="M1335.24 270.411L1221.88 258.063V278.597L1335.24 290.945V270.411Z" fill="white"/>
<path d="M1335.24 300.241L1221.88 287.893V308.427L1335.24 320.775V300.241Z" fill="white"/>
<path d="M1335.24 329.238L1221.88 316.89V337.424L1335.24 349.772V329.238Z" fill="white"/>
<path d="M767.456 349.35H758.409V326.88H764.681C785.301 326.88 795.624 312.628 795.624 296.633V259.728H812.691V300.935C812.691 331.657 794.787 349.35 767.456 349.35Z" fill="white"/>
<path d="M872.446 349.35H881.493V326.88H875.221C854.601 326.88 844.278 312.628 844.278 296.633V259.728H827.212V300.935C827.212 331.657 845.115 349.35 872.446 349.35Z" fill="white"/>
<path d="M866.495 257.857C857.512 257.857 850.147 265.21 850.147 274.193C850.147 283.176 857.512 290.54 866.495 290.54C875.479 290.54 882.844 283.176 882.844 274.193C882.844 265.21 875.479 257.857 866.495 257.857ZM866.495 265.323C871.443 265.323 875.366 269.246 875.366 274.193C875.366 279.14 871.443 283.075 866.495 283.075C861.548 283.075 857.613 279.14 857.613 274.193C857.613 269.246 861.548 265.323 866.495 265.323Z" fill="white"/>
<path d="M1347.26 259.376V283.408H1441.5V325.869H1347.26V349.35H1443.27H1460.74V327.242V259.376H1347.26Z" fill="white"/>
<path d="M1568.63 258.764V298.723C1568.63 317.27 1547.95 327.243 1536.35 327.243H1472.12V349.35H1541.31C1559.39 349.35 1585.12 334.191 1585.12 303.667V258.764H1568.63ZM1472.18 259.229V283.408H1541.67V259.229H1472.18Z" fill="white"/>
<path d="M414.419 126.522C402.644 126.512 390.989 128.893 380.159 133.521C364.414 140.25 351 151.477 341.596 165.798C332.191 180.118 327.213 196.896 327.285 214.034C349.669 214.184 371.11 222.382 387.065 236.89C395.892 244.917 402.742 254.609 407.148 265.305C411.554 276.001 413.412 287.449 412.594 298.868L414.573 300.817C431.833 300.771 448.689 295.591 463.001 285.935C477.313 276.28 488.434 262.584 494.954 246.587C501.473 230.591 503.096 213.016 499.615 196.094C496.135 179.173 487.708 163.669 475.406 151.552C459.14 135.53 437.239 126.542 414.419 126.522Z" fill="white"/>
<path d="M240.953 39.9414C229.178 39.9312 217.523 42.3121 206.694 46.9401C190.948 53.6694 177.534 64.8963 168.13 79.2168C158.725 93.5372 153.748 110.315 153.819 127.453C176.203 127.603 197.644 135.801 213.599 150.31C222.427 158.337 229.277 168.029 233.683 178.724C238.088 189.42 239.946 200.868 239.129 212.288L241.108 214.236C258.367 214.19 275.223 209.01 289.535 199.355C303.847 189.699 314.969 176.003 321.488 160.006C328.007 144.01 329.63 126.435 326.15 109.514C322.669 92.5925 314.243 77.0884 301.941 64.971C285.674 48.9491 263.774 39.961 240.953 39.9414Z" fill="white"/>
<path d="M130.715 289.141C185.733 289.141 230.334 266.742 230.334 239.11C230.334 211.478 185.733 189.078 130.715 189.078C75.6972 189.078 31.0964 211.478 31.0964 239.11C31.0964 266.742 75.6972 289.141 130.715 289.141Z" fill="white"/>
<path d="M304.152 376.356C359.17 376.356 403.771 353.956 403.771 326.325C403.771 298.693 359.17 276.293 304.152 276.293C249.134 276.293 204.533 298.693 204.533 326.325C204.533 353.956 249.134 376.356 304.152 376.356Z" fill="white"/>
</svg>
