<svg width="2037" height="781" viewBox="0 0 2037 781" fill="none" xmlns="http://www.w3.org/2000/svg">
<g clip-path="url(#clip0_1_225)">
<path d="M235.529 466.081L598.369 107.073H642.929V352.71L891.188 107.073H935.747V466.081H872.091V214.145L617.466 466.081H572.907V214.145L318.282 466.081H235.529ZM1801.47 107.073H1763.28L1661.43 207.847V245.637H1737.81V466.081H1801.47V107.073ZM1279.49 107.073H1043.96C1004.18 107.073 973.941 155.885 973.941 195.25V233.04C973.941 272.405 1004.18 321.218 1043.96 321.218H1177.64C1209.47 321.218 1215.83 343.262 1215.83 359.008C1215.83 374.754 1209.47 396.799 1177.64 396.799H973.941V466.081H1209.47C1249.25 466.081 1279.49 417.268 1279.49 377.903V340.113C1279.49 300.748 1249.25 251.936 1209.47 251.936H1075.79C1043.96 251.936 1037.6 229.891 1037.6 214.145C1037.6 198.399 1043.96 176.355 1075.79 176.355H1279.49V107.073ZM1381.34 351.135C1381.34 390.5 1405.21 403.097 1429.08 403.097H1511.84C1535.71 403.097 1559.58 390.5 1559.58 351.135V107.073H1629.6V377.903C1629.6 425.141 1608.91 466.081 1553.21 466.081H1387.71C1332.01 466.081 1311.32 425.141 1311.32 377.903V107.073H1381.34V351.135ZM1804.65 497.573V541.661H222.798V497.573H1804.65ZM1316.09 662.905C1316.09 678.651 1303.36 692.823 1287.45 692.823H1257.21C1241.3 692.823 1228.57 678.651 1228.57 662.905V601.496C1228.57 585.75 1241.3 571.579 1257.21 571.579H1287.45C1303.36 571.579 1316.09 585.75 1316.09 601.496C1316.09 601.496 1315.82 613.904 1316.09 617.242H1281.08C1281.08 601.496 1281.08 596.772 1273.92 596.772C1266.76 596.772 1266.76 601.496 1266.76 617.242V645.585C1266.76 661.331 1266.76 666.055 1273.97 666.055C1281.08 666.055 1281.08 661.331 1281.08 645.585H1316.09C1316.09 652.371 1316.09 662.905 1316.09 662.905ZM275.314 571.579L290.401 632.988L305.551 571.579H353.293V691.248H318.282V618.817L297.594 691.248H283.271L262.583 618.817V691.248H227.572V571.579H275.314ZM436.046 571.579V598.347H402.627V617.242H431.272V644.01H402.627V664.48H436.046V691.248H364.433V571.579H436.046ZM445.594 691.248V571.579C453.567 571.579 491.745 571.579 491.745 571.579C533.122 571.579 533.122 599.922 533.122 599.922V662.905C533.122 662.905 533.122 691.248 501.294 691.248H445.594ZM582.455 571.579V691.248H544.262V571.579H582.455ZM614.283 571.579H666.8L690.671 691.248H652.477L649.294 669.204H631.789L628.606 691.248H590.412L614.283 571.579ZM771.832 644.01V664.48H805.252V691.248H733.639V571.579H805.252V598.347H771.832V617.242H800.478V644.01H771.832ZM851.403 571.579L872.091 631.413V571.579H907.102V691.248H872.091L848.22 626.69V691.248H813.209V571.579H851.403ZM956.435 691.248H918.241V571.579H956.435V617.242H972.349V571.579H1010.54V691.248H972.349V644.01H956.435V691.248ZM1042.37 571.579H1094.89L1118.76 691.248H1080.56L1077.38 669.204H1059.88L1056.69 691.248H1018.5L1042.37 571.579ZM1160.13 626.69V691.248H1125.12V571.579H1163.32L1184.01 631.413V571.579H1219.02V691.248H1184.01L1160.13 626.69ZM1363.83 644.01V664.48H1397.25V691.248H1325.64V571.579H1397.25V598.347H1363.83V617.242H1392.48V644.01H1363.83ZM1451.36 571.579L1468.12 632.988L1484.78 571.579H1530.93V691.248H1495.92V618.817L1475.23 691.248H1460.91L1440.22 620.391V691.248H1405.21V571.579H1451.36ZM1613.69 571.579V598.347H1580.27V617.242H1608.91V644.01H1580.27V664.48H1613.69V691.248H1542.07V571.579H1613.69ZM1659.84 571.579L1680.52 631.413V571.579H1715.53V691.248H1680.52L1656.65 626.69V691.248H1621.64V571.579H1659.84ZM1803.06 571.579V598.347H1782.37V691.248H1744.18V598.347H1723.49V571.579H1803.06ZM498.111 617.242C498.174 601.465 494.928 598.347 482.197 598.347V664.48C494.928 664.48 498.111 661.331 498.111 645.585V617.242ZM634.972 642.436H646.111L640.494 596.772L634.972 642.436ZM1063.06 642.436H1074.2L1068.65 596.772L1063.06 642.436Z" fill="white" stroke="white" stroke-width="1.44588"/>
<path d="M222.798 519.617V497.573H1013.73H1804.65V519.617V541.661H1013.73H222.798V519.617Z" fill="white" stroke="white" stroke-width="2.33267"/>
</g>
<defs>
<clipPath id="clip0_1_225">
<rect width="2037" height="781" fill="white"/>
</clipPath>
</defs>
</svg>
