<svg width="2236" height="775" viewBox="0 0 2236 775" fill="none" xmlns="http://www.w3.org/2000/svg">
<g clip-path="url(#clip0_1_176)">
<g clip-path="url(#clip1_1_176)">
<path d="M159.435 0C139.459 0 120.028 16.4209 116.467 36.7543L102.247 107.359C101.871 116.252 103.117 128.392 105.893 130.656C109.426 150.243 174.781 240.944 172.901 254.751C171.146 268.6 163.435 309.351 163.435 309.351C161.064 323.08 151.683 334.082 137.951 334.082C124.198 334.082 114.817 323.123 117.189 309.351L129.568 241.659H80.7623L64.3721 335.561C61.0303 354.617 73.9549 369.761 93.1417 369.761H162.71C181.985 369.761 200.329 354.617 203.862 335.561C203.862 335.561 221.782 247.853 221.697 241.659C221.633 235.418 219.891 234.739 219.891 234.739C219.891 227.608 161.733 131.665 155.786 128.092C153.233 126.606 151.127 117.104 151.042 111.363C150.936 105.657 158.702 67.3215 158.702 67.3215C161.064 53.5891 174.08 42.577 187.833 42.577C201.575 42.577 207.317 53.5891 204.946 67.3215L194.396 128.092H243.556L260.679 36.7437C264.552 16.4209 251.521 0 231.549 0H159.435ZM293.46 0L235.195 335.571C231.857 354.628 244.767 369.771 263.964 369.771H333.536C352.797 369.771 371.485 354.628 375.05 335.571L437.322 0H393.617L334.248 326.101C333.387 330.842 328.782 334.835 324.059 334.835H289.449C284.61 334.835 281.378 330.873 282.164 326.101L340.078 0H293.46ZM460.997 0L390.703 369.771H437.322L469.38 202.354H528.739C548.053 202.354 566.358 187.093 569.888 168.139L595.383 36.7543C599.234 16.3785 586.235 0 566.263 0H507.615H460.997ZM627.441 0L554.605 369.771H659.496L666.77 323.912H615.058L636.192 199.082H687.904L695.182 160.498H643.481L666.42 45.8597H718.143L725.407 0H627.441ZM752.732 0L682.81 369.771H729.428L761.115 202.354H794.267C798.614 206.415 799.138 213.886 799.712 217.639C800.572 223.08 801.489 230.031 800.816 235.472C800.211 240.87 775.314 369.761 775.314 369.761H821.939C821.939 369.761 848.16 229.352 848.16 227.098C848.245 224.802 848.16 217.607 845.625 213.631C843.915 211.081 840.977 205.223 837.597 203.086C831.087 198.912 823.748 196.156 823.748 196.156H820.463C833.809 190.906 858.953 182.254 861.633 168.139L887.118 36.7543C890.99 16.3785 877.97 0 857.987 0H752.732ZM1002.22 0L931.916 369.771H985.459L1028.79 155.408L1045.91 369.771H1092.54L1162.83 0H1109.29L1072.88 193.255L1048.83 0H1002.22ZM1187.22 0L1116.94 369.771H1163.56L1233.84 0H1187.22ZM1258.23 0L1187.95 369.771H1241.86L1285.2 155.408L1302.31 369.771H1348.94L1419.23 0H1365.32L1329.27 193.255L1305.23 0H1258.23ZM1438.9 0L1430.15 45.8597H1459.28L1401.74 369.771H1454.92L1513.56 45.8597H1541.59L1548.88 0H1438.9ZM1567.1 0L1494.26 369.771H1599.15L1606.43 323.912H1554.72L1576.21 199.082H1627.92L1635.21 160.498H1583.49L1606.06 45.8597H1657.78L1665.07 0H1567.1ZM1685.47 0L1615.17 369.771H1669.06L1712.42 155.408L1729.54 369.771H1776.16L1846.45 0H1792.55L1756.48 193.255L1732.44 0H1685.47ZM1870.86 0L1800.55 369.771H1906.9C1926.21 369.771 1944.84 354.628 1948.43 335.571L2004.87 36.7649C2008.7 16.3785 1995.72 0 1975.73 0H1870.86ZM2070.8 0C2050.8 0 2031.75 16.4209 2028.18 36.7543L1976.09 335.561C1972.71 354.628 1985.34 369.771 2004.52 369.771H2081.36C2100.62 369.771 2119.3 354.617 2122.88 335.561L2179.32 36.7543C2183.2 16.4209 2170.14 0 2150.2 0H2070.8ZM1910.55 42.5876H1932.04C1945.78 42.5876 1955.16 53.5891 1952.79 67.3322L1906.9 309.362C1904.5 323.091 1891.15 334.475 1877.39 334.475H1856.27L1910.55 42.5876ZM2098.11 42.5876H2099.57C2113.31 42.5876 2122.33 53.5891 2119.96 67.3322L2076.26 309.362C2073.88 323.049 2061.22 334.475 2047.49 334.475C2033.73 334.475 2028 323.091 2030.36 309.362L2073.7 67.3322L2074.05 66.2355L2074.42 65.1425L2074.78 63.685L2075.14 62.5919L2075.51 61.1345L2075.86 60.0414L2076.23 58.9448L2076.95 57.8624L2077.31 56.7657L2078.05 55.6727L2078.41 54.5867L2079.14 53.4936L2079.88 52.7578L2080.59 51.6753L2081.34 50.5822L2082.42 49.8464L2083.16 49.1142L2083.89 48.3819L2084.97 47.6461L2086.07 46.9245L2086.81 46.2029L2087.89 45.4671L2088.99 45.1062L2090.08 44.374L2090.81 44.0132L2092.26 43.6417L2093.35 43.288H2094.44L2095.53 42.9166H2096.99L2098.11 42.5876ZM505.785 44.045H528.378C533.334 44.045 543.851 55.3861 542.948 60.4235L523.634 151.775C522.738 156.505 516.359 167.407 511.637 167.407L483.873 167.853L479.207 165.599C479.207 165.599 475.865 161.277 477.005 158.691L498.861 46.9563C500.872 45.3079 503.318 44.045 505.785 44.045ZM796.051 44.045H796.426H796.787H797.149H797.51H818.643C823.61 44.045 834.184 55.3861 833.203 60.4235L813.889 151.4C813.05 156.172 801.191 167.418 796.426 167.418H776.386C772.248 167.418 769.398 164.697 769.101 160.88C769.101 160.276 769.016 159.405 769.101 158.691L790.596 46.9563L790.946 46.5955L791.318 46.2453L792.033 45.8739H792.394L792.755 45.5095L793.117 45.1487H793.478L793.839 44.7879H794.214L794.936 44.4271H795.297H795.648H796.009V44.0662H796.051V44.045ZM56 401.796V523H2134.89V401.796H56ZM1584.23 414.538H1584.58H1584.94H1585.31H1585.66H1586.02H1602.05C1606.38 414.538 1609.47 417.994 1608.6 422.543L1604.59 442.926H1594.76L1596.93 429.463C1597.43 426.42 1595.63 423.997 1592.57 423.997C1589.53 423.997 1586.52 426.41 1586.02 429.463L1584.21 439.304C1583.89 439.877 1584.81 442.64 1585.29 442.937C1586.64 443.715 1599.5 465.014 1599.5 466.585C1599.79 467.374 1599.97 467.756 1599.85 468.053C1599.49 470.71 1595.84 488.79 1595.84 488.79C1595.06 492.935 1591.02 496.42 1586.74 496.42H1571.44C1567.19 496.42 1564.46 492.935 1565.25 488.79L1568.91 468.053H1579.46L1576.93 482.974C1576.44 486.006 1578.2 488.79 1581.28 488.79C1584.23 488.79 1587.37 486.027 1587.85 482.974L1590.03 470.954C1588.08 465.937 1575.19 447.635 1574.36 443.287C1573.8 442.799 1573.57 440.174 1573.64 438.197C1573.76 436.039 1576.55 422.543 1576.55 422.543H1576.93V422.179V421.829V421.468L1577.28 420.736V420.386L1577.63 420.014V419.65L1577.99 419.3V418.928L1578.35 418.578L1578.72 418.206V417.856H1579.07L1579.45 417.492L1579.8 417.12L1580.16 416.77V416.399H1580.52L1580.87 416.049L1581.22 415.688H1581.59L1581.96 415.327H1582.32L1582.68 414.973H1583.04H1583.78L1584.23 414.538ZM1667.98 414.538H1681.09L1682.91 445.477L1699.66 414.538H1712.79L1685.84 461.855L1679.29 496.42H1667.63L1673.47 459.294L1667.98 414.538ZM1787.08 414.538H1787.44H1787.81H1788.16H1788.53H1788.88H1804.91C1809.23 414.538 1812.25 417.994 1811.46 422.543L1807.45 442.926H1797.61L1799.8 429.463C1800.29 426.42 1798.52 423.997 1795.43 423.997C1792.39 423.997 1789.36 426.41 1788.88 429.463L1787.06 439.304C1786.68 439.877 1787.55 442.64 1788.15 442.937C1789.43 443.715 1802.36 465.014 1802.36 466.585C1802.74 467.374 1802.73 467.756 1802.73 468.053C1802.23 470.71 1799.08 488.79 1799.08 488.79C1798.29 492.935 1794.21 496.42 1789.96 496.42H1774.31C1770.06 496.42 1767.32 492.935 1768.1 488.79L1771.75 468.053H1782.32L1779.77 482.974C1779.28 486.016 1781.17 488.8 1784.14 488.8C1787.17 488.8 1790.09 486.037 1790.69 482.974L1792.87 470.964C1790.88 465.948 1778.05 447.645 1777.21 443.298C1776.66 442.799 1776.43 440.185 1776.49 438.207C1776.6 436.039 1779.4 422.554 1779.4 422.554L1779.75 422.19V421.839V421.479L1780.11 420.746V420.386L1780.48 420.014V419.66L1780.84 419.3V418.928L1781.2 418.578L1781.56 418.206V417.856H1781.93L1782.27 417.492L1782.64 417.12L1783 416.77L1783.36 416.399L1783.72 416.049L1784.08 415.688H1784.44L1784.82 415.327H1785.17L1785.53 414.973H1785.88H1786.6L1787.08 414.538ZM1871.94 414.538H1896.36L1894.53 424.369H1888.33L1875.58 496.43H1863.57L1876.31 424.369H1870.12L1871.94 414.538ZM1967.35 414.538H1989.21L1987.38 424.369H1976.09L1971 450.206H1982.64L1980.82 458.572H1969.52L1964.8 486.239H1976.07L1974.63 496.42H1951.31L1967.35 414.538ZM2057.32 414.538H2070.8L2072.97 461.855L2093.73 414.899L2106.83 414.538L2093.02 496.42H2082.82L2089.36 453.121L2071.14 496.42H2063.85L2061.68 452.014L2053.66 496.42H2041.64L2057.32 414.538ZM101.16 417.46H122.655L121.189 427.634H109.542L104.81 453.121H116.106L114.637 461.866H102.979L98.6181 489.522H109.904L108.084 499.713H84.7696L101.16 417.46ZM201.682 417.46H211.88L217.339 460.401L225.347 417.46H237.375L221.697 499.692H211.509L207.498 452.003L198.032 499.692H186.014L201.682 417.46ZM310.944 417.46H334.984L333.536 427.634H327.334L314.222 499.703H302.586L315.316 427.634H308.763L310.944 417.46ZM416.931 417.46H438.78L436.961 427.634H425.665L420.57 453.121H431.856L430.397 461.866H419.112L414.379 489.522H425.675L424.217 499.713H400.916L416.931 417.46ZM519.644 417.46H542.948C547.267 417.46 550 421.277 549.14 425.816L543.681 454.925C543.076 458.084 537.525 460.656 534.566 461.855H535.302H535.663H536.035V462.205H536.396H536.767H537.118H537.493L537.854 462.57H538.215H538.576H538.948V462.92H539.309H539.681V463.291H540.045C540.534 464.172 540.768 466.786 540.768 467.289C540.768 467.777 534.927 499.681 534.927 499.681H524.367C524.367 499.681 530.013 471.028 530.204 469.85C530.325 468.573 530.066 467.034 529.843 465.853C529.758 464.972 529.716 463.461 528.749 462.57H521.464L514.54 499.681H503.976L519.644 417.46ZM623.791 417.46H648.192L646.745 427.634H640.553L627.441 499.703H615.784L628.535 427.634H621.982L623.791 417.46ZM745.075 417.46H758.924L754.552 499.692H740.703L742.523 480.763H734.151L727.226 499.692H714.858L745.075 417.46ZM841.968 417.46H852.518L836.853 499.692H826.651L841.968 417.46ZM935.927 417.46H946.126L951.581 460.401L959.613 417.46H971.26L955.964 499.692H945.404L941.754 452.003L932.277 499.692H920.27L935.927 417.46ZM1056.49 417.46H1069.96L1072.13 465.142L1092.92 417.835H1106.01L1092.17 499.713H1081.97L1088.52 456.404L1070.3 499.713H1063.02L1060.84 455.322L1052.84 499.713H1041.17L1056.49 417.46ZM1188.69 417.46H1210.17L1208.71 427.634H1197.06L1192.34 453.121H1203.63L1202.16 461.866H1190.52L1185.79 489.522H1197.42L1195.6 499.713H1172.67L1188.69 417.46ZM1294.3 417.46H1304.49L1309.96 460.401L1317.97 417.46H1329.62L1314.34 499.692H1304.13L1300.13 452.003L1290.65 499.692H1278.63L1294.3 417.46ZM1402.47 417.46H1426.87L1425.06 427.634H1418.86L1406.12 499.703H1394.46L1407.22 427.634H1400.67L1402.47 417.46ZM529.471 427.273C528.898 427.273 528.42 427.613 528.006 428.005L523.273 452.746C523.273 452.951 523.273 452.92 523.273 453.121C523.273 453.907 523.825 454.565 524.728 454.565H529.1C530.183 454.565 532.909 452.385 533.111 451.292L537.107 430.906C537.298 429.739 535.291 427.262 534.194 427.262L529.471 427.273ZM745.075 452.014L737.425 472.761H743.256L745.075 452.014Z" fill="white"/>
</g>
<path d="M780.5 696.5L777.5 681.75L779.75 679.5H792.75C793.917 679.5 795.25 679.5 796.75 679.5C798.417 679.5 800.333 679.583 802.5 679.75L825.25 678C827.583 678 829.75 677.917 831.75 677.75C833.75 677.583 835.583 677.083 837.25 676.25C837.583 675.75 838.083 675.333 838.75 675C839.417 674.5 840.167 673.167 841 671L842 662.25C843.167 662.583 843.167 660.833 842 657C841.333 655.167 840.917 653.75 840.75 652.75C840.75 651.583 841.333 651 842.5 651C842.833 649.5 843.333 647.5 844 645C844.667 642.333 845.333 639.5 846 636.5C846.833 633.333 847.583 630.167 848.25 627C848.917 623.667 849.5 620.583 850 617.75L865.75 611.5C867.583 611.333 869.583 611.083 871.75 610.75C873.917 610.417 876.167 610.083 878.5 609.75C880.667 609.417 882.5 609.167 884 609C885.667 608.667 887.167 608.333 888.5 608L893.75 612.75V625.5C891.417 627.667 889.417 630 887.75 632.5C886.083 634.833 885.083 637.333 884.75 640L884 645C883.667 647.833 883.167 650.833 882.5 654C882 657.167 881.333 659.333 880.5 660.5L879.75 662.5L881 666.75C881.167 667.583 881.417 667.833 881.75 667.5C881.917 667.333 882.167 667.333 882.5 667.5C882 668.667 881.417 670 880.75 671.5C880.083 673 879.333 674.75 878.5 676.75C877.5 678.417 877 679.75 877 680.75C877 681.583 877.583 681.833 878.75 681.5C878.75 681.833 878.583 684.333 878.25 689C878.083 693.667 877.583 700.75 876.75 710.25C876.417 714.917 876.083 718.417 875.75 720.75C875.583 722.917 875.417 724.5 875.25 725.5C875.25 726.333 875.167 726.833 875 727C875 727.167 875 727.5 875 728C873.833 730.5 872.917 732.833 872.25 735C871.75 737.167 871.5 738.667 871.5 739.5C871.333 740 871.417 740.583 871.75 741.25C872.25 741.917 872.667 742.583 873 743.25C873.667 744.25 874.25 745 874.75 745.5L875.75 753.75L869.5 760.25L837.25 765.75H837L830.5 760C830.667 759.5 830.833 758.75 831 757.75C831.167 756.75 831.333 755.583 831.5 754.25C831.833 751.917 832 750.333 832 749.5C832.167 748.667 832.167 747.333 832 745.5C831.833 744.5 832.083 741.833 832.75 737.5C833.417 733 834 727.25 834.5 720.25C835.5 706.75 835.333 700 834 700C833.167 700 833 698.417 833.5 695.25C832.5 695.25 831.333 695.333 830 695.5C828.667 695.5 827.833 695.583 827.5 695.75C824.167 697.25 821 698.333 818 699C815.167 699.5 812.917 699.75 811.25 699.75C810.083 699.75 808 699.333 805 698.5C802 697.5 797.833 697.083 792.5 697.25L783 697.75L780.5 696.5ZM759.25 760.75L749 761H738.75L736.5 761.25L724.25 756.5C724.417 754.833 724.583 753 724.75 751C724.917 749 725.083 746.667 725.25 744C725.583 739 725.75 735.083 725.75 732.25C725.917 729.25 726 727.25 726 726.25V718.5C726 715.5 725.417 714 724.25 714L726 700C728 694.667 729.25 688 729.75 680C730.083 675.5 730.583 670.667 731.25 665.5C732.083 660.167 733.083 656 734.25 653L735.25 640.25C736.417 640.417 736.417 638.75 735.25 635.25C734.25 631.417 734.833 629.5 737 629.5C737.333 627.5 737.583 625.75 737.75 624.25C738.083 622.583 738.25 621.083 738.25 619.75C738.083 617.75 738.333 614.417 739 609.75L742.25 608.25C744.417 609.083 747.5 609.75 751.5 610.25C755.667 610.75 759.5 611.25 763 611.75C765.167 612.083 767.083 612.333 768.75 612.5C770.417 612.5 771.833 612.583 773 612.75L776.5 617.5L775.75 626.5C774.75 634.833 774.75 639 775.75 639C773.583 642.833 772 646.583 771 650.25C770.167 653.917 769.333 657.25 768.5 660.25C767.833 662.75 767.5 667.583 767.5 674.75C767.5 676.583 767.75 677.917 768.25 678.75C768.75 679.417 769.417 679.917 770.25 680.25C771.25 680.583 772.167 680.667 773 680.5C772 681.5 771.083 682.917 770.25 684.75C769.417 686.417 768.583 688.5 767.75 691C766.917 693.333 766.167 695.833 765.5 698.5C765 701 764.583 703.5 764.25 706C763.917 708.333 763.917 710.417 764.25 712.25C764.417 713.917 764.75 716.083 765.25 718.75C765.75 721.417 766.25 724.333 766.75 727.5C767.25 730.667 767.667 734 768 737.5C768.333 741 768.5 744.333 768.5 747.5C766.5 749 766 751.5 767 755L767.25 755.5L759.25 760.75ZM1060.68 761.5L1051.93 763C1049.93 763.333 1047.85 763.333 1045.68 763C1043.51 762.667 1041.26 762.5 1038.93 762.5C1038.43 762.5 1037.68 762.5 1036.68 762.5C1035.68 762.5 1034.51 762.5 1033.18 762.5C1032.01 762.5 1030.85 762.583 1029.68 762.75C1028.51 762.75 1027.51 762.75 1026.68 762.75L1021.18 759C1021.68 755.667 1021.51 753.25 1020.68 751.75C1020.01 750.25 1019.51 748.833 1019.18 747.5C1018.85 746.5 1018.18 744.917 1017.18 742.75C1016.18 740.583 1015.26 738.083 1014.43 735.25C1014.43 734.75 1013.6 733.25 1011.93 730.75C1010.26 728.25 1008.93 726 1007.93 724L1004.93 725.25C1004.1 725.25 1003.18 725.5 1002.18 726C1001.18 726.5 998.682 726.75 994.682 726.75C994.182 725.75 993.348 725.083 992.182 724.75C991.015 724.25 989.682 724.167 988.182 724.5C986.848 724.667 985.432 725.167 983.932 726C982.598 726.833 981.432 727.833 980.432 729L970.182 730.5C969.515 729 968.765 727.833 967.932 727C967.265 726 966.515 725.083 965.682 724.25C965.015 723.417 964.432 722.5 963.932 721.5C963.432 720.5 963.182 719.167 963.182 717.5C966.515 716.667 968.432 715.583 968.932 714.25C969.598 712.917 970.098 712.333 970.432 712.5C971.432 713 972.348 713.25 973.182 713.25C972.015 713.25 971.682 713.083 972.182 712.75C972.682 712.417 974.932 711.583 978.932 710.25L997.182 708L1000.93 710.75C1003.6 711.417 1005.6 711.583 1006.93 711.25C1008.26 710.917 1009.18 710.333 1009.68 709.5C1010.18 708.5 1010.43 707.417 1010.43 706.25C1010.6 705.083 1010.76 704.083 1010.93 703.25C1011.26 701.417 1010.85 699.917 1009.68 698.75C1008.68 697.417 1007.26 696.25 1005.43 695.25C1005.1 693.417 1004.43 691.333 1003.43 689C1002.6 686.5 1001.51 683.583 1000.18 680.25C999.015 677.083 997.932 673.75 996.932 670.25C996.098 666.583 995.348 663.25 994.682 660.25C994.015 657.25 993.515 654.75 993.182 652.75C992.848 650.75 992.598 649.583 992.432 649.25C990.098 647.75 988.182 647.667 986.682 649C985.182 650.167 983.932 651.917 982.932 654.25C982.098 656.583 981.515 659.083 981.182 661.75C981.015 664.25 981.015 666 981.182 667C981.015 667.333 980.598 667.917 979.932 668.75C979.265 669.417 978.515 670.167 977.682 671C976.848 671.833 976.098 672.667 975.432 673.5C974.765 674.167 974.348 674.667 974.182 675C973.515 676.167 973.348 677.417 973.682 678.75C974.015 680.083 973.765 681.25 972.932 682.25C969.598 688.25 965.682 693 961.182 696.5C960.015 697.5 959.098 698.917 958.432 700.75C957.765 702.583 957.348 704.5 957.182 706.5C957.015 708.5 957.182 710.5 957.682 712.5C958.182 714.333 959.098 715.833 960.432 717C958.765 718 957.432 719.083 956.432 720.25C955.598 721.25 954.848 722.417 954.182 723.75C953.682 724.917 953.182 726.25 952.682 727.75C952.182 729.083 951.598 730.583 950.932 732.25C948.098 739.75 946.682 743.667 946.682 744L943.182 751.25L939.932 764.5C940.098 767 939.182 768.5 937.182 769C935.348 769.5 932.348 769.75 928.182 769.75C924.182 770.75 920.682 771.25 917.682 771.25C914.682 771.083 913.682 769.5 914.682 766.5C919.015 756.167 922.182 748.5 924.182 743.5C926.348 738.333 927.432 734.417 927.432 731.75C927.432 730.917 927.765 730.25 928.432 729.75C929.265 729.083 929.932 728.583 930.432 728.25C930.598 727.917 931.182 726.167 932.182 723C933.348 719.833 934.598 716.333 935.932 712.5C937.265 708.5 938.515 704.75 939.682 701.25C941.015 697.583 942.015 695.083 942.682 693.75C944.182 690.583 945.932 687 947.932 683C950.098 679 952.598 675.167 955.432 671.5C956.932 669.5 958.182 666.75 959.182 663.25C960.348 659.75 961.432 655.917 962.432 651.75C963.432 647.583 964.515 643.333 965.682 639C966.848 634.667 968.348 630.667 970.182 627C971.182 626.667 974.098 623 978.932 616C979.265 615.667 979.515 615.333 979.682 615C980.015 614.5 980.348 614.083 980.682 613.75L1012.68 611.75C1013.35 612.583 1014.1 613.583 1014.93 614.75C1015.76 615.917 1016.68 617.167 1017.68 618.5C1020.85 622.5 1022.76 625.667 1023.43 628C1024.1 630.333 1024.51 631.917 1024.68 632.75C1024.35 633.25 1026.1 638.917 1029.93 649.75C1030.93 652.417 1031.76 655.417 1032.43 658.75C1033.1 662.083 1033.6 665.25 1033.93 668.25C1034.26 671.083 1034.43 673.583 1034.43 675.75C1034.43 677.75 1034.35 678.833 1034.18 679C1033.85 679.167 1036.51 681.25 1042.18 685.25C1043.51 686.25 1044.26 687.167 1044.43 688C1044.76 688.833 1044.76 689.583 1044.43 690.25C1044.26 690.917 1043.93 691.5 1043.43 692C1042.93 692.5 1042.68 692.833 1042.68 693L1049.43 702C1049.43 702 1051.35 709.25 1055.18 723.75C1057.35 730.75 1058.93 736.75 1059.93 741.75C1060.93 746.583 1061.43 750.333 1061.43 753C1061.43 753.333 1061.51 753.583 1061.68 753.75C1061.68 753.583 1061.85 754 1062.18 755L1060.68 761.5ZM1184.06 627L1167.06 626.75L1153.06 631.5C1152.56 631.5 1150.9 634.167 1148.06 639.5C1146.9 642.167 1145.48 645.083 1143.81 648.25C1142.31 651.417 1141.23 653.417 1140.56 654.25L1134.81 691.75C1134.48 691.75 1133.31 694.583 1131.31 700.25C1130.48 703.083 1129.65 705.417 1128.81 707.25C1127.98 708.917 1127.31 710.25 1126.81 711.25C1126.81 712.417 1128.4 715.583 1131.56 720.75L1137.56 717.25L1143.06 728L1139.81 734.25C1140.31 735.083 1140.73 735.833 1141.06 736.5C1141.4 737 1141.73 737.5 1142.06 738L1142.81 739.5C1142.81 740 1143.81 741.333 1145.81 743.5C1147.65 745.833 1149.15 747 1150.31 747C1152.15 747 1153.48 746.667 1154.31 746C1155.31 745.333 1156.06 745 1156.56 745C1157.06 745 1157.65 745.333 1158.31 746C1158.98 746.5 1159.56 746.833 1160.06 747C1167.9 748 1174.73 746.25 1180.56 741.75C1182.4 741.417 1184.81 741.083 1187.81 740.75C1190.81 740.417 1193.31 739.167 1195.31 737C1195.98 736.833 1196.81 736.333 1197.81 735.5C1198.81 734.667 1199.9 733.75 1201.06 732.75C1202.23 731.583 1203.48 730.417 1204.81 729.25C1206.15 728.083 1207.56 727.083 1209.06 726.25C1209.9 725.75 1210.56 726.167 1211.06 727.5C1211.73 728.833 1212.4 729.333 1213.06 729L1215.56 732L1211.31 744.75L1201.81 752.25L1188.31 756C1184.15 757.333 1179.65 758.75 1174.81 760.25C1170.15 761.75 1166.73 762.667 1164.56 763C1162.73 763.167 1160.73 763.583 1158.56 764.25C1156.4 764.75 1154.31 765.333 1152.31 766C1150.31 766.5 1148.56 767 1147.06 767.5C1145.56 767.833 1144.65 768 1144.31 768C1137.98 768 1133.4 768.083 1130.56 768.25C1127.73 768.25 1125.65 768.25 1124.31 768.25L1101.81 751.75C1101.48 748.583 1098.98 743.583 1094.31 736.75C1089.81 730.583 1087.56 726.75 1087.56 725.25L1089.81 704.75C1090.31 701.25 1090.73 697.667 1091.06 694C1091.4 690.167 1091.65 686.667 1091.81 683.5C1091.98 680.333 1092.06 677.583 1092.06 675.25C1092.23 672.917 1092.31 671.5 1092.31 671C1093.65 670.333 1095.56 668.75 1098.06 666.25C1100.56 663.583 1102.81 659.917 1104.81 655.25C1108.98 646.583 1110.48 638.917 1109.31 632.25C1110.15 631.917 1112.48 631.333 1116.31 630.5C1120.15 629.667 1124.06 628.417 1128.06 626.75C1132.06 625.25 1135.15 624.083 1137.31 623.25C1139.48 622.417 1140.73 621.917 1141.06 621.75C1141.23 621.583 1141.9 621.333 1143.06 621C1144.4 620.667 1145.81 620.417 1147.31 620.25C1148.98 619.917 1150.56 619.667 1152.06 619.5C1153.56 619.167 1154.65 619 1155.31 619L1163.06 611.5L1185.56 611.25L1191.06 614.75L1189.56 622.75L1184.06 627ZM1239.68 752.25C1240.01 748.75 1240.26 743.417 1240.43 736.25C1240.76 731.417 1241.35 727.667 1242.18 725C1243.01 722.167 1243.43 720.25 1243.43 719.25C1243.43 718.583 1243.51 717.75 1243.68 716.75C1243.85 715.75 1243.93 714.75 1243.93 713.75C1243.93 712.75 1243.68 711.917 1243.18 711.25C1242.85 710.583 1242.18 710.25 1241.18 710.25L1242.68 694.75C1244.51 689.917 1245.51 683.5 1245.68 675.5C1245.85 671.667 1245.85 668.083 1245.68 664.75C1245.51 661.417 1245.85 658.417 1246.68 655.75L1247.43 644.75C1250.6 645.25 1251.43 643.833 1249.93 640.5C1249.43 638.667 1249.01 637.333 1248.68 636.5C1248.51 635.667 1248.68 635.25 1249.18 635.25C1249.51 633.417 1249.68 631.167 1249.68 628.5C1249.85 625.667 1250.1 621.333 1250.43 615.5L1255.43 612.75C1257.76 613.75 1261.01 614.667 1265.18 615.5C1269.51 616.167 1273.1 616.667 1275.93 617C1279.26 617.5 1281.93 617.917 1283.93 618.25C1285.93 618.417 1287.26 618.583 1287.93 618.75L1289.93 623.25C1289.26 626.75 1288.68 630.417 1288.18 634.25C1287.85 637.917 1287.51 641.583 1287.18 645.25C1287.01 648.75 1286.76 652.167 1286.43 655.5C1286.1 658.667 1285.68 661.417 1285.18 663.75C1284.51 665.417 1284.35 669.833 1284.68 677C1284.85 677.833 1284.93 678.667 1284.93 679.5C1284.93 680.333 1284.93 681.083 1284.93 681.75V684.75C1284.93 685.917 1284.85 686.75 1284.68 687.25C1282.35 688.583 1280.76 690.833 1279.93 694C1279.26 697 1279.18 700.417 1279.68 704.25C1280.01 705.75 1280.51 707 1281.18 708C1281.85 708.833 1282.51 711 1283.18 714.5C1283.68 716.333 1283.93 718.417 1283.93 720.75C1284.1 723.083 1284.1 725.417 1283.93 727.75C1283.93 730.083 1283.85 732.417 1283.68 734.75C1283.51 736.917 1283.43 738.833 1283.43 740.5C1281.26 742.167 1280.26 744.083 1280.43 746.25C1280.6 748.25 1280.85 750.083 1281.18 751.75C1280.35 752.25 1279.51 752.667 1278.68 753C1278.35 753.167 1278.1 753.25 1277.93 753.25C1277.76 753.25 1277.6 753.333 1277.43 753.5C1276.76 753.833 1276.18 754.083 1275.68 754.25C1275.35 754.417 1275.01 754.583 1274.68 754.75H1274.43L1274.68 754.5C1275.01 754.167 1275.18 753.917 1275.18 753.75C1274.68 753.917 1272.68 754 1269.18 754H1253.93C1252.26 754.167 1250.43 754.333 1248.43 754.5C1246.43 754.667 1244.68 754.917 1243.18 755.25L1239.68 752.25ZM1386.43 762.75H1356.68L1343.93 759.5L1344.93 747.5L1335.68 734.25L1322.93 717.25L1306.93 704.75L1298.93 703.25C1297.76 699.75 1296.35 696.75 1294.68 694.25C1294.35 693.583 1294.01 693 1293.68 692.5C1293.35 692 1293.01 691.583 1292.68 691.25C1292.18 690.25 1291.6 689.5 1290.93 689L1289.68 687.5C1290.85 686 1291.85 685.083 1292.68 684.75C1293.51 684.417 1294.43 684.083 1295.43 683.75C1296.43 683.417 1297.6 682.667 1298.93 681.5C1300.43 680.167 1302.51 677.75 1305.18 674.25C1306.68 672.083 1308.01 670.25 1309.18 668.75C1310.51 667.083 1311.6 665.667 1312.43 664.5C1312.93 663.833 1313.43 663.25 1313.93 662.75C1314.43 662.083 1314.85 661.583 1315.18 661.25C1316.85 659.917 1319.93 657 1324.43 652.5C1329.1 648 1335.01 641.75 1342.18 633.75C1347.01 628.417 1351.1 624 1354.43 620.5C1357.93 616.833 1360.68 614 1362.68 612L1368.43 610.75C1369.6 612.083 1370.6 613.25 1371.43 614.25C1372.43 615.083 1373.26 616 1373.93 617C1375.26 616.333 1376.43 616.583 1377.43 617.75C1378.43 618.75 1379.18 619.833 1379.68 621C1379.68 621.333 1380.01 621.75 1380.68 622.25C1381.51 622.75 1382.26 623.333 1382.93 624C1383.6 624.5 1384.1 625.167 1384.43 626C1384.76 626.667 1384.43 627.417 1383.43 628.25L1378.93 632.75C1378.26 633.417 1377.6 634.083 1376.93 634.75C1376.43 635.25 1376.01 635.833 1375.68 636.5C1374.18 637.667 1370.43 639.583 1364.43 642.25C1358.1 645.083 1354.1 647.417 1352.43 649.25C1351.6 650.417 1350.68 651.833 1349.68 653.5C1348.85 655.167 1347.85 656.917 1346.68 658.75C1345.68 660.417 1344.51 662 1343.18 663.5C1342.01 665 1340.76 666.083 1339.43 666.75C1339.26 666.917 1339.01 667.083 1338.68 667.25C1338.51 667.417 1337.93 668 1336.93 669C1336.76 668.833 1336.51 668.667 1336.18 668.5C1336.01 668.333 1335.76 668.083 1335.43 667.75C1335.26 667.583 1335.1 667.5 1334.93 667.5C1334.76 667.333 1334.6 667.167 1334.43 667C1334.1 667.833 1333.51 668.333 1332.68 668.5C1332.35 668.667 1331.76 668.75 1330.93 668.75C1328.93 670.25 1327.85 672 1327.68 674C1327.68 675.833 1328.1 677.417 1328.93 678.75C1329.1 678.917 1328.35 679.833 1326.68 681.5C1325.18 683.167 1323.85 684.833 1322.68 686.5L1329.93 690.25L1342.18 705.75L1367.68 730.75L1386.43 749.5L1392.68 753L1392.43 757.5L1386.43 762.75ZM1274.18 755L1274.43 754.75L1274.18 755ZM1422.69 746L1451.19 741.75L1478.44 733.75L1484.94 723.25L1482.19 712.5L1475.69 704.5C1473.86 703.333 1471.94 702.25 1469.94 701.25C1468.11 700.083 1466.19 699.25 1464.19 698.75C1462.36 698.083 1460.44 697.833 1458.44 698C1456.61 698 1454.77 698.583 1452.94 699.75L1446.69 704.25L1425.94 694.5L1418.44 675.25L1424.94 643L1436.44 627.75C1436.94 628.917 1437.94 629.333 1439.44 629C1440.94 628.667 1442.44 628 1443.94 627C1445.44 626 1446.69 624.833 1447.69 623.5C1448.69 622 1448.94 620.667 1448.44 619.5C1451.27 618.667 1454.52 617.833 1458.19 617C1461.86 616 1465.02 614.583 1467.69 612.75L1499.94 606L1505.19 605.5L1509.69 610.75L1505.69 621.5L1496.44 624L1484.44 625.25L1466.19 634.5L1457.69 645.5C1455.02 648 1453.69 650.75 1453.69 653.75C1453.86 656.583 1454.61 659.667 1455.94 663C1457.77 666.833 1459.11 669.333 1459.94 670.5C1460.94 671.5 1462.19 672.417 1463.69 673.25L1478.44 678.25C1480.11 679.583 1481.61 680.667 1482.94 681.5C1484.44 682.167 1486.11 682.583 1487.94 682.75C1489.77 682.917 1492.36 683.083 1495.69 683.25C1499.19 683.417 1503.61 683.667 1508.94 684C1510.44 686.833 1512.19 689.333 1514.19 691.5C1516.19 693.5 1518.11 696.167 1519.94 699.5L1524.94 710.75L1517.44 735.75L1511.44 742.25L1499.19 760H1492.94C1490.77 760 1488.11 760.083 1484.94 760.25C1481.94 760.25 1478.36 760.25 1474.19 760.25C1470.02 760.25 1466.36 760.667 1463.19 761.5C1460.02 762.333 1457.19 763.25 1454.69 764.25C1452.19 765.083 1450.02 765.833 1448.19 766.5C1446.36 767.167 1444.69 767.417 1443.19 767.25L1434.19 764.5L1419.19 767L1413.94 756.25L1415.44 750L1422.69 746Z" fill="white"/>
</g>
<defs>
<clipPath id="clip0_1_176">
<rect width="2236" height="775" fill="white"/>
</clipPath>
<clipPath id="clip1_1_176">
<rect width="2124" height="523" fill="white" transform="translate(56)"/>
</clipPath>
</defs>
</svg>
