<svg width="1979" height="1350" viewBox="0 0 1979 1350" fill="none" xmlns="http://www.w3.org/2000/svg">
<g clip-path="url(#clip0_5_36)">
<path d="M77.7934 1336.49C69.6506 1336.49 55.848 1332.86 51.2196 1322.88C35.0166 1287.93 3.1506 1160.16 0.015005 1040.54C-0.180032 1037.07 1.96162 940.543 8.99795 925.163C20.9439 899.059 33.3438 892.065 45.0197 887.138C350.661 758.207 679.909 695.531 1051.59 695.531C1170.15 695.531 1291.81 701.685 1423.54 714.333C1590.14 730.336 1705.57 753.881 1821.96 795.612C1985.41 854.213 1980.38 881.48 1978.48 891.742C1974.24 914.649 1934.88 919.778 1872.74 920.623L1870.83 920.649C1707.38 922.941 1425.63 942.937 1169.53 991.741C805.389 1061.13 610.142 1113.05 395.775 1197.52C298.091 1236.02 134.238 1306.42 89.2968 1333.63C86.1612 1335.53 82.2942 1336.49 77.7934 1336.49Z" fill="black"/>
<path d="M11.3721 1040.25C10.9708 1032.96 13.9489 941.624 19.3386 929.85C30.1857 906.155 40.6127 901.262 49.5056 897.51C497.16 708.672 953.737 680.512 1422.58 725.538C1576.63 740.333 1694.7 761.904 1818.27 806.209C1856.18 819.799 1972.3 863.85 1967.52 889.694C1964.03 908.594 1895.19 909.048 1870.78 909.393C1680.59 912.065 1403.82 935.658 1167.53 980.684C784.49 1053.67 596.482 1106.38 391.754 1187.05C298.395 1223.84 131.08 1295.24 83.5695 1324.01C78.281 1327.21 64.1371 1323.76 61.5341 1318.14C46.535 1285.78 14.5152 1160.12 11.3721 1040.25Z" fill="white"/>
<path d="M1179.05 1200.11V1201.56H1178.87V1200.11H1179.05ZM1180.35 1201.58C1180.26 1201.58 1180.18 1201.56 1180.11 1201.51C1180.04 1201.47 1179.99 1201.4 1179.95 1201.32C1179.91 1201.23 1179.89 1201.13 1179.89 1201.02C1179.89 1200.9 1179.91 1200.8 1179.95 1200.72C1179.99 1200.64 1180.04 1200.57 1180.11 1200.52C1180.18 1200.48 1180.26 1200.46 1180.36 1200.46C1180.43 1200.46 1180.48 1200.47 1180.52 1200.49C1180.57 1200.51 1180.6 1200.54 1180.62 1200.57C1180.64 1200.6 1180.66 1200.62 1180.67 1200.64H1180.69V1200.11H1180.85V1201.56H1180.69V1201.39H1180.67C1180.66 1201.41 1180.64 1201.44 1180.62 1201.47C1180.6 1201.5 1180.56 1201.52 1180.52 1201.55C1180.48 1201.57 1180.42 1201.58 1180.35 1201.58ZM1180.38 1201.43C1180.44 1201.43 1180.5 1201.42 1180.55 1201.38C1180.59 1201.34 1180.63 1201.3 1180.65 1201.23C1180.68 1201.17 1180.69 1201.1 1180.69 1201.02C1180.69 1200.93 1180.68 1200.86 1180.65 1200.8C1180.63 1200.74 1180.59 1200.69 1180.55 1200.66C1180.5 1200.62 1180.44 1200.61 1180.38 1200.61C1180.31 1200.61 1180.25 1200.62 1180.2 1200.66C1180.15 1200.7 1180.12 1200.75 1180.09 1200.81C1180.07 1200.87 1180.06 1200.94 1180.06 1201.02C1180.06 1201.09 1180.07 1201.16 1180.09 1201.23C1180.12 1201.29 1180.15 1201.34 1180.2 1201.38C1180.25 1201.41 1180.31 1201.43 1180.38 1201.43ZM1181.63 1201.58C1181.53 1201.58 1181.44 1201.56 1181.37 1201.51C1181.29 1201.47 1181.24 1201.4 1181.19 1201.32C1181.15 1201.23 1181.13 1201.13 1181.13 1201.02C1181.13 1200.91 1181.15 1200.81 1181.19 1200.72C1181.24 1200.64 1181.29 1200.57 1181.37 1200.53C1181.44 1200.48 1181.53 1200.46 1181.63 1200.46C1181.73 1200.46 1181.81 1200.48 1181.89 1200.53C1181.96 1200.57 1182.02 1200.64 1182.06 1200.72C1182.1 1200.81 1182.12 1200.91 1182.12 1201.02C1182.12 1201.13 1182.1 1201.23 1182.06 1201.32C1182.02 1201.4 1181.96 1201.47 1181.89 1201.51C1181.81 1201.56 1181.73 1201.58 1181.63 1201.58ZM1181.63 1201.43C1181.7 1201.43 1181.76 1201.41 1181.81 1201.38C1181.86 1201.34 1181.9 1201.29 1181.92 1201.22C1181.94 1201.16 1181.95 1201.09 1181.95 1201.02C1181.95 1200.95 1181.94 1200.88 1181.92 1200.82C1181.9 1200.75 1181.86 1200.7 1181.81 1200.66C1181.76 1200.63 1181.7 1200.61 1181.63 1200.61C1181.55 1200.61 1181.49 1200.63 1181.44 1200.66C1181.39 1200.7 1181.36 1200.75 1181.34 1200.82C1181.31 1200.88 1181.3 1200.95 1181.3 1201.02C1181.3 1201.09 1181.31 1201.16 1181.34 1201.22C1181.36 1201.29 1181.39 1201.34 1181.44 1201.38C1181.49 1201.41 1181.55 1201.43 1181.63 1201.43ZM1182.54 1200.9V1201.56H1182.38V1200.47H1182.54V1200.64H1182.55C1182.58 1200.58 1182.62 1200.54 1182.67 1200.51C1182.72 1200.47 1182.79 1200.46 1182.87 1200.46C1182.95 1200.46 1183.01 1200.47 1183.07 1200.5C1183.12 1200.53 1183.16 1200.58 1183.19 1200.64C1183.23 1200.7 1183.24 1200.77 1183.24 1200.87V1201.56H1183.07V1200.88C1183.07 1200.79 1183.05 1200.73 1183.01 1200.68C1182.96 1200.63 1182.9 1200.61 1182.82 1200.61C1182.77 1200.61 1182.72 1200.62 1182.68 1200.64C1182.64 1200.66 1182.61 1200.7 1182.58 1200.74C1182.56 1200.79 1182.54 1200.84 1182.54 1200.9ZM1183.69 1200.11V1200.23C1183.69 1200.27 1183.69 1200.31 1183.67 1200.36C1183.66 1200.4 1183.64 1200.44 1183.61 1200.49C1183.59 1200.53 1183.55 1200.56 1183.52 1200.59L1183.43 1200.52C1183.45 1200.48 1183.48 1200.43 1183.5 1200.39C1183.52 1200.34 1183.54 1200.29 1183.54 1200.24V1200.11H1183.69ZM1184.42 1200.47V1200.61H1183.85V1200.47H1184.42ZM1184.02 1200.21H1184.19V1201.25C1184.19 1201.3 1184.19 1201.33 1184.21 1201.35C1184.22 1201.38 1184.24 1201.39 1184.26 1201.4C1184.28 1201.41 1184.31 1201.41 1184.33 1201.41C1184.35 1201.41 1184.37 1201.41 1184.38 1201.41C1184.39 1201.41 1184.4 1201.41 1184.41 1201.4L1184.44 1201.55C1184.43 1201.56 1184.41 1201.56 1184.39 1201.57C1184.37 1201.57 1184.35 1201.57 1184.31 1201.57C1184.27 1201.57 1184.22 1201.56 1184.18 1201.54C1184.13 1201.52 1184.09 1201.49 1184.06 1201.45C1184.03 1201.41 1184.02 1201.36 1184.02 1201.29V1200.21ZM1185.4 1200.11V1201.56H1185.23V1200.11H1185.4ZM1185.71 1201.56V1200.47H1185.88V1201.56H1185.71ZM1185.79 1200.29C1185.76 1200.29 1185.73 1200.28 1185.71 1200.25C1185.69 1200.23 1185.68 1200.21 1185.68 1200.17C1185.68 1200.14 1185.69 1200.12 1185.71 1200.09C1185.73 1200.07 1185.76 1200.06 1185.79 1200.06C1185.83 1200.06 1185.86 1200.07 1185.88 1200.09C1185.9 1200.12 1185.91 1200.14 1185.91 1200.17C1185.91 1200.21 1185.9 1200.23 1185.88 1200.25C1185.86 1200.28 1185.83 1200.29 1185.79 1200.29ZM1186.34 1201.16L1186.34 1200.96H1186.37L1186.85 1200.47H1187.06L1186.55 1200.98H1186.53L1186.34 1201.16ZM1186.18 1201.56V1200.11H1186.35V1201.56H1186.18ZM1186.88 1201.56L1186.45 1201.02L1186.57 1200.9L1187.09 1201.56H1186.88ZM1187.68 1201.58C1187.58 1201.58 1187.49 1201.56 1187.41 1201.51C1187.34 1201.47 1187.28 1201.4 1187.24 1201.32C1187.2 1201.23 1187.18 1201.14 1187.18 1201.02C1187.18 1200.91 1187.2 1200.81 1187.24 1200.73C1187.28 1200.64 1187.34 1200.58 1187.41 1200.53C1187.48 1200.48 1187.57 1200.46 1187.67 1200.46C1187.72 1200.46 1187.78 1200.46 1187.84 1200.48C1187.89 1200.5 1187.94 1200.53 1187.99 1200.58C1188.03 1200.62 1188.07 1200.67 1188.1 1200.74C1188.12 1200.81 1188.14 1200.9 1188.14 1201V1201.07H1187.3V1200.93H1187.97C1187.97 1200.87 1187.95 1200.81 1187.93 1200.76C1187.9 1200.71 1187.87 1200.68 1187.82 1200.65C1187.78 1200.62 1187.73 1200.61 1187.67 1200.61C1187.6 1200.61 1187.54 1200.62 1187.49 1200.66C1187.45 1200.69 1187.41 1200.73 1187.38 1200.78C1187.36 1200.84 1187.34 1200.89 1187.34 1200.95V1201.05C1187.34 1201.13 1187.36 1201.2 1187.39 1201.26C1187.41 1201.32 1187.45 1201.36 1187.51 1201.39C1187.56 1201.42 1187.62 1201.43 1187.68 1201.43C1187.73 1201.43 1187.77 1201.43 1187.8 1201.41C1187.84 1201.4 1187.87 1201.38 1187.9 1201.36C1187.92 1201.33 1187.94 1201.3 1187.96 1201.26L1188.12 1201.31C1188.1 1201.36 1188.07 1201.41 1188.03 1201.45C1187.99 1201.49 1187.94 1201.53 1187.88 1201.55C1187.82 1201.57 1187.76 1201.58 1187.68 1201.58ZM1188.98 1201.56V1200.11H1189.14V1200.64H1189.16C1189.17 1200.62 1189.19 1200.6 1189.21 1200.57C1189.23 1200.54 1189.26 1200.51 1189.3 1200.49C1189.35 1200.47 1189.4 1200.46 1189.47 1200.46C1189.57 1200.46 1189.65 1200.48 1189.72 1200.52C1189.79 1200.57 1189.84 1200.64 1189.88 1200.72C1189.92 1200.8 1189.94 1200.9 1189.94 1201.02C1189.94 1201.13 1189.92 1201.23 1189.88 1201.32C1189.84 1201.4 1189.79 1201.47 1189.72 1201.51C1189.65 1201.56 1189.57 1201.58 1189.48 1201.58C1189.41 1201.58 1189.35 1201.57 1189.31 1201.55C1189.27 1201.52 1189.23 1201.5 1189.21 1201.47C1189.19 1201.44 1189.17 1201.41 1189.16 1201.39H1189.14V1201.56H1188.98ZM1189.14 1201.02C1189.14 1201.1 1189.15 1201.17 1189.18 1201.23C1189.2 1201.3 1189.24 1201.34 1189.28 1201.38C1189.33 1201.42 1189.39 1201.43 1189.45 1201.43C1189.52 1201.43 1189.58 1201.41 1189.63 1201.38C1189.68 1201.34 1189.71 1201.29 1189.74 1201.23C1189.76 1201.16 1189.77 1201.09 1189.77 1201.02C1189.77 1200.94 1189.76 1200.87 1189.74 1200.81C1189.71 1200.75 1189.68 1200.7 1189.63 1200.66C1189.58 1200.62 1189.52 1200.61 1189.45 1200.61C1189.39 1200.61 1189.33 1200.62 1189.28 1200.66C1189.24 1200.69 1189.2 1200.74 1189.18 1200.8C1189.15 1200.86 1189.14 1200.93 1189.14 1201.02ZM1190.88 1201.11V1200.47H1191.05V1201.56H1190.88V1201.38H1190.87C1190.85 1201.43 1190.81 1201.48 1190.75 1201.52C1190.7 1201.56 1190.63 1201.57 1190.55 1201.57C1190.48 1201.57 1190.42 1201.56 1190.37 1201.53C1190.31 1201.5 1190.27 1201.45 1190.24 1201.39C1190.21 1201.33 1190.2 1201.26 1190.2 1201.16V1200.47H1190.36V1201.15C1190.36 1201.23 1190.39 1201.29 1190.43 1201.34C1190.48 1201.39 1190.53 1201.41 1190.6 1201.41C1190.64 1201.41 1190.69 1201.4 1190.73 1201.38C1190.77 1201.36 1190.81 1201.33 1190.84 1201.28C1190.87 1201.24 1190.88 1201.18 1190.88 1201.11ZM1191.8 1201.99C1191.72 1201.99 1191.65 1201.98 1191.59 1201.96C1191.53 1201.94 1191.48 1201.91 1191.44 1201.88C1191.41 1201.85 1191.37 1201.81 1191.35 1201.77L1191.49 1201.68C1191.5 1201.7 1191.52 1201.72 1191.54 1201.75C1191.57 1201.77 1191.6 1201.8 1191.64 1201.82C1191.68 1201.83 1191.73 1201.84 1191.8 1201.84C1191.89 1201.84 1191.96 1201.82 1192.02 1201.78C1192.07 1201.74 1192.1 1201.67 1192.1 1201.58V1201.36H1192.09C1192.08 1201.38 1192.06 1201.4 1192.04 1201.43C1192.01 1201.46 1191.98 1201.49 1191.94 1201.51C1191.9 1201.53 1191.84 1201.54 1191.77 1201.54C1191.68 1201.54 1191.6 1201.52 1191.53 1201.48C1191.46 1201.44 1191.41 1201.38 1191.37 1201.3C1191.33 1201.22 1191.31 1201.12 1191.31 1201.01C1191.31 1200.9 1191.33 1200.8 1191.37 1200.72C1191.4 1200.63 1191.46 1200.57 1191.53 1200.52C1191.6 1200.48 1191.68 1200.46 1191.77 1200.46C1191.84 1200.46 1191.9 1200.47 1191.94 1200.49C1191.98 1200.51 1192.02 1200.54 1192.04 1200.57C1192.06 1200.6 1192.08 1200.62 1192.09 1200.64H1192.11V1200.47H1192.27V1201.59C1192.27 1201.69 1192.25 1201.76 1192.21 1201.82C1192.16 1201.88 1192.11 1201.92 1192.04 1201.95C1191.96 1201.98 1191.89 1201.99 1191.8 1201.99ZM1191.79 1201.39C1191.86 1201.39 1191.92 1201.38 1191.96 1201.35C1192.01 1201.32 1192.04 1201.27 1192.07 1201.21C1192.09 1201.16 1192.1 1201.09 1192.1 1201.01C1192.1 1200.93 1192.09 1200.86 1192.07 1200.8C1192.05 1200.74 1192.01 1200.69 1191.96 1200.66C1191.92 1200.62 1191.86 1200.61 1191.79 1200.61C1191.72 1200.61 1191.66 1200.62 1191.61 1200.66C1191.57 1200.7 1191.53 1200.74 1191.51 1200.8C1191.49 1200.87 1191.47 1200.93 1191.47 1201.01C1191.47 1201.08 1191.49 1201.15 1191.51 1201.21C1191.53 1201.27 1191.57 1201.31 1191.62 1201.34C1191.66 1201.38 1191.72 1201.39 1191.79 1201.39ZM1193.35 1200.71L1193.2 1200.76C1193.19 1200.73 1193.18 1200.71 1193.16 1200.68C1193.14 1200.66 1193.11 1200.64 1193.08 1200.62C1193.05 1200.61 1193.01 1200.6 1192.96 1200.6C1192.9 1200.6 1192.84 1200.62 1192.8 1200.65C1192.75 1200.68 1192.73 1200.72 1192.73 1200.76C1192.73 1200.8 1192.75 1200.84 1192.78 1200.86C1192.81 1200.89 1192.85 1200.91 1192.92 1200.92L1193.08 1200.96C1193.18 1200.98 1193.25 1201.02 1193.3 1201.07C1193.35 1201.12 1193.37 1201.18 1193.37 1201.26C1193.37 1201.32 1193.35 1201.37 1193.32 1201.42C1193.28 1201.47 1193.23 1201.51 1193.17 1201.54C1193.1 1201.57 1193.03 1201.58 1192.94 1201.58C1192.83 1201.58 1192.74 1201.56 1192.67 1201.51C1192.59 1201.46 1192.55 1201.39 1192.53 1201.3L1192.69 1201.26C1192.7 1201.32 1192.73 1201.36 1192.77 1201.39C1192.82 1201.42 1192.87 1201.44 1192.94 1201.44C1193.02 1201.44 1193.08 1201.42 1193.13 1201.39C1193.17 1201.35 1193.2 1201.31 1193.2 1201.27C1193.2 1201.23 1193.18 1201.2 1193.16 1201.17C1193.13 1201.14 1193.09 1201.12 1193.03 1201.11L1192.85 1201.07C1192.75 1201.05 1192.68 1201.01 1192.63 1200.96C1192.59 1200.91 1192.56 1200.85 1192.56 1200.77C1192.56 1200.71 1192.58 1200.65 1192.61 1200.61C1192.65 1200.56 1192.7 1200.52 1192.76 1200.5C1192.82 1200.47 1192.89 1200.46 1192.96 1200.46C1193.07 1200.46 1193.16 1200.48 1193.22 1200.53C1193.28 1200.57 1193.32 1200.64 1193.35 1200.71ZM1193.84 1200.11L1193.83 1201.15H1193.66L1193.65 1200.11H1193.84ZM1193.75 1201.57C1193.71 1201.57 1193.68 1201.56 1193.66 1201.53C1193.63 1201.51 1193.62 1201.48 1193.62 1201.44C1193.62 1201.41 1193.63 1201.38 1193.66 1201.35C1193.68 1201.33 1193.71 1201.32 1193.75 1201.32C1193.78 1201.32 1193.81 1201.33 1193.84 1201.35C1193.86 1201.38 1193.87 1201.41 1193.87 1201.44C1193.87 1201.47 1193.87 1201.49 1193.86 1201.51C1193.85 1201.53 1193.83 1201.54 1193.81 1201.55C1193.79 1201.57 1193.77 1201.57 1193.75 1201.57Z" fill="white"/>
<path d="M812.996 2.71648C728.788 12.7122 713.977 60.4508 711.243 94.9855C669.419 71.5196 624.661 69.2721 577.793 88.5844C543.68 102.636 522.755 132.927 522.387 167.387C469.615 206.848 439.133 249.259 415.665 316.073C407.897 338.196 404.154 361.613 404.154 384.959C404.154 439.031 424.224 492.728 460.767 529.09L481.392 549.611L502.996 464.782L499.939 459.086C496.237 452.19 493.492 446.141 491.35 440.735L507.463 453.139L548.237 375.155L545.777 368.296C543.939 363.17 542.712 358.548 541.718 354.176C543.969 355.79 559.362 366.78 559.362 366.78L569.245 358.232C572.662 355.276 576.056 352.683 579.402 350.349C567.561 376.003 556.256 411.044 556.256 451.661C556.256 456.501 556.417 461.424 556.755 466.414C562.137 545.607 608.882 595.83 652.274 604.512L671.463 608.351L674.009 533.139L669.602 528.178C665.585 523.661 662.637 518.303 660.406 512.847C666.647 516.299 674.861 520.839 674.861 520.839L682.201 469L676.927 463.221C673.225 459.165 670.412 452.798 668.316 445.759L682.546 454.115L719.629 394.504L718.294 388.009C717.533 384.31 717.206 380.82 716.76 377.267L725.079 385.349L735.341 380.79C736.387 380.325 737.895 379.74 739.103 379.229C738.019 381.984 736.744 384.685 735.915 387.503C733.829 394.576 732.809 401.892 732.809 409.228C732.809 423.542 736.714 437.913 744.298 450.629C756.232 470.632 775.822 484.413 799.47 489.43C838.418 497.696 869.402 479.367 884.477 439.144C886.753 433.069 888.238 426.548 889.24 419.82C951.622 508.48 1025.87 637.385 1046.2 728.892C1059.63 789.407 1063.56 882.032 1063.56 969.626C1063.56 1066.49 1058.77 1156.98 1056.72 1191.27C835.654 1200.17 635.906 1242.68 463.096 1318.17L390.208 1350H1547.06L1509.57 1320.35C1444.05 1268.56 1334.86 1205.68 1235.72 1192.23C1230.42 1123.88 1204.35 823.78 1144.35 666.212C1126.69 619.855 1103.63 566.859 1069.54 511.132L1089.12 484.196C1110 455.481 1117.37 424.417 1117.37 390.047C1117.37 361.823 1112.36 331.281 1105.81 298.052C1112.67 302.562 1119.42 307.136 1124.48 310.884L1137.18 320.276C1137.18 320.276 1148.92 305.958 1149.31 305.47C1149.34 306.055 1149.47 306.637 1149.47 307.218C1149.47 309.334 1149.32 311.432 1148.98 313.458L1147.81 320.55L1211.72 404.38L1221.02 373.027C1227.77 350.255 1231.13 328.482 1231.13 308.006C1231.13 273.318 1221.48 242.355 1202.37 216.578C1170.09 173.053 1128.5 151.71 1084.28 130.297C1067.93 75.7895 1020.95 44.6542 955.294 45.3371C951.689 36.5496 945.999 28.4862 938.055 21.9913C913.852 2.2212 871.78 -4.26251 812.996 2.71648ZM965.631 345.408C965.631 345.408 968.882 341.438 970.173 339.869C970.199 340.68 970.338 341.483 970.338 342.29C970.338 345.321 970.124 348.308 969.64 351.148L968.219 359.392L1001.72 394.508C1001.72 394.508 1018.77 381.421 1021.55 379.282C1020.62 384.37 1019.31 389.326 1017.24 393.469L1012.34 403.266L1044.23 440.971C1044.23 440.971 1047.76 437.767 1051.21 434.622C1050.88 438.168 1050.58 441.613 1050.39 444.723L1050.2 447.721C1050.2 447.721 1069.35 510.645 1069.45 510.986C1036.77 457.612 993.761 401.75 935.34 346.657C939.627 347.805 943.483 349.013 946.536 350.255L957.867 354.859L965.631 345.408Z" fill="black"/>
<path d="M836.651 326.613C894.195 385.923 1032.51 590.716 1062.4 725.279C1095.48 874.194 1072.36 1207.07 1072.36 1207.07L1148.45 1230.41L1220.16 1207.07C1220.16 1207.07 1195.25 846.556 1128.83 672.118C1095.12 583.613 1035.83 451.162 888.126 326.613C846.534 283.835 840.001 302.434 836.651 326.613Z" fill="white"/>
<path d="M942.83 62.4096C987.673 59.0852 1054.1 70.7169 1070.71 142.154C1118.87 165.414 1158.29 185.019 1189.03 226.468C1227.22 277.974 1213.53 339.855 1205.09 368.292L1165.36 316.182C1169.1 293.752 1157.02 269.858 1157.02 269.858C1157.02 269.858 1141.7 288.765 1134.35 297.519C1117.16 284.807 1082.41 263.348 1081.91 263.844C1100.59 354.803 1115.54 419.595 1075.68 474.418L1066.97 445.763C1068.21 425.828 1073.2 392.182 1073.2 392.182L1045.79 417.104L1032.09 400.906C1043.3 378.479 1039.15 344.837 1039.15 344.837L1003.44 372.254L986.001 353.978C990.153 329.889 979.358 302.472 979.358 302.472L952.788 334.872C926.222 324.073 885.53 321.582 834.052 331.547C806.953 336.793 751.015 355.64 728.597 365.602L699.537 337.363C699.537 337.363 696.214 363.114 702.027 391.357L676.995 431.595L646.851 413.896C646.851 413.896 647.229 455.319 664.663 474.425L661.801 494.642L637.264 481.074C637.264 481.074 637.264 516.795 657.191 539.221L655.533 588.232C618.169 580.757 578.029 534.482 573.325 465.293C567.512 379.732 618.994 315.77 618.994 315.77C618.994 315.77 589.105 319.09 558.379 345.674L523.505 320.752C523.505 320.752 518.52 341.517 530.147 373.913L501.916 427.914L469.532 402.988C469.532 402.988 461.228 422.094 485.308 466.951L472.48 517.316C425.649 470.718 406.899 391.154 431.335 321.585C452.924 260.114 481.156 216.919 539.28 175.387C535.961 142.162 555.888 115.581 584.116 103.95C646.854 78.1049 693.723 98.9668 726.939 125.551C728.601 95.6424 716.977 30.8503 814.953 19.2224C921.132 6.61521 941.168 42.4707 942.83 62.4096Z" fill="white"/>
<path d="M1499.27 1333.39H469.738C663.837 1248.6 871.42 1213.71 1072.36 1207.07H1220.16C1314.83 1215.37 1427.75 1276.84 1499.27 1333.39Z" fill="white"/>
<path d="M842.772 331.131C862.7 339.851 883.873 393.431 868.926 433.302C860.127 456.779 841.445 481.352 802.917 473.172C761.813 464.452 742.178 425.069 751.848 392.182C764.304 349.824 811.732 317.544 842.772 331.131Z" fill="white"/>
<path d="M366.737 1129.68C358.609 1130.36 351.426 1124.41 350.575 1116.29C346.044 1073.2 353.309 1061.02 371.309 1050.03C376.365 1046.95 380.014 1044.71 383.934 1037.66C410.841 989.216 654.708 666.847 723.14 612.08C739.38 599.075 753.371 594.104 765.909 596.854C775.976 599.068 783.92 605.874 789.52 617.086C793.237 624.522 794.636 632.244 795.87 639.054C797.01 645.332 797.989 650.75 800.427 655.136C806.886 666.768 802.31 685.086 782.018 746.636C776.464 763.483 771.22 779.392 768.182 790.866C765.977 799.207 763.554 808.231 761.082 817.349C776.865 796.626 793.218 775.332 804.204 761.491C813.157 750.219 892.863 651.632 934.376 658.854C946.232 660.933 955.691 667.169 961.734 676.895C979.332 705.212 963.868 757.994 950.223 804.565C946.142 818.501 942.286 831.663 940.107 841.798L939.852 842.987L936.116 852.446C930.697 866.119 916.459 902.02 912.134 922.019C912.798 921.295 913.515 920.492 914.291 919.606C919.437 913.745 925.843 906.455 936.131 905.84C940.471 905.614 947.042 906.545 953.79 912.593C960.65 918.739 973.972 936.438 949.574 967.941C934.706 987.141 887.818 1028.65 864.279 1014.21C862.925 1014.25 859.999 1014.94 858 1015.41C847.442 1017.92 827.792 1022.58 811.349 1000.27C789.659 970.812 799.921 931.407 826.438 868.993C833.801 851.662 840.627 834.429 846.677 818.467C836.678 831.532 825.808 846.297 814.567 862.461C759.983 940.96 727.037 988.338 686.154 998.079C659.205 1004.48 637.56 973.003 633.498 966.624L630.516 961.938L631.3 956.437C631.713 953.556 641.506 885.353 653.182 838.624C658.568 817.071 664.501 793.988 670.945 771.201C575.696 886.366 490.949 1019.27 442.238 1095.66L428.158 1117.71L422.585 1119.24C403.734 1124.38 387.812 1127.93 366.737 1129.68Z" fill="black"/>
<path d="M776.07 623.798C781.91 635.479 780.383 650.003 787.281 662.427C793.511 673.638 763.265 750.707 753.652 787.024C742.441 829.39 725.833 888.779 725.833 888.779C725.833 888.779 787.986 806.021 815.925 770.822C849.557 728.461 907.941 669.466 931.758 673.638C981.579 682.358 936.116 788.799 925.404 838.642C913.199 869.793 883.49 940.487 901.711 942.618C924.287 945.267 929.166 910.71 943.749 923.779C969.126 946.517 886.464 1011 871.975 1001.34C858.9 992.616 840.837 1015.04 823.4 991.37C808.03 970.497 811.983 941.324 840.218 874.869C868.45 808.419 888.584 744.246 888.584 744.246C888.584 744.246 848.785 786.945 802.227 853.895C749.087 930.315 717.533 975.172 682.655 983.479C664.719 987.753 646.127 958.561 646.127 958.561C646.127 958.561 656.089 888.779 667.712 842.263C679.339 795.748 692.624 745.904 707.571 706.034C584.679 840.601 471.749 1021.69 418.609 1104.76C400.339 1109.74 385.396 1113.06 365.465 1114.72C358.823 1051.59 380.408 1074.85 397.016 1044.95C423.864 996.608 666.05 676.963 732.479 623.798C755.857 605.086 768.598 608.842 776.07 623.798Z" fill="white"/>
<path d="M868.859 1223.26C866.589 1223.26 864.527 1223.07 862.066 1222.81C848.188 1221.37 837.124 1215.33 826.419 1209.49C806.064 1198.38 796.271 1179.74 791.568 1170.78C788.965 1165.82 781.186 1150.35 779.314 1139.13C765.707 1132.06 756.784 1113.38 756.69 1113.17C746.642 1091.4 763.302 1063.61 771.329 1056.72C821.086 1014.03 906.808 1009.43 941.352 1009.43C948.79 1009.43 954.131 1009.64 957.297 1009.82C973.034 1010.72 979.156 1011.79 995.516 1014.66C1007.17 1016.69 1024.79 1019.77 1055.9 1024.51C1132 1036.09 1173.15 1042.13 1204.1 1042.13C1210.63 1042.13 1216.55 1041.86 1222.19 1041.29C1260.95 1037.43 1337.11 1020.88 1347.88 985.911C1349.28 981.367 1353.31 965.822 1346.47 956.385C1343.59 952.412 1339.11 949.89 1329.92 947.069C1316.42 942.926 1301.26 940.735 1286.11 940.735C1273.88 940.735 1265.84 942.157 1265.75 942.172L1265.09 942.277L1242.75 945.343C1151.77 957.841 1114.11 963.015 1084.75 963.015C1075.65 963.015 1066.85 962.512 1057.04 961.443C1039.37 959.503 1012.6 943.268 995.557 912.189C981.327 886.239 976.999 848.781 996.263 827.394C1004.7 818.025 1015.05 814.835 1019.47 813.473L1020.27 813.222C1086.82 788.083 1225.24 715.441 1227.43 651.73C1228.03 634.575 1219.37 610.726 1204.34 602.107C1198.08 598.52 1190.8 597.567 1182.37 596.464C1178.13 595.913 1173.87 595.631 1169.69 595.631C1155.98 595.631 1144.42 598.554 1134.21 601.132C1133.9 601.211 1101.01 609.747 1072.05 629.348C1070.91 630.117 1060.56 637.179 1050.17 645.914C1045.25 650.056 1042.69 652.21 1041.29 653.594L1039.72 655.197C1037.27 657.699 1034.5 660.54 1030.11 663.811C1029.85 664.01 1027.44 665.796 1024.63 667.526C1008.72 677.338 994.087 679.398 984.62 679.402C977.775 679.402 973.226 678.34 971.995 678.017C965.683 676.317 950.065 670.734 939.841 655.182C937.433 651.508 931.825 642.965 931.443 631.487C930.325 597.86 975.041 569.97 993.592 565.974L993.588 565.978C993.528 565.978 995.377 565.366 997.092 563.806C998.393 562.624 999.747 560.766 1000.22 559.971L1000.41 559.517C1022.56 509.925 1108.23 458.603 1173.36 455.905C1176.45 455.777 1179.52 455.71 1182.53 455.71C1256.82 455.71 1315.45 495.295 1335.57 559.018C1357.64 628.92 1300.54 728.037 1223.67 801.418C1247.3 796.769 1270.72 794.379 1293.31 794.379C1371.85 794.379 1436.47 823.041 1466.17 871.05C1482.92 898.118 1496.63 945.11 1484.91 995.832C1471.32 1054.59 1429.41 1087.73 1409.27 1103.66C1324.38 1170.78 1219.69 1171.34 1169.38 1171.61L1166.21 1171.62C1147.29 1171.62 1124.82 1170.76 1101.03 1169.85C1074.69 1168.84 1047.46 1167.79 1022.18 1167.79C983.094 1167.79 957.289 1170.36 943.299 1175.65C922.794 1183.39 900.905 1196.24 898.264 1202.1C894.397 1211 888.801 1217.14 881.543 1220.54C877.62 1222.37 873.476 1223.26 868.859 1223.26Z" fill="black"/>
<path d="M1158.1 836.102C1288.51 785.527 1411.2 810.614 1453.47 878.941C1470.26 906.076 1480.26 949.575 1470.34 992.443C1458.2 1045 1421.05 1075.24 1400.02 1091.87C1320.8 1154.51 1222.63 1156.31 1169.35 1156.6C1102.2 1156.96 981.931 1145.04 938.055 1161.6C932.223 1163.8 891.655 1180.14 884.608 1196C883.876 1197.64 881.382 1204.06 875.231 1206.94C871.567 1208.66 868.24 1208.35 863.668 1207.88C853.016 1206.77 844.025 1201.97 833.662 1196.31V1196.31C817.624 1187.56 809.451 1172.44 804.905 1163.79C801.203 1156.75 793.976 1141.07 793.964 1134.71C793.964 1134.18 794.009 1132.04 792.715 1130.02C791.061 1127.44 788.192 1126.59 787.423 1126.33C780.406 1123.96 772.364 1111.21 770.369 1106.88C763.779 1092.6 777.06 1071.62 781.152 1068.11C832.724 1023.87 931.533 1023.38 956.498 1024.81C982.366 1026.29 980.157 1028.15 1053.7 1039.34C1143.25 1052.97 1188.73 1059.72 1223.74 1056.23C1235.1 1055.1 1346.06 1043 1362.28 990.331C1363.43 986.586 1370.44 963.807 1358.67 947.571C1352.91 939.628 1344.52 935.831 1334.38 932.716C1296.73 921.167 1263.11 927.403 1263.11 927.403C1124.03 946.475 1097.19 950.727 1058.73 946.52C1046.99 945.233 1023.88 932.51 1008.77 904.969C997.842 885.042 992.812 853.711 1007.47 837.442C1014.15 830.02 1023.01 828.253 1025.48 827.319C1066.85 811.691 1239.68 733.612 1242.49 652.247C1243.21 631.34 1233.18 601.315 1211.85 589.087C1203.02 584.022 1193.62 582.795 1184.35 581.583C1162.41 578.716 1145.36 582.851 1130.59 586.584C1130.59 586.584 1095.36 595.488 1063.7 616.917C1059.59 619.697 1049.93 626.56 1040.57 634.424C1035.28 638.874 1032.64 641.092 1030.77 642.957C1027.88 645.831 1025.53 648.547 1021.19 651.786C1021.19 651.786 1019.14 653.32 1016.82 654.75C994.5 668.513 975.874 663.503 975.874 663.503C972.265 662.532 960.196 658.742 952.432 646.934C950.459 643.925 946.734 638.263 946.494 630.987C945.696 606.974 983.379 583.534 996.818 580.645C998.247 580.337 1002.92 578.848 1007.25 574.9C1010.28 572.139 1013.31 567.918 1014.16 565.636C1033.86 521.549 1114.32 473.371 1174.04 470.895C1249.36 467.769 1303.13 505.913 1321.32 563.531C1345.49 640.094 1260.62 764.189 1158.1 836.102Z" fill="white"/>
</g>
<defs>
<clipPath id="clip0_5_36">
<rect width="1979" height="1350" fill="white"/>
</clipPath>
</defs>
</svg>
