<svg width="1500" height="778" viewBox="0 0 1500 778" fill="none" xmlns="http://www.w3.org/2000/svg">
<g clip-path="url(#clip0_5_35)">
<g clip-path="url(#clip1_5_35)">
<path d="M512.715 83.3005H380.565V6.43262H312.273V207.474H380.565V126.699H512.715V207.474H580.999V6.43262H512.715V83.3005Z" fill="white"/>
<path d="M695.041 126.691L742.595 48.6251L788.694 126.691H695.041ZM716.106 6.4248L593.629 207.466H645.837L670.886 166.332H812.086L836.388 207.466H919.754L797.308 6.4248H716.106Z" fill="white"/>
<path d="M1190.64 93.5571C1206.9 72.2507 1204.7 41.0382 1173.46 23.1635C1144.36 6.45616 1088.8 0.308594 1054.09 0.308594C998.559 0.308594 962.81 4.08273 932.399 9.28093V207.474H1000.67V39.3573C1025.26 34.4859 1050.23 34.377 1059.56 34.8128C1086.66 36.0112 1101.92 40.2289 1114.11 48.8744C1126.71 57.8623 1130.13 77.729 1113.79 91.5182C1101.54 101.798 1076.71 109.875 1021.17 101.401L1013.33 114.28L1118.34 207.474H1211.3L1117.9 126.699C1140.34 123.789 1174.37 114.817 1190.64 93.5571Z" fill="white"/>
<path d="M162.615 75.9001C123.185 68.2351 89.6767 63.4727 89.6767 50.6795C89.6767 36.5168 116.773 32.8672 155.168 36.937C191.477 40.7812 225.717 50.2827 257.653 63.8696L281.909 24.0816C256.097 14.2533 202.901 1.66243 154.6 0.230595C101.684 -1.30241 12.3418 3.44445 8.48209 56.9516C4.95696 105.93 74.7513 117.634 120.516 128.279C165.152 138.668 206.994 142.426 206.994 157.881C206.994 168.744 192.248 177.226 153.238 174.3C106.283 170.791 66.3315 157.958 26.4812 138.154L0 181.638C44.2002 198.914 102.166 212.789 154.39 213.652C216.48 214.687 286.586 204.672 288.173 151.492C289.473 107.113 243.498 91.6114 162.615 75.9001Z" fill="white"/>
<path d="M1411.28 91.9073C1399.48 101.572 1382.25 104.996 1355.04 104.918C1334.98 104.848 1314.22 101.16 1297.3 97.3234V39.3573C1321.87 34.486 1347.29 34.4159 1356.62 34.805C1383.87 35.9567 1399.77 40.5713 1411.58 48.8744C1423.88 57.5043 1427.98 78.2193 1411.28 91.9073ZM1470.96 23.1635C1443.16 6.70518 1391.11 0.308594 1351.15 0.308594C1295.6 0.308594 1259.43 4.08273 1229.02 9.27314V207.474H1297.3V134.862C1318.41 138.388 1344.86 140.434 1367.75 140.263C1423.62 139.788 1465.14 126.661 1484.05 106.086C1510.98 76.8108 1501.94 41.4584 1470.96 23.1635Z" fill="white"/>
</g>
<path d="M373.071 752.306H21.9064L243.986 534.391L373.071 752.306ZM94.532 722.626H320.993L237.749 582.094L94.532 722.626Z" fill="white"/>
<path d="M1042.74 289.978L940.171 397.283H1064.8L881.733 722.626H764.292L515.434 289.978H159.158L427.527 752.306H755.708H781.363H865.03H892.692H1217.49L1483.42 289.978H1042.74ZM444.616 722.626L210.703 319.658H498.265L730.05 722.626H444.616ZM1200.32 722.626H915.79L1115.56 367.603H1009.6L1055.43 319.658H1432.1L1200.32 722.626Z" fill="white"/>
<path d="M689.63 498.238L572.836 289.978H895.075L689.63 498.238ZM623.509 319.658L696.212 449.299L824.103 319.658H623.509Z" fill="white"/>
</g>
<defs>
<clipPath id="clip0_5_35">
<rect width="1500" height="777.421" fill="white"/>
</clipPath>
<clipPath id="clip1_5_35">
<rect width="1500" height="213.722" fill="white"/>
</clipPath>
</defs>
</svg>
